<svg xmlns="http://www.w3.org/2000/svg" viewBox="0 0 14 20">
  <g id="Group_371" data-name="Group 371" transform="translate(0)">
    <g id="Ellipse_1" data-name="Ellipse 1">
      <path id="Path_7" data-name="Path 7" d="M185.3,395.4v-2.79a5.109,5.109,0,0,0-1.38-3.69,4.957,4.957,0,0,0-8.62,3.67v2.81a7,7,0,1,0,10,0Zm-8-2.85a3,3,0,1,1,6-.06v1.49a6.867,6.867,0,0,0-6,0Zm3,12.74a5,5,0,1,1,5-5A5,5,0,0,1,180.3,405.29Z" transform="translate(-173.3 -387.29)" fill="#333"/>
    </g>
    <g id="Line_4" data-name="Line 4" transform="translate(6 11.099)">
      <rect id="Rectangle_35" data-name="Rectangle 35" width="2" height="3.9" fill="#333"/>
    </g>
  </g>
</svg>
