<?xml version="1.0" standalone="no"?>
<!DOCTYPE svg PUBLIC "-//W3C//DTD SVG 1.1//EN" "http://www.w3.org/Graphics/SVG/1.1/DTD/svg11.dtd" >
<svg>
<metadata>
Created by FontForge 20120731 at Wed Jul  3 07:48:22 2019
 By www
Copyright (C) 2001, 2014 Hoefler &#38; Co. http://www.typography.com
</metadata>
<defs>
<font id="SurveyorDisplay-Bold" horiz-adv-x="565" >
  <font-face 
    font-family="Surveyor Display Bold"
    font-weight="400"
    font-stretch="normal"
    units-per-em="1000"
    panose-1="0 0 0 0 0 0 0 0 0 0"
    ascent="800"
    descent="-200"
    x-height="426"
    cap-height="608"
    bbox="-111 -287.167 1530 936"
    underline-thickness="61"
    underline-position="-121"
    unicode-range="U+0020-FB04"
  />
<missing-glyph horiz-adv-x="500" 
d="M0 -200v1000h500v-1000h-500zM71 750l179 -390l179 390h-358zM450 676l-172 -376l172 -376v752zM50 -76l172 376l-172 376v-752zM250 240l-179 -390h358z" />
    <glyph glyph-name="f_f" unicode="ff" horiz-adv-x="654" 
d="M384 424q0 31 3 55q-28 3 -45.5 20t-17.5 42q0 28 17 45q7 7 16.5 11.5t16 6t7.5 2.5q2 3 -3.5 8t-21 10t-35.5 5q-51 0 -72 -41q-18 -35 -18 -111v-52q25 0 78 -0.5t75 -0.5zM614 0q-216 0 -284 -1q-3 0 -3.5 10.5t3.5 10.5q50 0 54 4q3 4 3 42q0 280 -3 334
q-40 1 -153 1q1 -38 1.5 -168.5t0.5 -174.5q0 -30 2 -32q4 -4 58 -6q1 0 2 -5t0 -10t-4 -5q-210 0 -278 -1q-2 0 -3 5t0 10t4 5q55 2 60 7t5 46q0 273 -3 329q-25 1 -64 1q-1 0 -2.5 2.5t-1.5 6t0.5 7t2 5.5t3.5 2h62q0 100 58 158q69 69 182 69q87 0 128 -51q59 61 169 61
q59 0 100.5 -29t41.5 -76q0 -31 -19 -51t-51 -20q-31 0 -50.5 18t-19.5 46q0 27 18 47q7 7 16 11.5t15 6t7 2.5q3 3 -2 8t-18.5 9.5t-31.5 4.5q-47 0 -64 -35q-16 -31 -16 -111v-70h106q2 0 3 -6t-0.5 -12t-4.5 -6q-11 0 -52 0.5t-52 0.5q0 -43 0.5 -147t1.5 -137
q0 -88 3 -90q3 -5 72 -6q2 0 3 -5t-0.5 -10t-4.5 -5z" />
    <glyph glyph-name="fi" unicode="fi" horiz-adv-x="606" 
d="M231 400q1 -36 1.5 -164.5t0.5 -172.5q0 -35 3 -37q3 -3 52 -6q2 0 2.5 -5t-0.5 -10t-4 -5q-201 0 -270 -1q-4 0 -4 10t4 10q55 1 60 6q3 5 3 42q0 280 -2 334h-65q-3 0 -4 6t0.5 12t5.5 6h63q-2 106 58 166q73 73 195 73q109 0 155 -48q26 -24 26 -58q0 -30 -22.5 -50.5
t-62.5 -20.5q-38 0 -60.5 19t-22.5 48q0 26 20 48q7 7 17 12l11 5q3 3 -3.5 8t-22 9.5t-34.5 4.5q-58 0 -81 -44q-19 -38 -19 -143v-29h116q37 0 95.5 0.5t63.5 0.5q26 0 26 -16v-259q0 -120 6 -126q5 -5 59 -5q2 0 3 -5.5t0.5 -11t-2.5 -5.5q-13 0 -139.5 1t-134.5 1
q-2 0 -2 10t2 10q46 2 49 5q5 5 5 38q1 18 1 91q0 64 -4 216q-1 22 -5 27q-4 4 -55 4q-71 0 -84 -1z" />
    <glyph glyph-name="fl" unicode="fl" horiz-adv-x="628" 
d="M611 -2q-74 2 -279 2q-3 0 -3 10.5t3 10.5q48 0 53 3q3 4 3 28q3 144 3 202q0 154 -1 229q-32 3 -51 22t-19 46q0 28 20 48q4 4 8.5 7.5t8.5 5.5t5 3q2 2 -4 7.5t-19.5 10t-30.5 4.5q-42 0 -60 -36q-16 -33 -16 -112v-65q18 0 57.5 -0.5t41.5 -0.5q5 0 5 -12t-5 -12h-99
q1 -70 1 -337q0 -33 3 -36q6 -6 59 -6q2 0 3 -5t-0.5 -10t-4.5 -5q-210 0 -279 -1q-4 0 -4 10t4 10q58 2 61 5q5 4 5 40q0 280 -3 337q-16 1 -65 1q-1 0 -2 2.5t-1 6v7t1.5 5.5t4.5 2h62q0 56 14 95t48 73q30 30 74 48.5t88 18.5q42 0 78 -17q110 5 161 5q9 0 9 -18
q0 -53 -0.5 -137t-0.5 -139q0 -61 -1 -161.5t-1 -135.5q0 -26 7 -32q5 -5 59 -6q1 0 2 -5.5t0 -10.5t-3 -5z" />
    <glyph glyph-name="f_f_i" unicode="ffi" horiz-adv-x="914" 
d="M905 20q2 0 3 -5.5t0.5 -11t-2.5 -5.5q-13 0 -139.5 1t-135.5 1q-1 0 -1.5 5t0 10t2.5 5q46 2 49 5q5 5 5 38q1 21 1 91q0 49 -4 213q-1 25 -5 29q-4 5 -53 5q-61 0 -89 -2q1 -33 1.5 -159t0.5 -177q0 -35 3 -37q3 -3 53 -6q2 0 2.5 -5t-0.5 -10t-4 -5q-195 0 -263 -1
q-3 0 -3.5 10.5t3.5 10.5q49 0 53 4q2 3 2 42q0 280 -3 334q-39 1 -150 1q1 -38 1.5 -168.5t0.5 -174.5q0 -30 2 -32q4 -4 56 -6q1 0 2 -5t0 -10t-4 -5q-207 0 -276 -1q-2 0 -3 5t0 10t4 5q55 2 60 7t5 46q0 273 -3 329q-25 1 -64 1q-1 0 -2.5 2.5t-1.5 6t0.5 7t2 5.5t3.5 2
h62q0 101 58 160q70 68 185 68q96 0 139 -53q71 64 177 64q110 0 158 -48q26 -26 26 -58q0 -30 -22.5 -50.5t-62.5 -20.5q-38 0 -60.5 19t-22.5 48q0 27 20 47q7 7 17 13l11 5q3 3 -4.5 8t-23.5 9.5t-35 4.5q-57 0 -81 -44q-19 -40 -19 -143v-29h121q34 0 93 0.5t64 0.5
q26 0 26 -13v-262q0 -119 7 -126q5 -5 58 -5zM382 424q0 30 6 57q-25 5 -40.5 21t-15.5 38q0 28 18 46q7 7 16.5 11.5t17 6t8.5 2.5q3 3 -3.5 8.5t-23.5 10.5t-39 5q-56 0 -78 -42q-17 -34 -17 -111v-52q25 0 77 -0.5t74 -0.5z" />
    <glyph glyph-name="f_f_l" unicode="ffl" horiz-adv-x="936" 
d="M919 -2q-74 2 -279 2q-3 0 -3 10.5t3 10.5q48 0 53 3q3 3 4 28q0 22 1.5 95t1.5 106q0 25 -0.5 108t-0.5 121q-33 3 -52 22.5t-19 46.5q0 28 20 48q4 4 8.5 7.5t8.5 5.5t5 3q2 2 -4 7.5t-19.5 10t-30.5 4.5q-43 0 -59 -36q-17 -33 -17 -112v-65q19 0 59 -0.5t42 -0.5
q5 0 5 -12t-5 -12h-101q1 -56 1 -334q0 -37 3 -39q6 -6 59 -6q3 -1 3 -10.5t-4 -9.5q-203 0 -271 -1q-3 0 -3.5 10.5t3.5 10.5q50 0 54 4q3 4 3 42q0 280 -3 334q-40 1 -153 1q1 -75 1 -343q0 -29 3 -32q4 -4 58 -6q2 0 2.5 -5t-0.5 -10t-4 -5q-210 0 -278 -1q-4 0 -4 10
t4 10q56 2 61 7t5 46q0 273 -3 329q-26 1 -64 1q-1 0 -2.5 2.5t-1.5 6t0.5 7t2 5.5t3.5 2h62q0 100 58 158q69 69 182 69q92 0 132 -57q65 65 160 65q42 0 78 -17q113 5 161 5q9 0 9 -19q0 -52 -0.5 -136t-0.5 -139q0 -141 -2 -297q0 -25 7 -32q5 -5 59 -6q1 0 2 -5.5
t0 -10.5t-3 -5zM385 424q0 32 4 55q-28 2 -46.5 19t-18.5 43q0 27 18 45q7 7 16.5 11.5t16 6t7.5 2.5q2 3 -3.5 8t-21 10t-35.5 5q-51 0 -73 -41q-17 -35 -17 -111v-52q24 0 78 -0.5t75 -0.5z" />
    <glyph glyph-name="f_f_b" unicode="ffb" horiz-adv-x="1199" 
d="M384 424q0 32 4 55q-28 2 -46 19t-18 43q0 28 17 45q7 7 16.5 11.5t16 6t7.5 2.5q2 3 -3.5 8t-21 10t-35.5 5q-51 0 -72 -41q-18 -35 -18 -111v-52q25 0 78.5 -0.5t74.5 -0.5zM940 396q-38 0 -69 -60q-19 -38 -19 -127q0 -141 10 -160q5 -12 24.5 -23t36.5 -11
q37 0 54 35q21 42 21 166q0 120 -18 154q-14 26 -40 26zM711 -14q-3 -5 -10.5 -2.5t-6.5 8.5q4 90 4 282q0 37 -0.5 107t-0.5 101q-32 3 -50.5 22.5t-18.5 46.5q0 29 19 48q4 4 8.5 7.5t8.5 5.5t5 3q2 2 -4 7.5t-19.5 10t-30.5 4.5q-43 0 -59 -36q-17 -33 -17 -112v-65
q19 0 58 -0.5t42 -0.5q2 0 3 -6t0 -12t-4 -6h-99q1 -60 1 -335q0 -36 3 -38q3 -3 67 -6q3 -1 3 -10.5t-4 -9.5q-211 0 -279 -1q-3 0 -3.5 10.5t3.5 10.5q50 0 54 4q3 4 3 42q0 280 -3 334q-40 1 -153 1q1 -38 1.5 -168.5t0.5 -174.5q0 -30 2 -32q4 -4 58 -6q1 0 2 -5t0 -10
t-4 -5q-209 0 -278 -1q-2 0 -3 5t0 10t4 5q55 2 60 7t5 46q0 273 -3 329q-25 1 -64 1q-1 0 -2.5 2.5t-1.5 6t0.5 7t2 5.5t3.5 2h62q0 100 58 158q69 69 182 69q93 0 133 -57q67 65 159 65q42 0 78 -17q158 7 162 7q7 0 7 -12q0 -112 -4 -296h2q49 100 130 100q69 0 129 -60
q58 -58 58 -153q0 -98 -78 -176q-62 -64 -146 -64q-27 0 -52.5 7.5t-43.5 18.5t-32 22.5t-22 19t-9 7.5q-11 0 -76 -78z" />
    <glyph glyph-name="f_f_h" unicode="ffh" horiz-adv-x="1203" 
d="M384 424q0 32 4 55q-28 2 -46 19t-18 43q0 28 17 45q7 7 16.5 11.5t16 6t7.5 2.5q2 3 -3.5 8t-21 10t-35.5 5q-51 0 -72 -41q-18 -35 -18 -111v-52q25 0 78.5 -0.5t74.5 -0.5zM1198 -1q-138 3 -256 -1q-2 0 -2.5 10t2.5 10q33 1 37 4q3 4 3 34q0 14 1 99t1 126
q0 58 -7 73q-12 21 -34 21q-20 0 -40 -19.5t-33 -43.5q-14 -29 -14 -70q0 -25 -1 -98t-1 -81q0 -34 5 -39q3 -4 41 -6q2 0 3 -4.5t0 -9.5t-2 -5q-37 1 -263 1q-2 0 -2 9.5t2 9.5q53 2 57 6t4 43q0 192 -2 414q-32 3 -50.5 22.5t-18.5 46.5q0 29 19 48q4 4 8.5 7.5t8.5 5.5
t5 3q2 2 -4 7.5t-19.5 10t-30.5 4.5q-43 0 -59 -36q-17 -33 -17 -112v-65q19 0 58 -0.5t42 -0.5q2 0 3 -6t0 -12t-4 -6h-99q1 -61 1 -342q0 -29 3 -31q6 -6 60 -6q3 -1 2.5 -10.5t-4.5 -9.5q-203 0 -271 -1q-3 0 -3.5 10.5t3.5 10.5q50 0 54 4q3 4 3 42q0 280 -3 334
q-40 1 -153 1q1 -38 1.5 -168t0.5 -174q0 -31 2 -33q4 -4 58 -6q1 0 2 -5t0 -10t-4 -5q-209 0 -278 -1q-2 0 -3 5t0 10t4 5q55 2 60 7t5 46q0 273 -3 329q-25 1 -64 1q-1 0 -2.5 2.5t-1.5 6t0.5 7t2 5.5t3.5 2h62q0 100 58 158q69 69 182 69q93 0 133 -57q67 65 159 65
q40 0 78 -17q154 7 164 7q9 0 9 -12q-3 -68 -3 -313h3q35 57 70 87t83 30q57 0 93 -36t36 -130q0 -40 -0.5 -108.5t-0.5 -89.5q0 -45 7 -54q4 -4 53 -5q1 0 1.5 -5t-0.5 -10t-3 -5z" />
    <glyph glyph-name="f_f_j" unicode="ffj" horiz-adv-x="904" 
d="M382 424q0 30 6 57q-25 5 -40.5 21t-15.5 38q0 28 18 46q7 7 16.5 11.5t17 6t8.5 2.5q3 3 -3.5 8.5t-23.5 10.5t-39 5q-56 0 -78 -42q-17 -34 -17 -111v-52q25 0 77 -0.5t74 -0.5zM621 -218q-57 0 -94.5 27.5t-37.5 70.5q0 29 19 51t52 22q29 0 46.5 -18t17.5 -44
q0 -28 -18 -46q-10 -9 -23.5 -15t-14.5 -7q-8 -8 10 -15q13 -5 32 -5q47 0 66 38q13 26 13 87q0 140 -4 412q-1 47 -8 55q-6 6 -50 6q-11 0 -48 -0.5t-43 -0.5q1 -30 1.5 -158.5t0.5 -175.5q0 -37 3 -40q4 -5 53 -5q3 -1 2.5 -11t-4.5 -10q-195 0 -263 -1q-3 0 -3.5 10.5
t3.5 10.5q49 0 53 5q2 2 2 41q1 40 0 168.5t-3 165.5q-39 1 -150 1q1 -38 1.5 -168.5t0.5 -174.5q0 -30 2 -32q4 -4 55 -6q2 0 2.5 -5t-0.5 -10t-4 -5q-206 0 -275 -1q-2 0 -3 5t0 10t4 5q55 2 60 7t5 46q0 273 -3 329q-25 1 -64 1q-1 0 -2.5 2.5t-1.5 6t0.5 7t2 5.5t3.5 2
h62q0 101 58 160q70 68 185 68q96 0 139 -53q69 64 177 64q110 0 158 -48q26 -26 26 -58q0 -30 -23.5 -50.5t-65.5 -20.5q-38 0 -60 18.5t-22 47.5q0 27 19 46q8 8 20 14l12 6q3 3 -4.5 8t-23.5 9.5t-35 4.5q-57 0 -81 -44q-19 -40 -19 -143v-29h124q38 0 100.5 1t68.5 1
q10 0 10 -13q0 -194 1 -299q0 -12 0.5 -61t0.5 -65q0 -85 -60 -144q-29 -29 -72.5 -46t-87.5 -17z" />
    <glyph glyph-name="f_f_k" unicode="ffk" horiz-adv-x="1192" 
d="M384 424q0 32 4 55q-28 2 -46 19t-18 43q0 28 17 45q7 7 16.5 11.5t16 6t7.5 2.5q2 3 -3.5 8t-21 10t-35.5 5q-51 0 -72 -41q-18 -35 -18 -111v-52q25 0 78.5 -0.5t74.5 -0.5zM1192 0q-25 0 -129 0.5t-124 -1.5q-1 0 -1.5 4.5t0.5 9.5t2 5q28 2 32 6t-3 17
q-41 78 -79 157q-8 -7 -37 -36v-116q0 -20 3 -24q3 -3 39 -4q2 0 2 -9.5t-2 -9.5h-258q-2 0 -2.5 10t2.5 10q52 3 55 5q4 6 4 35q2 152 2 232v191q-33 3 -51.5 22.5t-18.5 46.5q0 29 19 48q4 4 8.5 7.5t8.5 5.5t5 3q2 2 -4 7.5t-19.5 10t-30.5 4.5q-43 0 -59 -36
q-17 -33 -17 -112v-65q19 0 59 -0.5t43 -0.5q2 0 3 -6t0 -12t-4 -6h-101q1 -56 1 -336q0 -34 3 -37q6 -6 60 -6q3 -1 2.5 -10.5t-4.5 -9.5q-203 0 -271 -1q-3 0 -3.5 10.5t3.5 10.5q50 0 54 4q3 4 3 42q0 280 -3 334q-40 1 -153 1q1 -38 1.5 -169t0.5 -176q0 -28 2 -30
q4 -4 58 -6q1 0 2 -5t0 -10t-4 -5q-209 0 -278 -1q-2 0 -3 5t0 10t4 5q55 2 60 7t5 46q0 273 -3 329q-25 1 -64 1q-1 0 -2.5 2.5t-1.5 6t0.5 7t2 5.5t3.5 2h62q0 100 58 158q69 69 182 69q93 0 133 -57q65 65 159 65q42 0 78 -17q48 2 164 6q9 0 9 -14q0 -54 -6 -445h1
q91 93 126 132q33 36 33 57q0 15 -12.5 20.5t-50.5 7.5q-2 0 -2.5 5t0.5 10t3 5q60 -2 107 -2q71 0 115 1q3 0 3 -9t-3 -10q-48 -5 -78 -21q-51 -25 -102 -79q80 -158 128 -241q14 -24 25 -37q10 -9 47 -10q1 0 2 -4.5t0 -9.5t-3 -5z" />
    <glyph glyph-name="f_b" unicode="fb" horiz-adv-x="891" 
d="M632 396q-38 0 -69 -60q-19 -38 -19 -127q0 -141 9 -160q6 -12 25 -23t37 -11q37 0 54 35q21 42 21 166q0 116 -18 154q-14 26 -40 26zM403 -14q-4 -5 -11 -3t-7 9q5 75 5 282q0 18 -0.5 93t-0.5 115q-33 3 -51.5 22.5t-18.5 46.5q0 28 20 48q6 6 13 10.5t8 5.5
q2 2 -3.5 7.5t-19 10t-30.5 4.5q-42 0 -60 -36q-16 -33 -16 -112q0 -9 -1 -37v-28q19 0 59.5 -0.5t42.5 -0.5q3 0 4 -6t-0.5 -12t-4.5 -6h-100q1 -61 1 -340q0 -31 3 -34q7 -5 67 -5q2 0 3 -5t-0.5 -10t-4.5 -5q-7 0 -126 -0.5t-161 -0.5q-5 0 -5 10.5t5 10.5q57 0 61 5
q5 5 5 47q0 273 -3 329q-10 0 -37 0.5t-28 0.5t-2 2.5t-1 6v7t1.5 5.5t4.5 2h62q0 56 14 95t48 73q30 30 74 48.5t88 18.5q42 0 78 -17q154 7 160 7q9 0 9 -12q0 -112 -4 -296h1q51 100 130 100q71 0 129 -60q59 -57 59 -153q0 -98 -78 -176q-62 -64 -147 -64q-27 0 -52 7.5
t-43 18.5t-32 22.5t-22.5 19t-9.5 7.5q-10 0 -75 -78z" />
    <glyph glyph-name="f_h" unicode="fh" horiz-adv-x="895" 
d="M890 -1q-140 3 -256 -1q-2 0 -3 5t-0.5 10t2.5 5q34 1 37 4t3 34q2 76 2 225q0 58 -7 73q-10 21 -34 21q-20 0 -40 -19.5t-32 -43.5q-15 -29 -15 -70q0 -25 -0.5 -98t-0.5 -81q0 -35 4 -39t42 -6q3 0 3 -9.5t-3 -9.5q-37 1 -263 1q-2 0 -2 9.5t2 9.5q55 3 56 5q5 5 5 113
q0 241 -1 345q-32 3 -51 22.5t-19 46.5q0 28 20 48q6 6 13 10.5t8 5.5q2 2 -3.5 7.5t-19 10t-30.5 4.5q-42 0 -60 -36q-16 -33 -16 -112q0 -9 -1 -37v-28q19 0 59.5 -0.5t42.5 -0.5t3 -6t0 -12t-4 -6q-11 1 -50 1t-50 -1q1 -29 1 -157v-179q0 -35 2 -38q7 -5 59 -5q2 0 3 -5
t-0.5 -10t-4.5 -5q-7 0 -122 -0.5t-156 -0.5q-5 0 -5 10.5t5 10.5q43 0 57 3q8 3 8 31q1 15 0.5 161.5t-2.5 185.5q-10 0 -37 0.5t-28 0.5t-2 2.5t-1 6v7t1.5 5.5t4.5 2h62q0 107 61 168q31 30 75 48.5t88 18.5q40 0 78 -17q135 6 163 6q9 0 9 -13q-1 -35 -3 -311h3
q36 58 71 87.5t83 29.5q57 0 93 -36q36 -37 36 -130q0 -40 -1 -108.5t-1 -89.5q0 -46 8 -54q4 -4 52 -5q1 0 2 -5t0 -10t-3 -5z" />
    <glyph glyph-name="f_j" unicode="fj" horiz-adv-x="596" 
d="M231 400q1 -36 1.5 -165t0.5 -173q0 -34 3 -36q3 -4 55 -6q2 0 3 -5t-0.5 -10t-4.5 -5q-204 0 -273 -1q-4 0 -4 10t4 10q55 1 60 6q3 5 3 42q0 280 -2 334h-65q-3 0 -4 6t0.5 12t5.5 6h63q-2 106 58 166q73 73 195 73q109 0 155 -48q26 -24 26 -58q0 -30 -23.5 -50.5
t-65.5 -20.5q-38 0 -60 18.5t-22 47.5q0 27 19 46q8 8 20 14l12 6q3 3 -3.5 8t-22 9.5t-34.5 4.5q-58 0 -81 -44q-19 -38 -19 -143v-29h116q119 0 175 2q8 0 8 -9q0 -33 0.5 -140t0.5 -163q0 -12 0.5 -61t0.5 -65q0 -85 -59 -144q-29 -29 -72.5 -46t-87.5 -17
q-58 0 -95 27.5t-37 70.5q0 29 19 51t51 22q29 0 46.5 -18t17.5 -44q0 -27 -17 -46q-10 -9 -24 -15t-15 -7q-8 -8 10 -15q13 -5 32 -5q47 0 66 38q14 25 14 87q0 242 -5 412q0 45 -8 55q-5 5 -53 6q-71 0 -84 -1z" />
    <glyph glyph-name="f_k" unicode="fk" horiz-adv-x="884" 
d="M885 0q-25 0 -129.5 0.5t-123.5 -1.5q-2 0 -2 9.5t2 9.5q28 2 32 6q4 3 -3 17q-7 15 -38.5 76.5t-40.5 80.5q-8 -7 -37 -36v-116q0 -20 3 -24q3 -3 40 -4q1 0 1.5 -4.5t0 -9.5t-2.5 -5h-258q-1 0 -2 5t0 10t3 5q51 3 54 5q4 6 4 35q2 152 2 232v191q-33 4 -52 23.5
t-19 45.5q0 28 20 48q6 6 13 10.5t8 5.5q2 2 -3.5 7.5t-19 10t-30.5 4.5q-42 0 -60 -36q-16 -33 -16 -112q0 -9 -1 -37v-28q19 0 59.5 -0.5t42.5 -0.5q3 0 4 -6t-0.5 -12t-4.5 -6h-100q1 -36 1.5 -164.5t0.5 -172.5q0 -34 3 -36q6 -6 58 -6q2 0 3 -5t-0.5 -10t-4.5 -5
q-209 0 -279 -1q-4 0 -4 10t4 10q57 2 62 5q4 4 4 40q0 280 -3 337q-16 1 -65 1q-1 0 -2 2.5t-1 6v7t1.5 5.5t4.5 2h62q0 57 14 95.5t48 72.5q30 30 74 48.5t88 18.5q42 0 78 -17q110 5 162 5q11 0 11 -15q0 -51 -6 -443h1q91 93 126 132q33 34 33 57q0 15 -12.5 20.5
t-50.5 7.5q-2 0 -2.5 5t1 10t3.5 5q58 -2 107 -2q71 0 114 1q3 0 3 -9t-3 -10q-48 -5 -78 -21q-51 -25 -102 -79q103 -196 129 -241q13 -25 25 -37q9 -9 46 -10q2 0 2 -9.5t-2 -9.5z" />
    <glyph glyph-name=".notdef" horiz-adv-x="500" 
d="M0 -200v1000h500v-1000h-500zM71 750l179 -390l179 390h-358zM450 676l-172 -376l172 -376v752zM50 -76l172 376l-172 376v-752zM250 240l-179 -390h358z" />
    <glyph glyph-name=".null" horiz-adv-x="0" 
 />
    <glyph glyph-name="nonmarkingreturn" horiz-adv-x="333" 
 />
    <glyph glyph-name="space" unicode=" " horiz-adv-x="211" 
 />
    <glyph glyph-name="exclam" unicode="!" horiz-adv-x="315" 
d="M165 200q0 -2 -4.5 -3t-9.5 0.5t-5 4.5q-3 74 -16 131t-27 84t-25.5 57t-11.5 57q0 43 27.5 65.5t67.5 22.5q39 0 63 -21.5t24 -59.5q0 -36 -18 -79t-39 -108.5t-26 -150.5zM155 -11q-39 0 -64 22t-25 55q0 39 26 63.5t68 24.5q37 0 62.5 -20.5t25.5 -56.5
q0 -35 -25.5 -61.5t-67.5 -26.5z" />
    <glyph glyph-name="quotedbl" unicode="&#x22;" horiz-adv-x="445" 
d="M151 621q28 0 44 -19t16 -45q0 -36 -33 -93q-29 -49 -115 -158q-1 -1 -5 0t-7.5 4t-3.5 4q11 44 20.5 128.5t11.5 98.5q14 80 72 80zM339 621q27 0 42.5 -18.5t15.5 -44.5q0 -42 -30 -89q-41 -67 -124 -170q-1 -1 -5 0.5t-7.5 4t-3.5 3.5q9 37 16 74.5t10.5 61t8.5 58
t7 49.5q10 71 70 71z" />
    <glyph glyph-name="numbersign" unicode="#" horiz-adv-x="587" 
d="M220 367q-13 -54 -20 -94q-1 -4 3 -5q23 -4 74.5 -12t84.5 -13q3 0 4 4q10 47 19 94q1 4 -3 5q-32 5 -88.5 13.5t-69.5 10.5q-4 0 -4 -3zM245 611q0 2 7 2.5t13 -1.5t6 -4q-24 -106 -25 -113q-1 -4 2 -4q31 -5 159 -23q3 0 4 3q20 96 29 140q1 1 6.5 1t12 -2t6.5 -4
q-25 -113 -30 -138q-1 -4 3 -5q72 -9 116 -17q3 -1 3 -8q-2 -30 -20 -112q-1 -3 -4 -3q-29 4 -72.5 11t-45.5 7q-3 0 -4 -3q-1 -6 -8.5 -41t-11.5 -54q-1 -4 2 -5q23 -4 65 -10t55 -8q3 -1 2 -5q-2 -10 -11.5 -58t-12.5 -60q-1 -4 -6 -3q-17 3 -56 10t-59 10q-3 0 -4 -3
q-19 -86 -24 -113q0 -2 -6.5 -2t-12.5 1.5t-6 3.5q22 108 23 113q1 4 -3 5q-20 4 -161 27q-3 0 -4 -3q-22 -108 -28 -143q-1 -7 -19 -2q-7 3 -7 6q10 49 30 143q1 4 -3 5q-6 1 -49 8t-66 11q-3 1 -2 8q1 5 6 31t9.5 48.5t7.5 31.5q1 2 10 1l108 -18q3 0 4 3q5 19 21 94
q1 4 -3 5q-16 2 -57 8t-61 9q-5 1 -5 3q1 4 20 114q1 4 5 4q104 -15 124 -18q3 0 4 3q15 71 24 113z" />
    <glyph glyph-name="dollar" unicode="$" horiz-adv-x="568" 
d="M302 593q-19 0 -28 -1q-2 -29 -7 -91t-7 -91q10 -4 49 -17q3 43 8.5 118.5t5.5 80.5q-7 1 -21 1zM150 500q0 -28 20.5 -46t68.5 -37q2 30 6 88t6 84q-53 -10 -77 -34q-24 -26 -24 -55zM283 17q2 28 6.5 94.5t6.5 102.5q-10 4 -28 9.5t-21 6.5q-3 -40 -8.5 -112.5
t-7.5 -96.5q36 -4 52 -4zM430 112q0 33 -24.5 52.5t-87.5 41.5q-2 -28 -6.5 -92t-7.5 -97q70 4 102 36q24 24 24 59zM295 -105q0 -1 -10.5 -1t-10.5 1q1 13 3.5 48t3.5 54q-25 0 -51 3q-6 -77 -8 -103q0 -1 -5.5 -1t-11 0.5t-5.5 1.5q2 25 8 105q-79 11 -129.5 43.5
t-50.5 82.5q0 31 20.5 52.5t53.5 21.5t54 -21.5t21 -52.5q0 -29 -21 -52q-6 -6 -13.5 -10.5t-8.5 -5.5q-6 -6 17 -17t58 -19q6 65 16 212q-64 23 -104 56q-59 46 -59 123q0 74 51.5 127t139.5 66q1 9 2.5 34.5t2.5 37.5q0 2 5.5 2t11 -1t5.5 -3q-1 -17 -5 -67q9 1 28 1
q14 0 21 -1q4 56 5 66q0 2 5 2t11 -1t6 -3q-1 -15 -5 -66q71 -8 123.5 -40t52.5 -81q0 -30 -19.5 -52t-50.5 -22q-34 0 -56 21t-22 51q0 29 18 47q8 8 18 13.5t11 6.5q7 6 -17.5 18t-58.5 18q-2 -30 -7 -98.5t-8 -105.5q100 -34 136 -66q57 -46 57 -114q0 -90 -61.5 -147
t-158.5 -62q-6 -70 -8 -102z" />
    <glyph glyph-name="percent" unicode="%" horiz-adv-x="645" 
d="M277 596q74 -45 143 -45q73 0 158 60q2 1 9.5 -3t7.5 -6q0 -4 -1 -6q-251 -290 -281 -327q-184 -212 -243 -277q-1 -2 -7 0.5t-10.5 7t-1.5 7.5q108 118 243 274q31 36 77 90t96.5 112t67.5 78l-1 1q-55 -31 -117 -31t-110 28q-1 1 -2 0t0 -2q13 -24 13 -59
q0 -77 -48 -140t-108 -63q-53 0 -90 36.5t-37 90.5q0 74 60 136q58 56 121 56q32 0 61 -18zM177 546q-36 -74 -36 -158q0 -68 39 -68t76 54.5t37 122.5q0 44 -17 70t-45 26q-31 0 -54 -47zM610 195q0 -80 -46.5 -141.5t-111.5 -61.5q-48 0 -85.5 36t-37.5 91q0 75 62 137
q53 55 119 55q51 0 75.5 -34t24.5 -82zM469 239q-35 -72 -35 -158q0 -65 39 -65q41 0 76.5 56t35.5 122q0 44 -16.5 70t-44.5 26q-29 0 -55 -51z" />
    <glyph glyph-name="ampersand" unicode="&#x26;" horiz-adv-x="765" 
d="M367 368q28 19 39 39.5t11 57.5q0 65 -16 94q-17 36 -57 36q-28 0 -45 -17.5t-17 -46.5q0 -27 17 -61t68 -102zM728 121q-18 -66 -53.5 -98.5t-96.5 -32.5q-91 0 -164 75q-20 18 -31 31q-71 -104 -181 -104q-79 0 -125 46q-42 42 -42 101q0 62 41 103q39 40 129 78
q-60 84 -60 142q0 56 39 95q57 57 168 57q95 0 142 -47q30 -32 30 -75q0 -51 -35.5 -81t-107.5 -62l-1 -1q46 -60 90 -113q34 59 65 90q40 40 93 40q39 0 65.5 -23.5t26.5 -56.5q0 -30 -19 -48.5t-46 -18.5q-28 0 -44 17q-12 12 -19 39t-12 32q-16 14 -44 -15
q-23 -21 -51 -75q60 -75 113 -130q34 -32 54 -32q34 0 56 73q0 1 3.5 1t7.5 -1t6.5 -3t2.5 -3zM286 55q45 0 82 57v1q-70 74 -151 189h-1q-32 -18 -44.5 -35t-12.5 -45q0 -32 21 -74q18 -36 48 -64.5t58 -28.5z" />
    <glyph glyph-name="quotesingle" unicode="'" horiz-adv-x="263" 
d="M155 622q26 0 43.5 -19t17.5 -46q0 -40 -34 -93t-118 -157q-3 -4 -10.5 0t-6.5 7q18 74 36 227q4 38 22.5 59.5t49.5 21.5z" />
    <glyph glyph-name="parenleft" unicode="(" horiz-adv-x="342" 
d="M309 658q2 0 5.5 -3.5t5.5 -8t1 -4.5q-60 -55 -77 -89q-40 -82 -40 -281q0 -210 41 -290q17 -35 72 -84q1 -1 -0.5 -5t-5 -7.5t-5.5 -2.5q-57 27 -121.5 90t-98.5 131q-38 74 -38 154q0 105 43 189q28 58 85.5 113.5t132.5 97.5z" />
    <glyph glyph-name="parenright" unicode=")" horiz-adv-x="342" 
d="M31 658q62 -30 127.5 -92t98.5 -128q37 -72 37 -154q0 -107 -40 -188q-27 -53 -86 -111.5t-133 -102.5q-2 -1 -7.5 7t-2.5 10q53 45 73 84q40 80 40 270q0 222 -38 296q-20 42 -78 93q-1 1 0.5 5t4.5 7.5t4 3.5z" />
    <glyph glyph-name="asterisk" unicode="*" horiz-adv-x="357" 
d="M298 550q-15 -8 -52.5 -25t-52.5 -26q10 -6 52 -24t56 -25q21 -10 8 -35q-11 -22 -29 -18q-5 1 -9 5q-16 14 -44.5 43t-38.5 36q-1 1 -1 -1q1 -17 8.5 -57t9.5 -56q4 -24 -21 -29q-24 -4 -33 13q-3 6 -2 14q2 15 10 60t8 56q-12 -11 -39 -41.5t-38 -41.5
q-16 -16 -33.5 2.5t-6.5 35.5q3 5 9 8q15 9 52 27t51 26q-15 8 -57.5 25.5t-50.5 20.5q-14 6 -11.5 23.5t15 25.5t26.5 -1q9 -7 40.5 -37t43.5 -39q-1 11 -8.5 51t-9.5 60q-2 15 13 20.5t30 -1t13 -20.5q-2 -13 -10 -53t-9 -56q0 -3 2 -1q13 11 40.5 42.5t33.5 38.5
q16 16 35 -2t9 -36q-3 -5 -9 -8z" />
    <glyph glyph-name="plus" unicode="+" horiz-adv-x="507" 
d="M269 312q-2 0 -2 -2v-190q0 -3 -21 -3q-7 0 -7 5v189q0 1 -1 1q-137 0 -190 -1q-4 0 -4 22q0 4 4 4h188q3 0 3 3v186q0 4 13 4q15 0 15 -3v-189q53 -1 192 -1q4 0 4 -7q0 -19 -5 -19q-23 0 -86 0.5t-103 0.5z" />
    <glyph glyph-name="comma" unicode="," horiz-adv-x="265" 
d="M127 177q47 0 74 -36.5t27 -90.5q0 -142 -177 -217q-4 -1 -9 9t-3 12q60 26 100 68t40 91q0 10 -7 10q-1 0 -20.5 -10t-38.5 -10q-33 0 -52.5 25.5t-19.5 61.5t24.5 61.5t61.5 25.5z" />
    <glyph glyph-name="hyphen" unicode="-" horiz-adv-x="323" 
d="M276 220q0 -4 -5 -4q-39 1 -124 1q-19 0 -47.5 -0.5t-45.5 -0.5q-8 0 -8 3v17q1 18 1 26q0 4 4 4q36 -1 118.5 0t102.5 1q4 0 4 -4v-43z" />
    <glyph glyph-name="period" unicode="." horiz-adv-x="265" 
d="M41 86q0 40 27 67.5t66 27.5q40 0 65.5 -27t25.5 -65q0 -42 -28 -70.5t-67 -28.5q-37 0 -63 28t-26 68z" />
    <glyph glyph-name="slash" unicode="/" horiz-adv-x="422" 
d="M-19 -97q139 255 218 407q33 62 88.5 166t89.5 169q0 1 6.5 -1t12.5 -5.5t6 -4.5q-55 -102 -178 -333q-34 -65 -109.5 -205t-109.5 -204q-1 -2 -7.5 0t-12 5.5t-4.5 5.5z" />
    <glyph glyph-name="zero" unicode="0" horiz-adv-x="642" 
d="M313 619q109 0 203 -94q88 -88 88 -222q0 -139 -87 -226q-38 -38 -94.5 -62.5t-104.5 -24.5q-50 0 -100.5 21t-87.5 58q-91 91 -91 230q0 145 87 232q37 37 87.5 62.5t99.5 25.5zM318 598q-35 0 -54 -38q-26 -50 -26 -261q0 -130 5 -178.5t17 -71.5q18 -37 56 -37
q44 0 64 41q25 48 25 228q0 133 -4.5 189.5t-17.5 84.5q-22 43 -65 43z" />
    <glyph glyph-name="one" unicode="1" horiz-adv-x="427" 
d="M127 334q0 234 -1 236q-1 1 -100 -3q-1 0 -2 5.5t-0.5 11t1.5 5.5q159 8 283 31q5 0 5 -5q-2 -75 -4 -247q-2 -195 1 -325q0 -13 3 -18q1 -1 99 -4q1 0 1.5 -5.5t-0.5 -11t-2 -5.5q-29 0 -84.5 1t-107.5 1q-72 0 -202 -2q-1 0 -2 5.5t0 11t3 5.5q101 1 105 5q2 2 2 16
q2 55 2 292z" />
    <glyph glyph-name="two" unicode="2" horiz-adv-x="599" 
d="M289 617q143 0 216 -73q41 -41 41 -96q0 -58 -45 -102q-28 -29 -85 -58t-122 -66.5t-112 -87.5v-2q40 -2 148 -2q157 0 164 7q5 5 50 110q2 1 6.5 0.5t9.5 -3.5t4 -5q-46 -115 -63 -233q-3 -7 -9 -7q-19 0 -126.5 0.5t-154.5 0.5h-94t-60.5 -0.5t-27.5 -0.5q-5 0 -5 11
q14 21 87 94q36 36 100.5 92t74.5 66q39 39 52 75.5t13 121.5q0 63 -15 94q-21 40 -84 40q-69 0 -116 -49q-11 -11 -18.5 -23.5t-8.5 -19.5t2 -10q2 -1 16.5 3.5t30.5 6.5t40 -8q44 -22 44 -73q0 -38 -24.5 -63t-61.5 -25q-41 0 -69 29t-28 72q0 65 53 120q66 64 177 64z
" />
    <glyph glyph-name="three" unicode="3" horiz-adv-x="563" 
d="M277 619q141 0 205 -64q36 -36 36 -83q0 -49 -33 -82q-52 -51 -158 -72v-2q118 -9 169 -60q33 -35 33 -84q0 -59 -49 -108q-30 -31 -86.5 -52.5t-129.5 -21.5q-131 0 -204 73q-34 34 -34 79q0 35 25 59.5t63 24.5q37 0 58.5 -21t21.5 -55q0 -32 -22 -56
q-12 -12 -30 -15.5t-29 -4t-11 -6.5q0 -9 18 -21.5t51.5 -23t70.5 -10.5q60 0 79 36q15 32 15 112q0 76 -16 109q-18 35 -93 35q-17 0 -73 -2q-2 0 -2.5 5.5t0.5 11.5t3 6q14 1 34.5 1.5t34.5 0.5q72 3 91 39q13 26 13 104q0 63 -14 93q-17 32 -76 32q-35 0 -65.5 -10.5
t-44 -22t-7.5 -17.5l29 -4q28 -4 45 -21q19 -19 19 -49q0 -34 -24 -56.5t-60 -22.5q-37 0 -61.5 23.5t-24.5 57.5q0 44 37 81q64 64 196 64z" />
    <glyph glyph-name="four" unicode="4" horiz-adv-x="594" 
d="M269 611q109 0 203 -12q2 -1 3 -4t-1 -4q-22 -22 -167.5 -163.5t-251.5 -252.5q-4 -4 2 -4q26 0 102.5 1.5t119.5 2.5q4 0 4 5q0 82 1 135q0 6 5 7q38 10 86.5 32t75.5 40q7 2 7 -6q-3 -86 -3 -208q0 -5 5 -5q17 -1 51 -1q37 0 62 1q2 0 3 -5.5t0.5 -11.5t-1.5 -6
q-58 1 -117 1q-3 0 -3 -4q0 -17 0.5 -53t0.5 -48q0 -20 3 -23t91 -4q2 0 2 -10.5t-2 -10.5q-28 0 -85.5 0.5t-101.5 0.5q-101 0 -181 -3q-2 0 -2 10.5t2 10.5q94 3 96 6q3 3 3 25q2 82 2 99q0 4 -4 4q-223 -5 -255 -6q-3 0 -5.5 9.5t-0.5 11.5q104 108 146.5 163t64 114
t30.5 158q1 8 10 8z" />
    <glyph glyph-name="five" unicode="5" horiz-adv-x="557" 
d="M354 595q119 0 130 11q7 7 18 29q0 1 3 0.5t6 -1.5t5 -2.5t2 -2.5q-16 -47 -39.5 -90t-43.5 -62q-10 -10 -31 -13t-97 -3q-88 0 -194 10l-1 -1q-2 -94 -8 -154q2 -2 2 -1q75 44 176 44q136 0 200 -66q41 -41 41 -97q0 -64 -56 -120q-38 -38 -97.5 -61t-118.5 -23
q-61 0 -111.5 18t-79.5 47q-30 32 -30 71q0 34 25 60t63 26q36 0 59 -20.5t23 -55.5q0 -29 -23 -52q-11 -11 -27 -16.5t-26 -8t-10 -7.5q0 -12 39 -26t82 -14q59 0 79 39q17 34 17 134q0 80 -15 111q-19 36 -73 36q-82 0 -154 -57q-2 -2 -8.5 1.5t-6.5 5.5q12 81 12 218
q0 60 -4 104q0 5 6 5q91 -16 266 -16z" />
    <glyph glyph-name="six" unicode="6" horiz-adv-x="618" 
d="M358 619q115 0 173 -54q38 -32 38 -72q0 -35 -25 -57.5t-62 -22.5q-42 0 -69 21.5t-27 54.5q0 20 8 34q8 18 26 28t31 13.5t13 5.5q0 4 -11.5 10.5t-37.5 11.5t-57 5q-70 0 -95 -50q-32 -65 -29 -250h1q37 73 122 73q50 0 100 -18t81 -49q43 -43 43 -103q0 -72 -58 -130
q-36 -36 -93 -59t-112 -23q-110 0 -193 83q-86 86 -86 210q0 72 26 138t73 113q87 87 220 87zM323 339q-48 0 -76 -55q-14 -27 -14 -91q0 -108 19 -148q19 -38 62 -38q39 0 55 30q19 40 19 150q0 89 -17 123q-15 29 -48 29z" />
    <glyph glyph-name="seven" unicode="7" horiz-adv-x="553" 
d="M59 612q153 -17 367 -17q67 0 75 4q6 5 15 31q2 1 6.5 0.5t9.5 -2.5t4 -4q-17 -49 -68 -132t-62 -105q-45 -92 -57 -152.5t-19 -226.5q-1 -10 -6 -11h-169q-4 0 -4 6q5 48 24 93t49 86t62 80t70 91.5t65 103.5v1q-216 4 -331 11q-12 1 -13 -3q-8 -95 -10 -117
q0 -3 -11 -3t-11 3q8 172 7 257q1 6 7 6z" />
    <glyph glyph-name="eight" unicode="8" horiz-adv-x="609" 
d="M299 621q69 0 131.5 -18.5t96.5 -52.5q36 -36 36 -79q0 -66 -46 -101t-136 -55v-2q95 -17 144 -51.5t49 -94.5q0 -58 -42 -99q-78 -78 -236 -78q-68 0 -129.5 20t-91.5 50q-40 40 -40 93q0 120 181 162v2q-168 29 -168 142q0 48 41 89q71 73 210 73zM301 601
q-37 0 -51 -29q-16 -32 -16 -109q0 -86 12 -109q14 -29 53 -29q46 0 64 34q13 29 13 111q0 71 -13 98q-17 33 -62 33zM299 304q-41 0 -57 -31q-19 -38 -19 -115q0 -82 14 -112q19 -36 63 -36q49 0 68 36q16 34 16 103q0 84 -18 119q-17 36 -67 36z" />
    <glyph glyph-name="nine" unicode="9" horiz-adv-x="619" 
d="M295 600q-34 0 -50 -31q-17 -34 -17 -142q0 -109 15 -136q14 -29 45 -29q24 0 46 18t36 44q11 22 11 64q0 131 -22 177q-17 35 -64 35zM226 116q0 -17 -8 -35q-7 -14 -22.5 -23t-26.5 -13t-11 -7q0 -5 10 -11t30.5 -11t44.5 -5q82 0 112 61q26 51 26 182q0 39 -1 51h-1
q-43 -76 -127 -75q-48 1 -95 18.5t-77 47.5q-44 44 -44 115q0 73 57 130q81 79 193 79q122 0 206 -86q85 -85 85 -211q0 -138 -102 -240q-93 -93 -235 -93q-48 0 -96.5 16t-72.5 39q-29 29 -29 68q0 32 25 56.5t63 24.5q44 0 70 -22.5t26 -55.5z" />
    <glyph glyph-name="colon" unicode=":" horiz-adv-x="256" 
d="M129 439q38 0 63 -24t25 -58q0 -39 -24 -69t-62 -30q-37 0 -63.5 24.5t-26.5 60.5q0 38 25.5 67t62.5 29zM127 170q37 0 62.5 -27t25.5 -64q0 -38 -26 -64t-65 -26q-36 0 -60.5 26t-24.5 64t25.5 64.5t62.5 26.5z" />
    <glyph glyph-name="semicolon" unicode=";" horiz-adv-x="261" 
d="M135 438q38 0 61 -24t23 -62t-27 -66t-66 -28q-35 0 -58.5 25t-23.5 62q0 36 27.5 64.5t63.5 28.5zM124 175q45 0 71 -34t26 -93q0 -76 -42 -127t-132 -88q-3 -1 -6 4t-3.5 10t1.5 7q137 65 137 159q0 6 -1.5 8t-4.5 1q-2 0 -20.5 -11.5t-37.5 -11.5q-31 0 -51.5 23.5
t-20.5 56.5q0 39 24 67.5t60 28.5z" />
    <glyph glyph-name="less" unicode="&#x3c;" horiz-adv-x="500" 
d="M415 535q6 2 11 -7t1 -13q-5 -3 -20.5 -11.5t-45 -24.5t-59.5 -33l-216 -120q-3 -2 0 -4q38 -20 160 -87.5t186 -101.5q2 -1 0 -6.5t-6.5 -10t-10.5 -2.5q-52 28 -177 96.5t-182 100.5q-6 3 -6 13t5 12q235 130 360 199z" />
    <glyph glyph-name="equal" unicode="=" horiz-adv-x="507" 
d="M52 422q40 0 105 -0.5t106 -0.5q117 0 193 1q4 0 4 -8q0 -17 -7 -17h-404q-3 0 -3 13q0 12 6 12zM51 251q18 0 60 -0.5t47 -0.5q72 0 150 0.5t146 0.5q4 0 4 -10q0 -15 -3 -15q-12 0 -48 0.5t-58 0.5q-58 0 -146 -0.5t-153 -0.5q-3 0 -3 9q0 16 4 16z" />
    <glyph glyph-name="greater" unicode="&#x3e;" horiz-adv-x="500" 
d="M84 535q48 -27 167 -92.5t195 -107.5q3 -2 3 -11q0 -10 -5 -13q-99 -55 -357 -195q-13 -6 -18 7q-5 8 -1 10q52 28 178.5 97.5t167.5 91.5q3 2 0 4q-195 108 -217 121q-30 17 -60 33t-45 24.5t-20 11.5q-3 2 2.5 11.5t9.5 7.5z" />
    <glyph glyph-name="question" unicode="?" horiz-adv-x="571" 
d="M215 467q0 -35 -22.5 -58t-56.5 -23q-36 0 -59.5 23t-23.5 63q0 44 35 79q66 64 193 64q68 0 124.5 -19t87.5 -50q42 -42 42 -96q0 -69 -53 -120q-68 -63 -178 -63q-51 0 -91 18l-1 -1q-2 -46 -2 -89q0 -1 -6 -2t-12 -0.5t-6 1.5q1 24 1 71q0 29 -3 46q0 2 6 5t8 2
q41 -29 81 -29q36 0 49 28q18 34 18 133q0 75 -13 102q-21 42 -91 42q-43 0 -79 -18q-12 -6 -18.5 -12t-8 -10.5t1.5 -7.5q1 -1 23 -7.5t34 -18.5q20 -20 20 -53zM199 151q37 0 64 -22t27 -55q0 -37 -26.5 -60.5t-68.5 -23.5q-41 0 -63 22t-22 57t24.5 58.5t64.5 23.5z" />
    <glyph glyph-name="at" unicode="@" horiz-adv-x="771" 
d="M502 72q-44 0 -67 23.5t-19 61.5q-18 -24 -33 -39q-49 -47 -95 -47q-44 0 -76 35t-32 80q0 74 72 146q40 40 89 64.5t88 24.5q40 0 59 -40q16 35 16 36q2 1 58.5 -4.5t60.5 -6.5q4 -6 0 -17q-3 -8 -27.5 -72.5t-36.5 -95.5q-23 -59 -23 -84t26 -25q48 0 103.5 64
t55.5 161q0 99 -63 162q-65 65 -184 65q-70 0 -143.5 -33t-129.5 -89q-127 -127 -127 -267q0 -114 73 -188.5t192 -74.5q118 0 264 103q2 1 5.5 -2t5.5 -7.5t0 -5.5q-148 -107 -277 -107t-216.5 87t-87.5 214q0 104 65.5 195t167.5 142.5t210 51.5q123 0 195 -72
q71 -69 71 -174q0 -115 -75.5 -190t-164.5 -75zM449 380q-51 0 -106 -111q-40 -80 -40 -133q0 -26 20 -26q18 0 49 29q29 31 52 75q19 39 35 83t16 56q0 10 -7.5 18.5t-18.5 8.5z" />
    <glyph glyph-name="A" unicode="A" horiz-adv-x="708" 
d="M-1 17q42 5 64 29q27 25 55 91q125 280 201 478q7 5 55 5q53 0 54 -5q48 -141 183 -510q24 -63 37 -76q9 -9 61 -11q3 0 2.5 -10t-2.5 -10q-112 2 -155 2q-144 0 -173 -1q-1 0 -2 5t-0.5 10t1.5 5q49 3 57 9q6 8 -1 33q-29 85 -42 119q-78 3 -135 3q-61 0 -86 -1
q-7 0 -11 -7q-12 -26 -22 -57q-10 -27 -10 -49q0 -27 15.5 -37t60.5 -15q1 0 1.5 -4.5t-0.5 -9t-2 -4.5q-74 4 -206 0q-1 0 -1.5 4.5t0 9t1.5 4.5zM290 473h-2q-63 -153 -111 -265q76 -5 209 -5q-22 64 -54.5 153.5t-41.5 116.5z" />
    <glyph glyph-name="B" unicode="B" horiz-adv-x="673" 
d="M19 606q61 2 322 2q189 0 249 -60q29 -29 29 -74q0 -132 -196 -156v-4q215 -21 215 -149q0 -62 -41 -103q-65 -65 -233 -65q-34 0 -102 1.5t-88 1.5q-119 0 -161 -1q-1 0 -2 5t-0.5 10t1.5 5q71 3 75 7q7 5 7 56v238q0 51 -1 121.5t-1 105.5q0 29 -6 37q-3 3 -68 3
q-2 1 -1.5 10t2.5 9zM308 587q-26 0 -27 -3q-2 -12 -2 -88v-153q0 -12 2 -14t50 -2q61 0 81 34q18 33 18 112q0 56 -15 81q-10 18 -33.5 25.5t-73.5 7.5zM281 303q-2 -2 -2 -22v-132q0 -121 3 -124q7 -7 47 -7q81 0 104 45q13 29 13 102q0 65 -15 94q-22 46 -109 46
q-40 0 -41 -2z" />
    <glyph glyph-name="C" unicode="C" horiz-adv-x="642" 
d="M358 616q43 0 80.5 -14t57.5 -27.5t21 -13.5q7 0 62 58q2 2 9.5 1.5t7.5 -4.5q-7 -112 -4 -246q0 -3 -8.5 -3t-9.5 3q-58 133 -100 175q-45 43 -101 43q-73 0 -104 -63q-34 -68 -34 -230q0 -132 31 -193q35 -73 129 -73q77 0 126 51q52 50 68 135q3 5 18 -2q5 -2 4 -4
q-18 -94 -76 -151q-66 -68 -187 -68q-148 0 -237 91q-83 83 -83 207q0 133 87 220q106 108 243 108z" />
    <glyph glyph-name="D" unicode="D" horiz-adv-x="735" 
d="M15 608q56 -1 158 -1q31 0 94 1t87 1q183 0 279 -96q72 -72 72 -184q0 -132 -92 -226q-106 -104 -272 -104q-28 0 -104.5 1t-100.5 1q-66 0 -122 -2q-2 0 -3 5.5t-0.5 11t2.5 5.5q69 2 73 6q5 5 6 65q1 30 1 168v243q0 75 -6 79q-4 4 -72 5q-2 0 -2 10.5t2 10.5zM286 582
q-3 -3 -3 -28q-1 -23 -1 -258q0 -142 1 -216q0 -50 4 -54t53 -4q97 0 135 76q26 53 26 200q0 159 -31 224q-17 33 -47 48t-84 15q-50 0 -53 -3z" />
    <glyph glyph-name="E" unicode="E" horiz-adv-x="667" 
d="M18 609q75 -3 303 -3q167 0 279 4q6 0 6 -9q-2 -38 -5 -120t-4 -105q0 -2 -4 -3t-9 0t-6 4q-41 112 -90 161q-28 28 -55.5 37.5t-83.5 9.5q-60 0 -65 -2q-2 -4 -2 -109q0 -18 -0.5 -73.5t-0.5 -73.5q12 -1 37 -1q52 0 78 26q28 28 43 99q1 4 9.5 3.5t8.5 -4.5
q-4 -183 2 -274q0 -4 -8 -4.5t-9 3.5q-23 83 -47 107q-19 19 -67 19q-35 0 -46 -1q-1 -29 -1 -107q0 -160 5 -164q4 -6 64 -6h45q59 0 104 44q58 58 97 189q2 4 11.5 3t9.5 -5q-1 -43 -3 -128.5t-3 -120.5q0 -5 -6 -5q-192 1 -300 1q-202 0 -294 -2q-1 0 -2 5.5t0 11t3 5.5
q72 1 75 6q7 5 7 190q0 36 -0.5 120.5t-0.5 136.5q0 103 -4 107q-5 5 -72 8q-1 0 -2 5t0 10t3 5z" />
    <glyph glyph-name="F" unicode="F" horiz-adv-x="623" 
d="M14 609q14 0 130.5 -0.5t150.5 -0.5q237 0 290 1q7 0 7 -7q-2 -150 -7 -234q0 -4 -9.5 -4t-11.5 4q-43 123 -92 172q-26 26 -50.5 36t-69.5 11q-46 0 -68 -2q-3 -15 -3 -111v-158q3 -2 31 -2q56 0 77 21q25 25 47 110q1 2 10 2t9 -4q-4 -72 -4 -134q0 -20 0.5 -46.5
t2 -56t1.5 -41.5q0 -4 -8.5 -4t-9.5 2q-23 81 -49 107q-21 21 -77 21q-20 0 -30 -2q0 -161 1 -204q0 -51 6 -57q5 -5 91 -7q3 0 2.5 -10.5t-2.5 -10.5q-25 0 -85 0.5t-94 0.5q-94 0 -190 -2q-2 0 -2 10.5t2 10.5q73 2 78 6q4 4 5 59q0 39 0.5 114t0.5 119q0 31 -0.5 97
t-0.5 93q-1 70 -5 73q-5 5 -74 7q-2 0 -2 10.5t2 10.5z" />
    <glyph glyph-name="G" unicode="G" horiz-adv-x="699" 
d="M362 615q43 0 79.5 -13.5t56.5 -27t23 -13.5q8 0 31.5 20t42.5 41q2 2 9 0t7 -4q-11 -86 -11 -230q0 -4 -8.5 -5t-9.5 2q-53 110 -103 160q-49 47 -109 47q-74 0 -105 -61q-30 -60 -30 -236q0 -105 5.5 -152t20.5 -76q29 -57 98 -57q29 0 50 11t29 26q7 15 7 109
q0 93 -7 99q-4 5 -71 6q-1 0 -2 5.5t0 10.5t3 5q190 -2 315 5q3 0 3 -9.5t-2 -11.5q-54 -4 -56 -7q-6 -5 -6 -97q-1 -61 1 -160q0 -4 -7.5 -5.5t-10.5 1.5q-51 68 -64 68q-4 0 -31 -19.5t-71.5 -39.5t-91.5 -20q-143 0 -235 92q-84 84 -84 205q0 133 99 230q99 101 235 101z
" />
    <glyph glyph-name="H" unicode="H" horiz-adv-x="758" 
d="M13 0q-3 1 -3 11.5t3 10.5q69 0 72 3q6 6 7 58q2 138 2 263q0 49 -0.5 100t-0.5 61q0 66 -8 76q-4 4 -69 5q-2 1 -2 11t4 10q217 -4 331 -2q2 0 2 -10t-2 -10q-59 -1 -64 -6q-4 -4 -4 -64q0 -140 1 -183q6 0 51 -0.5t73 -0.5q61 0 70 2q1 36 1 173q0 71 -5 76q-4 4 -56 5
q-1 0 -2 5t0 10t3 5q253 -2 327 0q2 0 2.5 -5t0 -10t-1.5 -5q-66 -1 -70 -5q-7 -7 -8 -70q-3 -138 -3 -204v-209q0 -68 7 -75q4 -4 68 -5q2 0 3 -5.5t-0.5 -11t-3.5 -5.5q-48 1 -332 1q-3 0 -2.5 10.5t2.5 10.5q59 1 63 5q6 8 6 115q0 19 0.5 74.5t0.5 94.5h-153
q-37 0 -41 -2q-1 -97 -1 -217q0 -62 5 -67q3 -3 60 -4q1 0 2 -5t0 -10.5t-3 -5.5q-108 2 -168 2q-34 0 -94.5 -0.5t-69.5 -0.5z" />
    <glyph glyph-name="I" unicode="I" horiz-adv-x="378" 
d="M22 608h166.5t165.5 -1q1 0 2 -5.5t0 -10.5t-3 -5q-58 0 -62 -4q-7 -7 -8 -103q-1 -54 -1 -205q0 -113 1 -168q0 -74 6 -78q4 -5 70 -6q3 0 2.5 -10.5t-2.5 -11.5q-59 1 -172 1q-83 0 -169 -2q-3 0 -3 10.5t3 10.5q68 2 72 6q5 5 6 76q0 39 0.5 92.5t0.5 81.5
q0 72 -2 206q0 93 -8 99q-5 5 -66 6q-1 0 -1.5 5.5t0 10.5t2.5 5z" />
    <glyph glyph-name="J" unicode="J" horiz-adv-x="573" 
d="M217 609q20 0 87 -1t103 -1h156q3 0 3 -10t-3 -10q-67 -1 -70 -5q-4 -4 -4 -56q0 -54 0.5 -131t0.5 -162q0 -61 -13.5 -99.5t-43.5 -68.5q-76 -76 -215 -76q-107 0 -161 56q-38 38 -38 92q0 46 27.5 77t72.5 31q37 0 61 -23t24 -58q0 -39 -25 -64q-15 -15 -44.5 -26.5
t-31.5 -13.5q-8 -8 5 -21q24 -26 83 -26q72 0 96 52q17 33 17 96q0 59 -1.5 180t-1.5 196q-1 43 -5 47t-80 5q-1 0 -2 5t0 10t3 5z" />
    <glyph glyph-name="K" unicode="K" horiz-adv-x="732" 
d="M15 608q24 0 87.5 -0.5t79.5 -0.5q25 0 90.5 1t82.5 1q2 0 2.5 -10.5t-2.5 -10.5q-63 -2 -67 -6q-6 -6 -6 -100q0 -46 -1.5 -114t-1.5 -87h2q67 66 189 197q44 47 44 78q0 16 -15.5 23t-61.5 10q-3 0 -2.5 10t2.5 10q65 -1 262 -1q3 0 3 -10t-3 -11q-51 -4 -86 -21
q-40 -20 -96 -73q-47 -47 -74 -76q121 -219 189 -334q20 -34 34 -48q13 -13 57 -15q1 0 2 -5t0 -10.5t-3 -5.5q-52 2 -168 2q-31 1 -83 0t-66 -1q-2 0 -2 10.5t2 10.5q41 1 45 5q6 6 -8 34q-117 218 -123 228q-26 -24 -39 -37q0 -119 1 -164q0 -58 4 -63q4 -3 54 -4
q2 0 2 -10.5t-2 -10.5q-51 1 -173 1h-152q-3 0 -2.5 10.5t2.5 10.5q68 1 72 5q5 7 5 55q1 25 3 253q0 32 -0.5 89.5t-0.5 97.5q-1 57 -7 61q-4 4 -71 5q-2 0 -2 10.5t2 10.5z" />
    <glyph glyph-name="L" unicode="L" horiz-adv-x="612" 
d="M18 609q88 -2 174 -2h173q1 0 1.5 -5.5t-0.5 -10.5t-2 -5q-74 -1 -77 -4q-6 -6 -6 -152q-1 -92 -1 -292q0 -107 3 -109q5 -5 49 -5q80 0 116 38q57 55 112 207q2 4 11 4t9 -5q-3 -186 -8 -262q0 -8 -9 -8q-51 2 -255 2q-234 0 -296 -1q-3 0 -2.5 11t2.5 11q72 1 75 4
q4 4 4 67q0 26 1.5 163.5t1.5 194.5q0 127 -5 132t-72 6q-1 0 -2 5t0 10.5t3 5.5z" />
    <glyph glyph-name="M" unicode="M" horiz-adv-x="863" 
d="M95 578q-6 6 -77 10q-1 0 -1.5 5t0.5 10t2 5q86 -1 261 -1q14 0 18 -7q73 -173 141 -367h2q86 240 125 371q2 5 83 5q89 0 193 -4q1 0 1.5 -4.5t-0.5 -9.5t-2 -5q-66 -1 -70 -5q-3 -5 -3 -149q2 -287 3 -321q1 -77 9 -85q4 -4 66 -7q1 0 1.5 -5t0 -10t-2.5 -5h-30.5
t-69.5 0.5t-74 0.5q-17 0 -80 -0.5t-79 -0.5q-2 0 -3 5.5t-0.5 10.5t2.5 5q62 4 65 8q7 5 7 79q0 334 -2 444h-3q-22 -67 -90.5 -259.5t-101.5 -296.5q-3 -5 -26 -5q-22 0 -23 5q-16 58 -91 255.5t-119 295.5h-3q-2 -187 -2 -413q0 -77 18 -95q14 -12 68 -20q2 -1 1.5 -10
t-2.5 -9q-58 2 -199 2q-2 0 -3 4.5t0 9t2 4.5q47 5 60 20q24 24 26 94q5 270 5 398q0 44 -3 47z" />
    <glyph glyph-name="N" unicode="N" horiz-adv-x="683" 
d="M471 610q9 0 33.5 -1.5t46.5 -2t38 -0.5q36 0 78 3q3 0 3.5 -9t-1.5 -10q-41 -7 -53 -19q-12 -13 -17 -46.5t-5 -122.5q0 -44 -1 -114t-1 -104q0 -36 1 -98t1 -90q0 -5 -61 -5q-36 0 -38 2q-176 265 -370 527h-2q0 -53 0.5 -111.5t1.5 -131t1 -116.5q1 -102 21 -124
q12 -12 78 -20q1 0 1.5 -5t-0.5 -10t-3 -5q-42 3 -112 3q-28 0 -100 -2q-3 0 -3 9.5t2 10.5q47 5 64 20q24 26 24 148q0 43 -1.5 160.5t-0.5 193.5q0 12 -19 31q-13 14 -70 17q-2 1 -2 11t3 10q70 -2 116 -2q33 0 161 4q8 -1 27 -28q58 -85 251 -358h2q0 24 0.5 82t0.5 86
q0 153 -24 177q-14 14 -72 21q-3 1 -2 10t3 9z" />
    <glyph glyph-name="O" unicode="O" horiz-adv-x="735" 
d="M357 -12q-69 0 -135.5 29.5t-109.5 72.5q-85 85 -85 213q0 117 93 210q105 105 263 105q144 0 243 -99q82 -82 82 -201q0 -132 -100 -230q-100 -100 -251 -100zM266 535q-31 -64 -31 -254q0 -155 27 -211q29 -59 101 -59q75 0 106 63q32 64 32 232q0 184 -28 240
q-24 50 -100 50q-75 0 -107 -61z" />
    <glyph glyph-name="P" unicode="P" horiz-adv-x="656" 
d="M283 584q-3 -2 -3 -48v-216q0 -32 2 -34q3 -3 37 -3q81 0 106 51q17 33 17 111q0 71 -15 101q-11 22 -32.5 31.5t-63.5 9.5q-46 0 -48 -3zM18 607q23 0 140.5 0.5t179.5 0.5q197 0 265 -67q34 -34 34 -89q0 -65 -46 -111q-37 -37 -102 -59t-148 -22q-17 0 -30.5 1
t-20 1.5t-7.5 0.5q-3 0 -3 -5v-123q0 -103 3 -107q5 -4 94 -5q2 0 2.5 -11t-2.5 -11q-11 0 -80.5 -0.5t-105.5 -0.5q-126 0 -179 -2q-1 0 -2 5.5t-0.5 11t1.5 5.5q75 4 77 6q5 5 6 173v232q0 145 -6 150q-4 4 -70 5q-3 0 -3 10.5t3 10.5z" />
    <glyph glyph-name="Q" unicode="Q" horiz-adv-x="739" 
d="M567 -118q-63 0 -99 32t-61 86q-22 -2 -34 -2q-162 0 -264 100q-78 80 -78 194q0 124 85 211q117 115 269 115q148 0 248 -100q75 -77 75 -189q0 -131 -88 -219q-37 -37 -85 -64q3 -4 9.5 -13.5t9 -13.5t8.5 -12t9.5 -11.5t9 -9.5t9.5 -8.5t9.5 -6t11 -4.5t11.5 -1
q39 0 64 70q1 2 5.5 1.5t8.5 -3t4 -3.5q-14 -66 -44.5 -107.5t-92.5 -41.5zM372 150q67 0 115 -46q17 63 17 211q0 177 -28 231q-26 50 -98 50q-77 0 -109 -65q-32 -62 -32 -219q0 -76 7.5 -127t15.5 -65l7 -13q38 43 105 43zM375 18q17 0 24 1q-28 69 -40 83q-14 15 -30 15
q-23 0 -37 -16t-14 -28q0 -8 8.5 -20t32 -23.5t56.5 -11.5z" />
    <glyph glyph-name="R" unicode="R" horiz-adv-x="723" 
d="M14 608h170q18 0 93.5 0.5t95.5 0.5q174 0 241 -67q31 -31 31 -82q0 -70 -61 -112t-158 -52v-3q93 -14 136 -45t58 -104q14 -65 21.5 -82t22.5 -17q30 0 48 87q1 1 4 0.5t7 -1.5t6.5 -3t2.5 -3q-14 -70 -47 -102.5t-95 -32.5q-72 0 -107 36q-41 41 -62 162q-12 60 -28 78
t-54 18h-52q-5 0 -5 -4q-1 -80 -1 -221q0 -30 3 -33q4 -4 77 -6q3 0 3 -11t-3 -11q-177 6 -348 1q-2 0 -2.5 11t2.5 11q70 1 74 5q5 7 5 45q0 86 1 169.5t1 87.5q0 52 -0.5 129t-0.5 78q0 41 -5 48q-3 3 -75 4q-1 0 -2 5.5t0 10.5t3 5zM283 585q-2 -2 -2 -34q0 -6 0.5 -84
t0.5 -121q0 -36 1 -39q2 -2 46 -2q85 0 105 41q14 28 14 110q0 63 -14 91q-20 39 -100 39q-49 0 -51 -1z" />
    <glyph glyph-name="S" unicode="S" horiz-adv-x="605" 
d="M461 561q5 0 21.5 19t29.5 39q2 3 9.5 1.5t7.5 -3.5q-7 -94 -4 -199q0 -3 -8.5 -3.5t-9.5 2.5q-39 77 -77 115q-61 59 -144 59q-67 0 -101 -34q-23 -23 -23 -57q0 -38 31.5 -58t112.5 -40q95 -24 141.5 -44.5t73.5 -47.5q42 -42 42 -118q0 -87 -64.5 -145t-164.5 -58
q-50 0 -97.5 15t-75.5 30t-31 15q-7 0 -25.5 -17.5t-31.5 -36.5q-1 -3 -9 -2t-8 4q3 114 -7 219q0 4 8.5 5t9.5 -2q43 -90 90 -137q72 -70 177 -70q67 0 98 31q24 23 24 61t-34 60.5t-123 43.5q-145 34 -197 85q-43 44 -43 120q0 84 64 142t168 58q48 0 88 -13t60.5 -26
t21.5 -13z" />
    <glyph glyph-name="T" unicode="T" horiz-adv-x="710" 
d="M34 347q6 103 8 254q0 8 11 8q37 -1 298 -4q163 0 308 5q12 1 12 -6q4 -129 1 -251q0 -4 -8.5 -4t-9.5 3q-68 169 -109 211q-23 23 -70 23q-18 0 -19 -2q-2 -2 -3 -119q-4 -242 -4 -390q0 -38 6 -46q6 -5 90 -10q2 -1 2 -11t-3 -10q-174 7 -380 0q-1 0 -2.5 5t-1 10.5
t2.5 5.5q87 5 91 8q9 12 9 91q3 198 3 395q0 69 -2 71t-28 2q-39 0 -64 -25q-26 -26 -60 -88.5t-60 -126.5q-2 -3 -10 -2.5t-8 3.5z" />
    <glyph glyph-name="U" unicode="U" horiz-adv-x="699" 
d="M15 609q53 -1 164 -1t170 -1q3 0 3 -10t-3 -10q-64 -1 -68 -5q-9 -9 -9 -209q0 -30 0.5 -91t0.5 -92q0 -86 33 -119q38 -38 115 -38q71 0 114 44t44 124q2 166 2 229q0 114 -25 141q-14 14 -76 19q-2 0 -2 10t2 10q119 -5 209 -2q3 0 3 -9t-2 -11q-39 -5 -52 -18
q-26 -24 -27 -120q-3 -192 -3 -249q0 -99 -62 -155.5t-180 -56.5q-156 0 -227 69q-28 28 -40.5 63t-12.5 93t1.5 170.5t1.5 144.5q0 49 -5 54q-4 4 -70 6q-1 0 -2 5t0 10t3 5z" />
    <glyph glyph-name="V" unicode="V" horiz-adv-x="693" 
d="M1 610q1 0 342 -3q2 0 2 -10.5t-2 -10.5q-59 -2 -64 -9q-8 -8 12 -65q58 -162 132 -365h1q78 195 108 277t30 112q0 26 -18 38.5t-65 16.5q-1 0 -1.5 4.5t0.5 9.5t2 5q109 -4 214 -1q2 0 2.5 -9.5t-1.5 -10.5q-39 -6 -60 -27q-29 -29 -71 -131q-70 -169 -172 -440
q-3 -6 -46 -6q-55 0 -59 11q-42 115 -198 516q-20 51 -31 63q-11 9 -59 15q-2 0 -2 5t1 10t3 5z" />
    <glyph glyph-name="W" unicode="W" horiz-adv-x="998" 
d="M6 609q197 -4 343 -1q1 0 2 -5t0.5 -10.5t-1.5 -5.5q-59 -3 -64 -10q-9 -9 2 -49q25 -100 100 -358h3q68 195 144 442q2 2 29 2q49 0 51 -4q94 -287 144 -443h3q1 3 36 107t51 159q21 71 21 99q0 26 -17 38.5t-67 18.5q-1 1 -1 5t1.5 9t2.5 5q19 0 65.5 -1t65.5 -1
q45 0 77 2q3 0 3.5 -9t-1.5 -10q-39 -9 -61 -29q-27 -27 -55 -110q-84 -254 -152 -453q0 -5 -58 -5q-43 0 -45 5q-52 181 -130 403h-2q-18 -57 -139 -406q-2 -5 -59 -5q-42 0 -44 5q-34 112 -87 281.5t-75 240.5q-15 49 -25 59q-9 9 -62 14q-1 0 -1.5 5t0.5 10t2 5z" />
    <glyph glyph-name="X" unicode="X" horiz-adv-x="699" 
d="M236 -1q-113 3 -224 -1q-3 0 -3 9t2 10q34 5 55 16q44 21 109 111q40 53 97 133v1q-129 219 -143 243q-31 52 -43 58q-9 5 -56 9q-2 0 -2 10t2 10q63 -2 332 1q2 0 2.5 -10t-2.5 -10q-47 -2 -53 -7q-7 -9 11 -42q38 -74 89 -160h2q4 5 37 50t50 69q24 33 24 55
q0 15 -14.5 23t-55.5 15q-1 1 -1 5t1.5 9t2.5 5q61 -4 138 -4h85q3 0 3 -9t-2 -10q-40 -5 -62 -15q-44 -22 -101 -92q-17 -22 -47.5 -61t-45.5 -58q25 -42 73 -122t73 -122q49 -85 62 -91q8 -4 54 -8q1 0 2 -5t0 -10t-3 -5q-62 2 -165 2q-18 0 -83 -1t-90 -1q-1 0 -2 5
t-0.5 10t1.5 5q40 2 50.5 5t10.5 12q0 18 -24 61q-17 30 -51 88t-43 74h-2q-36 -47 -91 -131q-31 -46 -31 -68q0 -17 16.5 -26.5t56.5 -15.5q2 -1 1.5 -10t-2.5 -9z" />
    <glyph glyph-name="Y" unicode="Y" horiz-adv-x="678" 
d="M-3 608q168 -2 333 1q2 0 2 -10.5t-2 -10.5q-56 -3 -59 -8q-6 -6 6 -28q59 -113 139 -251h2q85 141 101 169q27 52 27 78q0 20 -15 29.5t-55 13.5q-2 0 -2.5 4.5t1 9.5t2.5 5q13 0 55.5 -1t57.5 -2q45 0 91 1q2 0 2.5 -9t-1.5 -10q-29 -4 -40 -10q-41 -21 -101 -121
q-7 -12 -38 -62t-60 -99q-12 -20 -13 -50q-1 -51 -1 -126q0 -86 8 -92q4 -6 82 -10q2 0 2 -10.5t-2 -10.5q-90 2 -186 2q-30 0 -93 -0.5t-89 -0.5q-2 0 -2.5 5.5t0 10.5t1.5 5q79 2 86 9t7 46q0 33 1 89t1 68q0 22 -11 42q-89 154 -143 244q-25 42 -38 56q-11 11 -57 12
q-1 0 -1.5 5.5t0.5 11t2 5.5z" />
    <glyph glyph-name="Z" unicode="Z" horiz-adv-x="694" 
d="M100 610q36 0 109.5 -1t98.5 -1h343q2 0 3.5 -7.5t-0.5 -9.5q-310 -420 -412 -565v-2h148q45 1 72 10t53 36q51 49 109 194q2 4 10 3.5t8 -4.5q4 -103 -6 -257q0 -7 -5 -8q-99 3 -262 3q-245 0 -334 -1q-3 0 -4.5 8.5t0.5 11.5q234 315 409 563v2q-12 1 -86 1
q-66 0 -92.5 -9t-52.5 -35q-43 -43 -110 -170q-2 -3 -9 -2t-8 4q3 185 8 231q2 5 10 5z" />
    <glyph glyph-name="bracketleft" unicode="[" horiz-adv-x="369" 
d="M348 653q1 0 2 -5t0.5 -10t-1.5 -5q-111 0 -115 -2q-3 -6 -3 -40q0 -62 -1 -177.5t-1 -179.5q0 -100 3 -316q0 -4 4 -4q87 0 116 1q2 0 2 -10t-2 -10q-15 0 -125 -1t-142 -1q-6 0 -6 6q0 67 0.5 226t0.5 226q0 55 -0.5 163t-0.5 132q0 6 8 6h132q16 0 67 0.5t62 0.5z" />
    <glyph glyph-name="backslash" unicode="\" horiz-adv-x="422" 
d="M442 -98q1 -1 -1.5 -2.5t-6 -3.5t-7 -3.5t-6.5 -2t-3 0.5q-20 38 -94 175.5t-114 214.5q-38 72 -103.5 193.5t-85.5 158.5q0 2 5.5 5.5t12 5.5t7.5 1q35 -69 98 -186l91 -169q41 -78 207 -388z" />
    <glyph glyph-name="bracketright" unicode="]" horiz-adv-x="369" 
d="M21 653q26 0 136 0.5t126 0.5q5 0 5 -6q0 -18 0.5 -71.5t0.5 -87.5q0 -88 0.5 -235.5t0.5 -246.5q0 -9 -0.5 -47.5t-0.5 -60.5q0 -5 -5 -5q-36 0 -144 0.5t-121 0.5q-1 0 -1 5.5t0.5 10.5t1.5 5q18 0 58 -0.5t53 -0.5q5 0 5 6q4 218 4 343q0 134 -2 344q0 20 -2 22
q-3 3 -49 3h-66q-2 0 -2 10t2 10z" />
    <glyph glyph-name="asciicircum" unicode="^" horiz-adv-x="403" 
d="M342 380q1 -2 -4 -5t-10.5 -5t-6.5 -1q-3 4 -10.5 17.5t-19.5 34.5t-19 34q-12 21 -31 54.5t-39 70.5q-2 3 -3 0q-15 -28 -53 -97t-64 -118l-4 1q-4 2 -8.5 4t-7.5 4.5t-3 3.5q99 178 130 238q2 3 11 3.5t10 -1.5q8 -14 132 -238z" />
    <glyph glyph-name="underscore" unicode="_" horiz-adv-x="640" 
d="M642 -75v-24h-644v24h644z" />
    <glyph glyph-name="grave" unicode="`" horiz-adv-x="503" 
d="M254 613q6 -6 27.5 -32.5t36.5 -41.5q16 -18 49 -48q2 -3 -2 -8.5t-6 -4.5q-101 32 -168 62q-56 23 -56 62q0 21 15 35t39 14q33 0 65 -38z" />
    <glyph glyph-name="a" unicode="a" horiz-adv-x="534" 
d="M301 226q-72 -8 -93.5 -29t-21.5 -80q0 -42 9.5 -59.5t30.5 -17.5q19 0 38 14.5t27 31.5t9 50q1 26 1 90zM216 416q-16 0 -28.5 -3.5t-18 -7.5t-5.5 -7t13 -9t25.5 -21t12.5 -40q0 -31 -22 -50t-55 -19q-34 0 -55.5 19t-21.5 51q0 34 26 60q51 49 158 49q116 0 168 -52
q43 -43 43 -135q0 -18 -1.5 -84t-1.5 -107q0 -28 20 -28q31 0 42 81q1 3 10 1.5t9 -5.5q-6 -59 -32 -88.5t-83 -29.5q-96 0 -122 74q-52 -75 -134 -75q-54 0 -93 31.5t-39 79.5q0 44 31 75q26 26 78.5 42.5t160.5 27.5q1 14 1 80q0 49 -20 68q-20 22 -66 22z" />
    <glyph glyph-name="b" unicode="b" horiz-adv-x="562" 
d="M303 396q-39 0 -70 -61q-19 -37 -19 -126q0 -139 9 -159q6 -13 25 -24t38 -11q36 0 54 37q20 42 20 164q0 118 -17 154q-14 26 -40 26zM307 -11q-27 0 -52 7.5t-43 18.5t-31.5 22.5t-22 19t-10.5 7.5q-7 0 -76 -77q-2 -4 -9 -2.5t-7 6.5q4 112 4 288q0 116 -4 286
q-1 56 -4 59q-4 4 -56 4q-3 0 -3 10t3 10q149 3 215 5q7 0 7 -8q0 -185 -5 -303h2q50 100 131 100q70 0 128 -60q58 -56 58 -153q0 -99 -76 -175q-65 -65 -149 -65z" />
    <glyph glyph-name="c" unicode="c" horiz-adv-x="495" 
d="M272 -12q-113 0 -186 73q-62 62 -62 149t66 154q78 78 195 78q83 0 133 -37t50 -91q0 -38 -22.5 -61t-54.5 -23q-30 0 -51 19.5t-21 46.5q0 29 17 46q14 14 40 18t27 5q5 5 -5.5 17t-36.5 23t-56 11q-59 0 -83 -47q-23 -47 -23 -151q0 -110 18 -147q25 -48 88 -48
q43 0 81 28.5t61 88.5q2 4 12.5 -0.5t8.5 -9.5q-26 -68 -76 -105t-120 -37z" />
    <glyph glyph-name="d" unicode="d" horiz-adv-x="566" 
d="M264 400q-30 0 -47 -33q-19 -38 -19 -145q0 -131 15 -161q12 -26 42 -26q41 0 71 60q9 19 12 45.5t3 100.5q0 98 -7 111q-8 17 -29 32.5t-41 15.5zM270 648q96 0 224 4q7 0 7 -9q-7 -217 -7 -324q0 -55 1 -137t1 -111q1 -43 5 -46q3 -3 56 -5q4 0 4 -10.5t-4 -10.5
q-166 0 -208 -1q-7 0 -10 82h-2q-51 -94 -131 -94q-64 0 -114 50q-64 64 -64 168q0 105 70 173q62 64 129 64q59 0 110 -63h2q1 71 1 205q0 33 -5 40q-4 3 -65 5q-2 0 -2 10t2 10z" />
    <glyph glyph-name="e" unicode="e" horiz-adv-x="514" 
d="M465 132q4 3 12.5 -1.5t7.5 -8.5q-26 -67 -79 -101t-119 -34q-61 0 -115 21t-89 56q-59 59 -59 147q0 86 64 150q80 80 185 80q95 0 160 -63q58 -58 59 -159q0 -8 -6 -8q-235 0 -295 -3q1 -95 22 -135q26 -54 102 -54q99 0 150 113zM266 420q-36 0 -51 -31
q-19 -36 -23 -157l146 2q-2 104 -18 145t-54 41z" />
    <glyph glyph-name="f" unicode="f" horiz-adv-x="346" 
d="M13 -1q-4 0 -4 10.5t4 10.5q59 1 62 5q4 3 4 41q0 280 -3 335q-25 1 -64 1q-2 0 -3 6t0 11.5t4 5.5h63q0 116 57 173q64 64 172 64q59 0 100.5 -29t41.5 -76q0 -31 -19 -51t-51 -20q-31 0 -50.5 18t-19.5 47t18 47q7 7 16 11t15 6t7 3q3 2 -2 7.5t-18.5 10t-31.5 4.5
q-46 0 -64 -36q-16 -33 -16 -108v-72q22 0 57 -0.5t49 -0.5q2 0 2.5 -6t-0.5 -12t-3 -6q-76 2 -105 1q1 -42 1.5 -170t0.5 -172q0 -28 3 -32q5 -5 79 -6q1 0 2 -5t0 -10t-3 -5q-232 0 -301 -1z" />
    <glyph glyph-name="g" unicode="g" horiz-adv-x="517" 
d="M322 289q0 75 -10 96q-15 28 -56 28q-68 0 -68 -127q0 -65 13 -93q15 -29 53 -29q68 0 68 125zM472 -140q-37 -38 -100.5 -59t-139.5 -21q-100 0 -159.5 29.5t-59.5 75.5q0 53 96 92q-64 23 -64 75q0 31 26 59q25 25 74 51q-107 37 -106 128q0 48 35 83q62 61 182 62h9
q1 3 7.5 17.5t10 21.5t10 19t14 21.5t15.5 17.5q33 33 80 33q36 0 55.5 -18t19.5 -43q0 -22 -14.5 -35.5t-36.5 -13.5q-20 0 -34 12q-11 11 -12 33.5t-4 25.5q-16 16 -46 -14q-24 -24 -42 -78q47 -4 88.5 -21t63.5 -39q32 -32 32 -80t-40 -88q-27 -27 -77.5 -44.5
t-105.5 -16.5q-41 0 -78 9q-49 -26 -49 -41q0 -13 39 -20q8 -1 168 -18q117 -10 154 -47q29 -29 29 -74q0 -56 -40 -94zM237 -197q107 0 147 40q20 19 20 48q0 43 -68 53q-126 15 -179 22q-16 2 -23 4q-67 -34 -67 -78q0 -40 45 -64.5t125 -24.5z" />
    <glyph glyph-name="h" unicode="h" horiz-adv-x="575" 
d="M272 -1q-37 1 -262 1q-3 0 -2.5 9.5t2.5 9.5q52 2 56 6t4 43q0 437 -2 507q-1 43 -6 48q-4 4 -52 5q-2 0 -2.5 9.5t2.5 9.5q179 4 214 6q7 0 6 -10q-1 -13 -3 -318h3q35 57 70 87t84 30q56 0 92 -36t36 -130q0 -40 -0.5 -108.5t-0.5 -89.5q0 -45 7 -54q4 -4 53 -5
q1 0 2 -5t0 -10t-3 -5q-140 3 -256 -1q-2 0 -3 5t-0.5 10t2.5 5q33 1 37 4q3 3 3 34q2 76 2 225q0 58 -7 73q-12 21 -34 21q-20 0 -40.5 -20t-31.5 -43q-15 -29 -15 -70q0 -25 -1 -98t-1 -81q0 -34 5 -39q4 -4 42 -6q3 0 3 -9.5t-3 -9.5z" />
    <glyph glyph-name="i" unicode="i" horiz-adv-x="311" 
d="M250 588q0 -37 -29 -62t-68 -25t-62.5 24t-23.5 56q0 33 23 54q25 27 75 27q36 0 60.5 -21.5t24.5 -52.5zM302 -1q-11 0 -145.5 0.5t-141.5 0.5q-2 0 -2 10t2 10q60 1 63 5q4 4 5 41q1 31 1 93q0 129 -4 213q0 24 -5 29q-4 4 -63 5q-2 0 -2 10t2 10q62 1 214 1
q11 0 11 -10v-280q0 -106 8 -112q4 -5 56 -6q2 0 3 -5t0.5 -10t-2.5 -5z" />
    <glyph glyph-name="j" unicode="j" horiz-adv-x="304" 
d="M254 583q0 -35 -30 -57.5t-74 -22.5q-34 0 -57.5 20t-23.5 53q0 34 28 60t73 26q37 0 60.5 -23.5t23.5 -55.5zM241 -11q0 -85 -60 -144q-29 -29 -72.5 -46t-87.5 -17q-57 0 -94.5 27.5t-37.5 70.5q0 29 19 51t51 22q29 0 46.5 -18t17.5 -44q0 -27 -17 -46q-10 -9 -24 -15
t-15 -7q-7 -8 11 -15q13 -5 32 -5q47 0 66 38q13 26 13 87q0 176 -4 416q0 47 -7 54q-7 6 -64 7q-3 0 -3 10t3 10q161 0 219 2q6 -1 6 -12v-300q0 -12 1 -61t1 -65z" />
    <glyph glyph-name="k" unicode="k" horiz-adv-x="564" 
d="M13 648q55 3 212 0q6 0 6 -8q-3 -243 -6 -450h1q91 93 126 132q33 34 33 57q0 15 -12.5 20.5t-50.5 7.5q-2 0 -2.5 5t1 10t3.5 5q58 -2 107 -2q71 0 115 1q2 0 2 -9t-2 -10q-49 -5 -79 -21q-51 -25 -102 -79q103 -196 129 -241q16 -28 25 -37t46 -10q2 0 2.5 -9.5
t-2.5 -9.5q-25 0 -129.5 0.5t-123.5 -1.5q-2 0 -2 9.5t2 9.5q28 2 32 6q4 3 -3 17q-7 15 -38.5 76.5t-40.5 80.5q-8 -7 -37 -36v-116q0 -20 3 -24q3 -3 40 -4q1 0 1.5 -4.5t0 -9.5t-2.5 -5h-258q-1 0 -2 5t-0.5 10t2.5 5q51 2 55 6q4 3 4 33q2 96 2 273q0 172 -1 257
q0 32 -4 36t-53 4q-2 0 -2.5 5t0.5 10t3 5z" />
    <glyph glyph-name="l" unicode="l" horiz-adv-x="315" 
d="M15 649h212q9 0 9 -11q-1 -105 -1 -311q0 -117 -2 -261q0 -32 7 -41q4 -4 59 -6q1 0 1.5 -5.5t0 -10.5t-2.5 -5q-89 3 -284 3q-2 0 -2 10t2 10q53 0 57 4t4 27q3 141 3 201q0 234 -1 338q-1 30 -4 33q-4 4 -59 5q-3 1 -2.5 10.5t3.5 9.5z" />
    <glyph glyph-name="m" unicode="m" horiz-adv-x="849" 
d="M838 -1q-75 2 -248 2q-2 0 -2.5 9.5t2.5 9.5q31 0 34 4q3 2 3 20q0 8 0.5 116t0.5 150q0 63 -39 63q-20 0 -39.5 -18t-28.5 -35q-13 -27 -13 -74q-2 -80 0 -199q0 -22 3 -25q2 -2 36 -5q2 0 2.5 -4.5t-0.5 -9.5t-3 -5q-66 3 -235 3q-2 0 -2.5 9.5t2.5 9.5q31 0 36 3
q2 3 2 22v245q0 52 -7 67q-8 15 -26 15q-20 0 -39.5 -18.5t-30.5 -41.5q-16 -32 -16 -89v-162q0 -35 3 -38q4 -2 38 -5q1 0 1.5 -4.5t-0.5 -9.5t-2 -5q-89 3 -260 0q-3 0 -3 9.5t3 9.5q57 2 61 5q3 5 3 35q0 21 0.5 137.5t0.5 136.5q0 65 -5 69q-4 4 -55 7q-2 0 -2 5t1 10
t4 5q32 -2 209 -2q4 0 4 -6t-1 -54t-1 -52h2q60 126 155 126q51 0 81.5 -31.5t37.5 -82.5h1q57 113 149 113q59 0 95 -36q37 -37 37 -116q0 -17 -1.5 -121t-1.5 -122q0 -16 3 -19q4 -4 52 -6q1 0 2 -5t0 -10t-3 -5z" />
    <glyph glyph-name="n" unicode="n" horiz-adv-x="578" 
d="M15 -2q-2 1 -2 11t2 10q52 1 55 4q5 7 5 85v227q0 57 -7 64q-4 5 -54 6q-1 0 -2 5t0 10t3 5q128 0 212 2q7 0 7 -10q0 -13 -1 -51t-2 -50l3 -1q29 61 65 94t91 33q127 0 127 -146q0 -19 -0.5 -75.5t-0.5 -88.5q0 -102 6 -108q3 -3 49 -6q5 0 3 -15q-1 -4 -3 -4
q-109 2 -249 0q-2 0 -3 5t-0.5 10t1.5 5q34 3 36 5q3 3 3 42v245q0 58 -40 58q-42 0 -74 -64q-14 -28 -14 -75q0 -12 0.5 -80t0.5 -87q0 -35 4 -39q2 -2 42 -5q2 0 2.5 -5t-0.5 -10t-3 -5q-171 2 -262 -1z" />
    <glyph glyph-name="o" unicode="o" horiz-adv-x="554" 
d="M530 211q0 -82 -67 -149q-75 -75 -186 -75q-56 0 -108 22.5t-87 57.5q-58 58 -58 144t65 151q79 79 196 79q107 0 183 -76q62 -62 62 -154zM357 249q0 107 -16 138q-17 33 -57 33q-45 0 -63 -40q-21 -40 -21 -170q0 -114 19 -158t59 -44t58 35q21 42 21 206z" />
    <glyph glyph-name="p" unicode="p" 
d="M306 389q-38 0 -63 -51q-21 -40 -21 -104q0 -90 2 -120t10 -46q10 -20 29.5 -33t38.5 -13q33 0 48.5 41t15.5 151q0 115 -16 146q-14 29 -44 29zM5 425q172 0 209 2q7 0 7 -6q2 -21 2 -86h2q17 44 50 75t78 31q66 0 116 -50q68 -68 68 -169q0 -102 -71 -173
q-64 -64 -130 -64q-68 0 -109 61h-2q2 -140 2 -164q0 -64 6 -69q4 -3 66 -4q3 0 3 -10.5t-3 -10.5q-12 0 -70.5 -0.5t-75.5 -0.5q-94 0 -152 -2q-1 0 -2 5.5t0 11t3 5.5q59 3 63 5q7 5 7 75q0 265 -3 416q-3 90 -9 96q-4 4 -56 5q-1 0 -2 5t0 10.5t3 5.5z" />
    <glyph glyph-name="q" unicode="q" horiz-adv-x="559" 
d="M254 440q34 0 64.5 -12.5t47.5 -28t30.5 -28t16.5 -12.5q14 0 78 81q3 3 8 2t5 -4q-8 -180 -8 -475q0 -140 8 -148q4 -4 58 -10q2 0 2.5 -5.5t-0.5 -10.5t-3 -5q-125 6 -293 3q-2 0 -2.5 10.5t2.5 10.5q66 4 68 6q6 8 6 55q0 177 1 205l-2 1q-18 -39 -51.5 -64t-76.5 -25
q-71 0 -127 56q-58 56 -58 147q0 104 75 179q72 72 151 72zM272 413q-36 0 -53 -35q-20 -40 -20 -174q0 -115 14 -142q15 -31 46 -31q43 0 71 55q9 18 12 43.5t3 93.5q0 131 -11 152q-8 15 -24.5 26.5t-37.5 11.5z" />
    <glyph glyph-name="r" unicode="r" horiz-adv-x="483" 
d="M10 20q57 1 60 4q4 4 6 56q0 18 -0.5 115t-0.5 117q0 81 -8 87q-3 4 -55 5q-2 0 -2.5 5t0.5 10.5t3 5.5q26 0 104.5 1.5t99.5 1.5q9 0 11.5 -3.5t2.5 -13.5q0 -1 -3 -115l3 -1q25 69 56.5 106t80.5 37q45 0 74 -27t29 -69t-25 -69t-60 -27q-33 0 -55 18.5t-22 49.5
q0 21 9.5 39t19 28.5t9.5 13.5q0 5 -12 5q-17 0 -37 -21t-36 -52q-31 -63 -31 -138v-89q1 -70 6 -75q3 -3 68 -5q2 0 2.5 -5t-0.5 -10.5t-3 -5.5q-8 0 -143.5 0.5t-150.5 0.5q-2 0 -2.5 10t2.5 10z" />
    <glyph glyph-name="s" unicode="s" horiz-adv-x="473" 
d="M441 147q0 -62 -39 -103q-53 -51 -144 -51q-40 0 -75 8.5t-54.5 17.5t-20.5 9q-6 0 -40 -41q-2 -3 -11 -2.5t-9 3.5q-2 59 -11 158q0 3 10 5.5t12 -1.5q21 -51 49 -79q56 -56 146 -56q53 0 75 20q13 13 13 38q0 23 -23.5 37t-92.5 30q-109 26 -145 62q-33 32 -33 84
q0 63 48 106.5t123 43.5q33 0 65 -10t51 -19.5t20 -9.5q4 0 40 49q1 2 10.5 1t9.5 -3q-5 -76 -2 -142q0 -5 -10.5 -5.5t-12.5 2.5q-20 35 -38 53q-61 61 -132 61q-42 0 -63 -19q-12 -12 -12 -32q0 -26 24.5 -39.5t96.5 -29.5q107 -25 144 -63q31 -31 31 -83z" />
    <glyph glyph-name="t" unicode="t" horiz-adv-x="369" 
d="M358 137q-13 -74 -45 -110t-92 -36q-78 0 -117 41q-35 33 -35 108q0 122 5 260q-6 1 -61 1q-4 0 -3.5 11.5t3.5 11.5q50 2 79.5 14t57.5 41q38 36 62 100q2 4 11 3t10 -5q0 -12 -2 -72.5t-3 -79.5h117q2 0 3 -6t-0.5 -12.5t-3.5 -6.5q-82 1 -116 -1q-4 -74 -4 -274
q0 -57 7 -72q10 -20 35 -20q48 0 71 110q1 2 6 1.5t10 -3t5 -4.5z" />
    <glyph glyph-name="u" unicode="u" horiz-adv-x="570" 
d="M356 -3q-12 0 -12 101h-3q-57 -113 -151 -113q-59 0 -94 35q-32 32 -32 108q0 28 1 119.5t1 109.5q0 38 -4 42t-54 6q-3 0 -3.5 10.5t3.5 10.5q129 -2 202 0q13 0 13 -12q0 -15 -1 -147.5t-1 -157.5t12 -39t33 -14q36 0 65 55q14 29 14 78q0 35 0.5 94t0.5 69q0 41 -5 46
t-57 6q-2 0 -2.5 10t2.5 10q58 2 204 2q17 0 17 -6q-5 -165 -5 -363q0 -26 4 -31q3 -3 58 -5q3 0 3 -10.5t-3 -10.5q-18 0 -101 -1.5t-105 -1.5z" />
    <glyph glyph-name="v" unicode="v" horiz-adv-x="516" 
d="M-2 405q-1 0 -2 5.5t0 10.5t3 5q33 1 137 0.5t143 -0.5q3 0 4 -5t0.5 -10t-2.5 -5q-49 -2 -53 -5q-4 -6 13 -53q20 -60 83 -245h2q61 168 69 192q15 47 15 72q0 18 -10.5 26.5t-41.5 14.5q-3 1 -3 10t4 9q128 -2 157 -2q3 0 3.5 -9.5t-2.5 -10.5q-32 -5 -47 -20
q-24 -24 -46 -83q-11 -29 -52 -140t-62 -165q-5 -10 -55 -10q-47 0 -51 8q-60 178 -126 341q-22 53 -30 61q-7 7 -50 8z" />
    <glyph glyph-name="w" unicode="w" horiz-adv-x="786" 
d="M677 363q0 22 -13 31.5t-47 13.5q-2 0 -2.5 5t0.5 9.5t3 4.5q87 -3 169 -1q1 0 2 -5t0.5 -10t-1.5 -5q-37 -6 -53 -22q-19 -19 -43 -85q-70 -190 -114 -304q-2 -5 -56 -5q-36 0 -38 6q-53 165 -88 284h-2q-17 -48 -51 -145.5t-48 -136.5q-3 -7 -59 -7q-32 0 -35 5
q-69 194 -123 358q-11 33 -18 40q-9 9 -53 12q-4 0 -3.5 10t3.5 10q122 -4 281 1q2 0 3 -5t0.5 -10t-2.5 -5q-47 -4 -51 -8q-8 -8 9 -65q19 -66 66 -210h1q42 119 102 299q1 8 47 8q49 0 52 -9q18 -75 86 -296h2q6 18 23.5 65.5t25.5 70.5q25 72 25 101z" />
    <glyph glyph-name="x" unicode="x" horiz-adv-x="539" 
d="M532 -2q-114 3 -126 3q-26 0 -78 -1t-72 -1q-1 0 -2 5t-0.5 10.5t2.5 5.5q49 3 49 15q0 10 -14 32q-44 70 -77 114h-1q-33 -41 -62 -78q-24 -31 -24 -52q0 -14 11.5 -21t45.5 -13q1 0 1.5 -4.5t-0.5 -9t-3 -4.5q-28 0 -87.5 0.5t-95.5 0.5q-4 0 -4.5 9.5t2.5 10.5
q32 5 48 13q22 11 75 71q16 17 78 91q-64 97 -116 169q-27 33 -33 36q-4 3 -39 4q-3 0 -3 10.5t3 10.5q91 0 273 2q1 0 2 -5t0.5 -10t-1.5 -5q-44 -2 -47 -8t8 -23q35 -58 77 -113q25 29 51 67q23 32 23 52q0 12 -10 18t-41 8q-3 1 -2.5 10t3.5 9q86 -2 176 0q3 0 3.5 -9.5
t-2.5 -10.5q-55 -9 -96 -50q-24 -26 -41 -47q-35 -42 -51 -63v-1q50 -75 106 -154q44 -62 54 -67q6 -3 38 -6q3 -1 2.5 -11t-3.5 -10z" />
    <glyph glyph-name="y" unicode="y" horiz-adv-x="529" 
d="M131 -219q-45 0 -74.5 25t-29.5 63q0 32 22 52.5t52 20.5q28 0 44 -17.5t16 -42.5q0 -24 -19 -45q-7 -7 -18.5 -12t-13.5 -7q-8 -7 5 -12q7 -3 19 -3q38 0 65 27q36 36 66 117q-12 26 -84 179.5t-103 220.5q-19 39 -28 47q-10 10 -49 11q-3 0 -3 10.5t3 10.5
q46 -1 138 -1q94 0 144 2q2 0 3 -5t0.5 -10t-2.5 -5q-45 -4 -49 -9q-7 -7 13 -55q18 -42 94 -209h1q46 116 58 150q17 51 17 81q0 20 -11 29t-42 13q-3 1 -2 10t4 9q107 -2 165 0q3 0 3.5 -9.5t-2.5 -10.5q-33 -6 -47 -20q-31 -31 -62 -113q-80 -202 -140 -347
q-30 -72 -67 -110q-37 -35 -86 -35z" />
    <glyph glyph-name="z" unicode="z" horiz-adv-x="523" 
d="M65 427q17 -1 162 -1q252 0 255 -2q2 -3 2 -9.5t-2 -9.5q-4 -5 -32 -43t-60.5 -83t-55.5 -77q-15 -21 -58 -82.5t-64 -90.5q-2 -5 3 -5q36 -2 74 -2q71 0 100 29q29 27 78 139q1 3 4.5 4t6.5 -0.5t3 -3.5q0 -100 -5 -187q-1 -5 -8 -5q-43 2 -228 2q-164 0 -211 -1
q-2 1 -4 6.5t0 7.5q6 9 54.5 76.5t77.5 107.5q138 193 146 204v1q-22 2 -91 2q-44 0 -65.5 -24t-81.5 -134q-2 -3 -8.5 -2.5t-6.5 3.5q1 63 9 174q0 6 6 6z" />
    <glyph glyph-name="braceleft" unicode="{" horiz-adv-x="363" 
d="M339 656q2 0 4 -4t2.5 -8t-0.5 -6q-38 -11 -61 -22q-48 -23 -48 -69q0 -29 19 -88t19 -89q0 -48 -55 -76q-44 -22 -127 -29v-2q90 -14 125 -32q48 -23 48 -69q0 -30 -28.5 -86t-28.5 -90q0 -37 39 -56q20 -10 97 -32q3 -1 1 -10t-4 -9q-67 10 -100.5 17t-75 22.5
t-64.5 38.5q-32 32 -32 76q0 33 31 85.5t31 81.5q0 26 -23 37q-27 13 -91 19q-2 0 -2.5 4.5t0.5 9t3 4.5q69 3 95 17q24 12 24 42q0 28 -21.5 83t-21.5 88q0 43 35 78q21 21 62.5 37t67.5 21.5t80 15.5z" />
    <glyph glyph-name="bar" unicode="|" horiz-adv-x="226" 
d="M95 -103q0 47 2 175.5t2 209.5q0 34 1 158.5t0 199.5q0 1 7 2t14 0t7 -3q0 -68 -1 -189.5t-1 -172.5q0 -72 -1 -189t-1 -190q0 -2 -7 -3t-14.5 -0.5t-7.5 2.5z" />
    <glyph glyph-name="braceright" unicode="}" horiz-adv-x="363" 
d="M23 657q147 -20 194 -44q36 -18 52.5 -40.5t16.5 -58.5q0 -28 -27.5 -86.5t-27.5 -90.5q0 -25 24 -38q30 -14 90 -18q3 0 3.5 -9.5t-3.5 -9.5q-66 -3 -92 -17q-26 -13 -26 -40q0 -30 25.5 -84t25.5 -88q0 -69 -76 -106q-44 -22 -179 -46q-2 0 -3.5 4t-1.5 8t1 5
q61 15 89.5 36.5t28.5 54.5q0 29 -23 87t-23 86q0 46 56 76q53 26 125 33v2q-85 12 -124 31q-51 26 -51 73q0 29 23 85t23 90q0 41 -35 58q-25 13 -89 29q-3 1 -1 9.5t5 8.5z" />
    <glyph glyph-name="asciitilde" unicode="~" horiz-adv-x="483" 
d="M333 275q-35 0 -96 36t-88 36q-54 0 -76 -76q-1 -2 -6 -2t-9 2.5t-3 6.5q9 42 34 69.5t65 27.5q37 0 96.5 -35.5t84.5 -35.5q30 0 46.5 19.5t29.5 57.5q1 2 5 1.5t8 -3t4 -4.5q-6 -22 -11.5 -35t-16.5 -30.5t-27.5 -26t-39.5 -8.5z" />
    <glyph glyph-name="uni00A0" unicode="&#xa0;" horiz-adv-x="211" 
 />
    <glyph glyph-name="exclamdown" unicode="&#xa1;" horiz-adv-x="315" 
d="M158 618q37 0 64 -22.5t27 -55.5q0 -36 -25 -62t-67 -26q-40 0 -65.5 22.5t-25.5 58.5t27.5 60.5t64.5 24.5zM169 406q2 -73 14.5 -130t26.5 -85t25.5 -59t11.5 -59q0 -41 -29 -63t-65 -22t-61 19.5t-25 61.5q0 37 17.5 78.5t38 107t25.5 152.5q2 4 11.5 3.5t9.5 -4.5z
" />
    <glyph glyph-name="cent" unicode="&#xa2;" horiz-adv-x="539" 
d="M294 -12q0 -1 -6 -1t-12 0.5t-6 1.5q1 14 3.5 48.5t3.5 54.5q-111 7 -180 76q-55 57 -55 139q0 81 60 143q39 38 93.5 61.5t110.5 24.5q1 11 2.5 40t2.5 43q0 2 6 2t12 -1t6 -3q-1 -14 -2.5 -43t-2.5 -39q80 -5 130 -55q33 -33 33 -75q0 -34 -19.5 -55t-48.5 -21
q-26 0 -44 17.5t-18 44.5q0 28 19 47q11 11 28.5 16t18.5 6q4 3 -6.5 15t-36.5 24t-58 12q-16 -255 -25 -390q62 1 110 48q32 34 52 78q1 1 3 1t5 -1.5l6 -3t4.5 -3.5t1.5 -3q-21 -50 -57 -86q-53 -55 -127 -59q-1 -20 -3.5 -55zM227 163q15 -32 52 -40q7 96 25 386
q-49 -7 -69 -50q-26 -51 -26 -179q0 -81 18 -117z" />
    <glyph glyph-name="sterling" unicode="&#xa3;" horiz-adv-x="626" 
d="M427 -8q-90 0 -176 74l-1 -1q-70 -70 -142 -70q-41 0 -68.5 25t-27.5 60q0 38 27.5 64t71.5 26q35 0 80 -8q-9 40 -57 112h-83q-3 0 -3 19q0 5 4 5h67q-43 66 -43 122q0 65 56 121q78 76 220 76q74 0 141 -38.5t67 -100.5q0 -42 -27 -69.5t-69 -27.5q-37 0 -61.5 22.5
t-24.5 57.5q0 32 22 54q17 17 43.5 24t27.5 8q4 5 -8.5 16t-42.5 21.5t-65 10.5q-76 0 -104 -55q-11 -22 -11 -51q0 -33 15.5 -65t38.5 -66t33 -59q104 0 149 1q3 0 3 -20q0 -3 -3 -3q-81 0 -142 1q5 -22 5 -40q0 -48 -29 -98q72 -14 118 -14q50 0 69 6.5t30 28.5
q12 24 26 87q1 2 10 1t9 -3q-18 -143 -43 -192q-31 -62 -102 -62zM111 15q40 0 63 29.5t23 69.5q-46 36 -87 36q-32 0 -52 -19.5t-20 -48.5q0 -31 20 -49t53 -18z" />
    <glyph glyph-name="yen" unicode="&#xa5;" horiz-adv-x="649" 
d="M414 234q0 -16 -0.5 -33t-0.5 -28q95 0 137 1q3 0 3 -13q0 -10 -3 -10q-83 0 -137 1v-69q0 -49 9 -56q4 -5 78 -9q2 0 2 -10t-2 -10q-135 3 -183 3q-30 0 -90.5 -0.5t-86.5 -0.5q-2 0 -2 10t2 10q75 1 81 7q7 7 7 39q0 59 1 86q-31 0 -67 -0.5t-62 -0.5q-4 0 -4 17
q0 6 4 6q12 0 61 -0.5t68 -0.5v60h-129q-4 0 -4 14q0 9 4 9q12 0 61 -0.5t67 -0.5q0 11 -3 16q-68 130 -133 248q-27 48 -35 55q-10 10 -53 12q-1 0 -1.5 5t0.5 10.5t3 5.5q160 -2 318 1q2 0 3 -5t0 -10t-2 -5q-49 -3 -55 -8q-7 -7 4 -28q69 -145 125 -247q2 -3 4 0
q49 88 89 165q23 46 23 76q0 22 -15.5 31.5t-53.5 12.5q-2 1 -1.5 10t2.5 9q66 -2 108 -2q45 0 89 1q2 0 2.5 -9t-1.5 -10q-30 -6 -38 -10q-36 -18 -93 -121q-7 -13 -38.5 -68.5t-57.5 -103.5q-3 -7 -3 -31q94 0 135 1q3 0 3 -14q0 -9 -3 -9q-82 0 -136 1z" />
    <glyph glyph-name="section" unicode="&#xa7;" horiz-adv-x="558" 
d="M279 265q94 -32 132 -52q27 16 27 44q0 6 -2 11.5t-7 10.5t-10.5 9.5t-15 9t-17 8t-21 9t-23 8.5t-26 9l-27.5 10q-97 34 -131 54q-35 -17 -35 -44q0 -8 3 -15t10.5 -13t15 -10.5t23.5 -11t28 -10.5t36 -12.5t40 -14.5zM268 -9q-83 0 -140 29t-57 73q0 26 17.5 43
t45.5 17t47 -15t19 -38q0 -21 -15 -38q-7 -6 -16.5 -11.5t-11.5 -7.5q-3 -3 6.5 -10.5t38.5 -15.5t70 -8q49 0 81 17.5t32 47.5q0 23 -27 38t-98 41q-13 5 -20 7q-48 17 -69 25t-51.5 22.5t-42.5 26t-22 29.5t-10 39q0 68 94 107q-36 29 -36 73q0 41 35 76q58 58 172 58
q75 0 123.5 -28.5t48.5 -70.5q0 -25 -16 -40.5t-41 -15.5q-28 0 -48.5 15t-20.5 37q0 21 14 35q7 7 18 12t13 7q3 3 -4 10t-30.5 14t-60.5 7q-45 0 -78.5 -18.5t-33.5 -48.5q0 -27 48 -49q13 -6 111 -41q91 -34 129 -61t38 -73q0 -63 -88 -108q40 -29 40 -75t-33 -76
q-57 -57 -171 -57z" />
    <glyph glyph-name="dieresis" unicode="&#xa8;" horiz-adv-x="503" 
d="M273 562q0 31 19 54.5t50 23.5q32 0 52.5 -21.5t20.5 -52.5q0 -33 -20 -56t-52 -23q-33 0 -51.5 21.5t-18.5 53.5zM88 563q0 30 21 52.5t53 22.5q31 0 50.5 -21.5t19.5 -54.5q0 -31 -20.5 -53.5t-52.5 -22.5t-51.5 23t-19.5 54z" />
    <glyph glyph-name="copyright" unicode="&#xa9;" horiz-adv-x="720" 
d="M367 -18q-143 0 -235 92q-96 96 -96 226q0 132 99 231q44 44 106 69t128 25q131 0 224 -95q91 -90 91 -224t-98 -232q-91 -92 -219 -92zM661 307q0 128 -83 211q-88 88 -210 88q-60 0 -119 -23t-101 -65q-90 -90 -90 -218q0 -124 89 -213q41 -41 99 -63.5t120 -22.5
q120 0 206 86q89 89 89 220zM466 456l32 33q1 1 8 0.5t7 -2.5q-2 -80 0 -142q0 -3 -8.5 -3t-9.5 2q-29 69 -50 93q-24 29 -59 29q-40 0 -56 -34q-18 -36 -18 -131q0 -73 18 -106q20 -41 69 -41q41 0 67 28q29 29 36 77q1 1 5.5 1t9.5 -1.5t5 -3.5q-8 -54 -43 -90
q-40 -40 -109 -40q-84 0 -137 53q-47 47 -47 121q0 79 52 131q57 59 136 59q24 0 46 -8.5t34 -16.5z" />
    <glyph glyph-name="ordfeminine" unicode="&#xaa;" horiz-adv-x="378" 
d="M214 477q-38 -5 -51 -11q-24 -14 -24 -54q0 -42 25 -42q12 0 26.5 9t19.5 20q2 8 4 78zM165 595q-10 0 -18 -2t-11.5 -4.5t-3.5 -4.5l12 -11q12 -11 12 -28q0 -20 -13 -32t-34 -12q-22 0 -35 12t-13 32q0 21 17 38q31 31 100 31q71 0 103 -32q29 -30 29 -88
q0 -13 -1 -52.5t-1 -62.5q0 -14 12 -14q17 0 23 45q1 2 9.5 0t8.5 -5q-5 -36 -21.5 -54t-50.5 -18q-58 0 -76 42q-37 -43 -87 -43q-34 0 -58.5 20t-24.5 50q0 29 20 49q31 31 151 43v48q0 28 -10 39q-10 14 -39 14zM48 281q20 0 69 -0.5t77 -0.5q25 0 73.5 0.5t79.5 0.5
q4 0 4 -10q0 -13 -7 -13h-299q-4 0 -4 11q0 12 7 12z" />
    <glyph glyph-name="guillemotleft" unicode="&#xab;" horiz-adv-x="455" 
d="M238 244q71 72 166 187q2 4 13 -4q5 -3 3 -5q-30 -77 -69 -189q-1 -3 -1 -9q25 -109 56 -219q2 -3 -4 -7t-9 -2q-137 184 -156 207q-16 22 1 41zM36 237q122 109 198 193q3 2 10.5 -2.5t6.5 -7.5q-74 -153 -90 -194v-2q8 -69 58 -215q1 -4 -5.5 -9t-8.5 -3
q-19 26 -93 121q-46 61 -74 93q-13 17 -2 26z" />
    <glyph glyph-name="registered" unicode="&#xae;" horiz-adv-x="373" 
d="M332 471q0 -55 -43 -98t-108 -43q-57 0 -98 42t-41 99q0 63 41 104q38 40 101 40q59 0 103.5 -41.5t44.5 -102.5zM57 469q0 -49 37 -86.5t88 -37.5q59 0 96 38q37 35 37 88q0 56 -38.5 93.5t-92.5 37.5t-90 -36q-37 -38 -37 -97zM282 431q-7 -34 -38 -34
q-19 0 -27.5 10.5t-12.5 36.5q-3 24 -15 24h-16q0 -53 1 -54t17 -1q1 0 1 -7t-1 -7q-18 1 -86 1q-1 0 -2 3.5t-1 6.5t1 3q17 0 19 1v3q0 3 0.5 8.5t1 13t0.5 19.5v25q0 54 -1 56l-19 2v3v6l1 4q15 -1 44 -1q8 0 24.5 0.5t22.5 0.5q67 0 67 -38q0 -35 -51 -40v-2
q24 -3 33 -12q5 -6 7.5 -17t3.5 -19t5 -8q7 0 11 17zM174 539q-1 0 -1 -11v-45q2 -1 14 -1t17.5 7t5.5 27q0 24 -25 24q-10 0 -11 -1z" />
    <glyph glyph-name="macron" unicode="&#xaf;" horiz-adv-x="503" 
d="M401 591q0 -54 -1 -73q0 -5 -10 -5h-285q-4 0 -4 5v71q1 6 9 6q25 0 70.5 -0.5t70.5 -0.5q100 0 145 1q5 0 5 -4z" />
    <glyph glyph-name="degree" unicode="&#xb0;" horiz-adv-x="330" 
d="M166 614q47 0 81.5 -32.5t34.5 -82.5q0 -52 -36 -86t-85 -34q-47 0 -80 33t-33 84q0 47 36 82.5t82 35.5zM256 498q0 41 -26.5 66.5t-65.5 25.5q-35 0 -62.5 -28.5t-27.5 -66.5q0 -40 25.5 -66t62.5 -26t65.5 27t28.5 68z" />
    <glyph glyph-name="plusminus" unicode="&#xb1;" horiz-adv-x="507" 
d="M269 360q-2 0 -2 -2v-190q0 -3 -21 -3q-7 0 -7 5v189q0 1 -1 1q-137 0 -190 -1q-4 0 -4 22q0 4 4 4h188q3 0 3 3v186q0 4 13 4q15 0 15 -3v-189q53 -1 192 -1q4 0 4 -7q0 -19 -5 -19q-23 0 -86 0.5t-103 0.5zM48 80h411q3 0 3 -6q0 -20 -4 -20h-409q-5 0 -5 20q0 6 4 6z
" />
    <glyph glyph-name="acute" unicode="&#xb4;" horiz-adv-x="503" 
d="M175 478q-2 -1 -6 5t-2 8q20 18 44 41q24 25 71 83q31 36 65 36q24 0 39 -14t15 -35q0 -39 -55 -61q-43 -21 -171 -63z" />
    <glyph glyph-name="paragraph" unicode="&#xb6;" horiz-adv-x="555" 
d="M32 414q0 76 55 131q62 63 213 63q30 0 61 -0.5t57 -0.5q42 0 126 2q2 0 2.5 -5.5t-1 -10.5t-2.5 -5q-86 -2 -88 -4t-2 -12q-1 -99 -7 -382q-1 -58 -1 -94t-1 -97q0 -2 -6 -3t-12 -0.5t-6 2.5q8 524 9 576q0 8 -3 9q-1 1 -67 1q-5 0 -5 -4q0 -37 -1 -121t-1 -139
q0 -90 -2.5 -178t-2.5 -144q0 -2 -12.5 -2.5t-12.5 2.5q0 50 2 200q0 6 -7 6q-170 14 -237 81q-48 50 -48 129z" />
    <glyph glyph-name="periodcentered" unicode="&#xb7;" horiz-adv-x="265" 
d="M224 328q0 -42 -27.5 -72t-67.5 -30q-36 0 -62 28t-26 71q0 38 27 65t65 27q39 0 65 -25t26 -64z" />
    <glyph glyph-name="cedilla" unicode="&#xb8;" horiz-adv-x="503" 
d="M257 2l22 -6l-34 -52q19 6 48 6q33 0 54.5 -15t21.5 -44q0 -26 -23 -51q-42 -40 -101 -40q-52 0 -109 48q-1 1 1.5 6.5t6.5 9.5t6 2q43 -37 77 -37q22 0 35 13q16 18 16 52q0 30 -23 30q-13 0 -37 -11q-3 -1 -9.5 4.5t-4.5 7.5z" />
    <glyph glyph-name="ordmasculine" unicode="&#xba;" horiz-adv-x="387" 
d="M76 565q49 49 122 49q67 0 116 -47q38 -39 38 -96q0 -50 -41 -93q-50 -48 -117 -48q-72 0 -123 51q-36 36 -36 89q0 54 41 95zM245 494q0 62 -10 82t-38 20t-40 -25q-13 -26 -13 -101q0 -68 12.5 -94t38.5 -26t37 21q13 28 13 123zM348 271q0 -14 -6 -14q-14 0 -47 0.5
t-52 0.5q-35 0 -101.5 -0.5t-99.5 -0.5q-4 0 -4 10q0 14 6 14q17 0 59 -0.5t61 -0.5q28 0 90.5 0.5t89.5 0.5q4 0 4 -10z" />
    <glyph glyph-name="guillemotright" unicode="&#xbb;" horiz-adv-x="457" 
d="M216 433q26 -25 94 -89.5t112 -106.5q7 -9 -2 -20q-30 -34 -96 -120q-12 -15 -36.5 -50t-37.5 -51q-2 -1 -6 -0.5t-8 2.5t-3 4q51 170 61 212q0 10 -2 14q-38 101 -93 196q-1 1 3 3.5t8.5 4.5t5.5 1zM54 431q30 -35 84.5 -96.5t80.5 -91.5q15 -18 0 -37
q-63 -79 -153 -210q-2 -1 -6 0t-8 3.5t-3 4.5q23 84 55 212q2 8 0 15q-24 88 -68 193q-2 2 5 5q10 5 13 2z" />
    <glyph glyph-name="questiondown" unicode="&#xbf;" horiz-adv-x="571" 
d="M372 453q-36 0 -63 21.5t-27 56.5q0 38 26.5 61t67.5 23q40 0 62.5 -23t22.5 -59q0 -34 -25.5 -57t-63.5 -23zM355 135q0 35 22.5 59t56.5 24q36 0 60 -23t24 -64q0 -43 -34 -77q-66 -64 -193 -64q-67 0 -124.5 19t-88.5 50q-41 43 -41 99q0 65 46 113q69 67 185 67
q54 0 90 -16l1 1q2 58 2 86q0 2 6.5 3t12.5 0t6 -2q-2 -23 -2 -60q0 -32 3 -52q0 -2 -7 -5t-9 -2q-40 25 -81 25q-33 0 -46 -27q-18 -36 -18 -132q0 -78 13 -104q21 -42 92 -42q44 0 78 17q10 5 17 11t9.5 10.5t-0.5 7.5q-1 1 -23.5 7t-36.5 20q-20 20 -20 51z" />
    <glyph glyph-name="Agrave" unicode="&#xc0;" horiz-adv-x="708" 
d="M447 654q-125 28 -175 48q-58 19 -58 58q0 21 14.5 36t38.5 15q34 0 66 -32q52 -54 75 -74q15 -14 46 -38q1 -2 -2 -7.5t-5 -5.5zM-1 17q42 5 64 29q27 25 55 91q125 280 201 478q7 5 55 5q53 0 54 -5q48 -141 183 -510q24 -63 37 -76q9 -9 61 -11q3 0 2.5 -10t-2.5 -10
q-112 2 -155 2q-144 0 -173 -1q-1 0 -2 5t-0.5 10t1.5 5q49 3 57 9q6 8 -1 33q-29 85 -42 119q-78 3 -135 3q-61 0 -86 -1q-7 0 -11 -7q-12 -26 -22 -57q-10 -27 -10 -49q0 -27 15.5 -37t60.5 -15q1 0 1.5 -4.5t-0.5 -9t-2 -4.5q-74 4 -206 0q-1 0 -1.5 4.5t0 9t1.5 4.5z
M290 473h-2q-63 -153 -111 -265q76 -5 209 -5q-22 64 -54.5 153.5t-41.5 116.5z" />
    <glyph glyph-name="Aacute" unicode="&#xc1;" horiz-adv-x="708" 
d="M303 654q-1 0 -3 2.5t-3.5 6t-1.5 4.5q28 20 47 38q29 26 75 74q32 32 67 32q23 0 38 -15t15 -36q0 -38 -59 -58q-37 -15 -175 -48zM-1 17q42 5 64 29q27 25 55 91q125 280 201 478q7 5 55 5q53 0 54 -5q48 -141 183 -510q24 -63 37 -76q9 -9 61 -11q3 0 2.5 -10
t-2.5 -10q-112 2 -155 2q-144 0 -173 -1q-1 0 -2 5t-0.5 10t1.5 5q49 3 57 9q6 8 -1 33q-29 85 -42 119q-78 3 -135 3q-61 0 -86 -1q-7 0 -11 -7q-12 -26 -22 -57q-10 -27 -10 -49q0 -27 15.5 -37t60.5 -15q1 0 1.5 -4.5t-0.5 -9t-2 -4.5q-74 4 -206 0q-1 0 -1.5 4.5t0 9
t1.5 4.5zM290 473h-2q-63 -153 -111 -265q76 -5 209 -5q-22 64 -54.5 153.5t-41.5 116.5z" />
    <glyph glyph-name="Acircumflex" unicode="&#xc2;" horiz-adv-x="708" 
d="M225 658q27 31 53 64.5t40 53t15 20.5q4 2 44 2t45 -3q2 -3 18 -25t38.5 -52t44.5 -55q1 -1 -1 -4.5t-6 -6t-6 -2.5q-67 36 -139 69q-79 -41 -134 -74q-2 -1 -8 5t-4 8zM-1 17q42 5 64 29q27 25 55 91q125 280 201 478q7 5 55 5q53 0 54 -5q48 -141 183 -510
q24 -63 37 -76q9 -9 61 -11q3 0 2.5 -10t-2.5 -10q-112 2 -155 2q-144 0 -173 -1q-1 0 -2 5t-0.5 10t1.5 5q49 3 57 9q6 8 -1 33q-29 85 -42 119q-78 3 -135 3q-61 0 -86 -1q-7 0 -11 -7q-12 -26 -22 -57q-10 -27 -10 -49q0 -27 15.5 -37t60.5 -15q1 0 1.5 -4.5t-0.5 -9
t-2 -4.5q-74 4 -206 0q-1 0 -1.5 4.5t0 9t1.5 4.5zM290 473h-2q-63 -153 -111 -265q76 -5 209 -5q-22 64 -54.5 153.5t-41.5 116.5z" />
    <glyph glyph-name="Atilde" unicode="&#xc3;" horiz-adv-x="708" 
d="M213 663q-6 46 19.5 86t77.5 40q28 0 82.5 -17t84.5 -17q16 0 26.5 10t20.5 35q2 3 16 -3q3 -1 2 -2q-5 -28 -9.5 -46t-14 -39t-26 -31.5t-40.5 -10.5q-37 0 -97 19t-89 19q-16 0 -23.5 -9.5t-11.5 -35.5q0 -1 -4.5 -1t-9 1t-4.5 2zM-1 17q42 5 64 29q27 25 55 91
q125 280 201 478q7 5 55 5q53 0 54 -5q48 -141 183 -510q24 -63 37 -76q9 -9 61 -11q3 0 2.5 -10t-2.5 -10q-112 2 -155 2q-144 0 -173 -1q-1 0 -2 5t-0.5 10t1.5 5q49 3 57 9q6 8 -1 33q-29 85 -42 119q-78 3 -135 3q-61 0 -86 -1q-7 0 -11 -7q-12 -26 -22 -57
q-10 -27 -10 -49q0 -27 15.5 -37t60.5 -15q1 0 1.5 -4.5t-0.5 -9t-2 -4.5q-74 4 -206 0q-1 0 -1.5 4.5t0 9t1.5 4.5zM290 473h-2q-63 -153 -111 -265q76 -5 209 -5q-22 64 -54.5 153.5t-41.5 116.5z" />
    <glyph glyph-name="Adieresis" unicode="&#xc4;" horiz-adv-x="708" 
d="M393 727q0 29 20 51.5t51 22.5q33 0 53.5 -20.5t20.5 -49.5q0 -31 -20.5 -53t-52.5 -22q-33 0 -52.5 20.5t-19.5 50.5zM208 728q0 29 21 50t53 21q31 0 51.5 -20.5t20.5 -51.5q0 -29 -21 -50t-54 -21q-32 0 -51.5 21t-19.5 51zM-1 17q42 5 64 29q27 25 55 91
q125 280 201 478q7 5 55 5q53 0 54 -5q48 -141 183 -510q24 -63 37 -76q9 -9 61 -11q3 0 2.5 -10t-2.5 -10q-112 2 -155 2q-144 0 -173 -1q-1 0 -2 5t-0.5 10t1.5 5q49 3 57 9q6 8 -1 33q-29 85 -42 119q-78 3 -135 3q-61 0 -86 -1q-7 0 -11 -7q-12 -26 -22 -57
q-10 -27 -10 -49q0 -27 15.5 -37t60.5 -15q1 0 1.5 -4.5t-0.5 -9t-2 -4.5q-74 4 -206 0q-1 0 -1.5 4.5t0 9t1.5 4.5zM290 473h-2q-63 -153 -111 -265q76 -5 209 -5q-22 64 -54.5 153.5t-41.5 116.5z" />
    <glyph glyph-name="Aring" unicode="&#xc5;" horiz-adv-x="708" 
d="M709 -2q-112 2 -155 2q-144 0 -173 -1q-2 0 -2.5 10t2.5 10q48 3 56 9q7 7 -1 33q-3 10 -41 119q-81 3 -136 3q-61 0 -86 -1q-8 0 -10 -7q-13 -28 -23 -57q-9 -28 -9 -49q0 -26 14.5 -36t60.5 -16q1 0 1.5 -4.5t-0.5 -9t-2 -4.5q-74 4 -206 0q-1 0 -1.5 4.5t0 9t1.5 4.5
q41 5 65 29q25 23 54 91q130 295 198 466q-41 24 -41 69q0 35 26.5 60.5t67.5 25.5q43 0 69.5 -24.5t26.5 -62.5q0 -43 -35 -65q12 -35 181 -501q24 -63 37 -76q9 -9 61 -11q3 0 2.5 -10t-2.5 -10zM369 614q73 0 73 57q0 27 -20 46t-53 19q-32 0 -51.5 -18.5t-19.5 -45.5
t19.5 -42.5t51.5 -15.5zM177 208q76 -5 209 -5q-24 69 -57 160.5t-39 109.5h-2q-34 -86 -111 -265z" />
    <glyph glyph-name="AE" unicode="&#xc6;" horiz-adv-x="1017" 
d="M444 572q0 2 -2 3t-3 -1q-143 -230 -202 -326q96 -3 202 -3q6 0 6 4v80q0 193 -1 243zM-5 0q-3 0 -2.5 10t2.5 10q55 11 87 43q26 26 62 83q152 238 270 432q2 4 -2 4q-36 4 -87 4q-1 0 -2 5t0 10.5t3 5.5q24 1 112 0t112 -1q248 0 398 4q8 0 7 -11q-4 -76 -7 -221
q0 -2 -4 -3.5t-9 -0.5t-6 4q-44 119 -86 161q-47 45 -107 45h-91q-11 0 -11 -8q0 -30 -1 -123.5t-2 -122.5q0 -3 5 -3q24 -1 54 0q45 0 75 51q14 22 24 74q1 3 10 3t9 -3q-3 -69 -3 -138q0 -82 3 -138q0 -3 -8 -3.5t-9 1.5q-17 67 -28 86q-24 41 -67 41h-60q-5 0 -5 -13
q0 -156 2 -254q0 -10 24 -10q30 -1 97 -1q54 0 99 47q53 51 93 187q1 2 10.5 1.5t9.5 -3.5q0 -152 -4 -251q0 -5 -8 -5q-310 2 -371 2q-43 0 -116 -1t-114 -1q-4 0 -4 11t4 11q16 -1 50 1t37 5q4 4 4 60q1 60 1 134q-19 0 -103.5 1.5t-103.5 2.5q-14 0 -17 -3q-1 -1 -20 -32
t-29 -49q-30 -50 -30 -76q0 -27 19 -36q13 -7 54 -9q4 0 3.5 -10.5t-3.5 -10.5q-10 0 -54 1t-64 1t-52.5 -0.5t-49.5 -0.5z" />
    <glyph glyph-name="Ccedilla" unicode="&#xc7;" horiz-adv-x="642" 
d="M312 -200q-52 0 -109 48q-1 1 1.5 6.5t6.5 9.5t6 2q43 -37 77 -37q22 0 35 13q16 18 16 52q0 30 -23 30q-13 0 -37 -11q-3 -1 -9.5 4.5t-4.5 7.5l46 66q-126 9 -206 90q-83 83 -83 207q0 133 87 220q106 108 243 108q43 0 80.5 -14t57.5 -27.5t21 -13.5q7 0 62 58
q2 2 9.5 1.5t7.5 -4.5q-7 -112 -4 -246q0 -3 -8.5 -3t-9.5 3q-58 133 -100 175q-45 43 -101 43q-73 0 -104 -63q-34 -68 -34 -230q0 -132 31 -193q35 -73 129 -73q77 0 126 51q52 50 68 135q3 5 18 -2q5 -2 4 -4q-18 -94 -76 -151q-66 -68 -187 -68h-6l-30 -46q20 6 48 6
q33 0 54.5 -15t21.5 -44q0 -26 -23 -51q-42 -40 -101 -40z" />
    <glyph glyph-name="Egrave" unicode="&#xc8;" horiz-adv-x="667" 
d="M407 647q-125 28 -175 48q-58 19 -58 58q0 21 14.5 36t38.5 15q34 0 66 -32q52 -54 75 -74q15 -14 46 -38q1 -2 -2 -7.5t-5 -5.5zM18 609q75 -3 303 -3q167 0 279 4q6 0 6 -9q-2 -38 -5 -120t-4 -105q0 -2 -4 -3t-9 0t-6 4q-41 112 -90 161q-28 28 -55.5 37.5t-83.5 9.5
q-60 0 -65 -2q-2 -4 -2 -109q0 -18 -0.5 -73.5t-0.5 -73.5q12 -1 37 -1q52 0 78 26q28 28 43 99q1 4 9.5 3.5t8.5 -4.5q-4 -183 2 -274q0 -4 -8 -4.5t-9 3.5q-23 83 -47 107q-19 19 -67 19q-35 0 -46 -1q-1 -29 -1 -107q0 -160 5 -164q4 -6 64 -6h45q59 0 104 44
q58 58 97 189q2 4 11.5 3t9.5 -5q-1 -43 -3 -128.5t-3 -120.5q0 -5 -6 -5q-192 1 -300 1q-202 0 -294 -2q-1 0 -2 5.5t0 11t3 5.5q72 1 75 6q7 5 7 190q0 36 -0.5 120.5t-0.5 136.5q0 103 -4 107q-5 5 -72 8q-1 0 -2 5t0 10t3 5z" />
    <glyph glyph-name="Eacute" unicode="&#xc9;" horiz-adv-x="667" 
d="M264 647q-1 0 -3 2.5t-3.5 6t-1.5 4.5q28 20 47 38q29 26 75 74q32 32 67 32q23 0 38 -15t15 -36q0 -38 -59 -58q-37 -15 -175 -48zM18 609q75 -3 303 -3q167 0 279 4q6 0 6 -9q-2 -38 -5 -120t-4 -105q0 -2 -4 -3t-9 0t-6 4q-41 112 -90 161q-28 28 -55.5 37.5
t-83.5 9.5q-60 0 -65 -2q-2 -4 -2 -109q0 -18 -0.5 -73.5t-0.5 -73.5q12 -1 37 -1q52 0 78 26q28 28 43 99q1 4 9.5 3.5t8.5 -4.5q-4 -183 2 -274q0 -4 -8 -4.5t-9 3.5q-23 83 -47 107q-19 19 -67 19q-35 0 -46 -1q-1 -29 -1 -107q0 -160 5 -164q4 -6 64 -6h45q59 0 104 44
q58 58 97 189q2 4 11.5 3t9.5 -5q-1 -43 -3 -128.5t-3 -120.5q0 -5 -6 -5q-192 1 -300 1q-202 0 -294 -2q-1 0 -2 5.5t0 11t3 5.5q72 1 75 6q7 5 7 190q0 36 -0.5 120.5t-0.5 136.5q0 103 -4 107q-5 5 -72 8q-1 0 -2 5t0 10t3 5z" />
    <glyph glyph-name="Ecircumflex" unicode="&#xca;" horiz-adv-x="667" 
d="M186 655q27 31 53 64.5t40 53t15 20.5q4 2 44 2t45 -3q2 -3 18 -25t38.5 -52t44.5 -55q1 -1 -1 -4.5t-6 -6t-6 -2.5q-67 36 -139 69q-79 -41 -134 -74q-2 -1 -8 5t-4 8zM18 609q75 -3 303 -3q167 0 279 4q6 0 6 -9q-2 -38 -5 -120t-4 -105q0 -2 -4 -3t-9 0t-6 4
q-41 112 -90 161q-28 28 -55.5 37.5t-83.5 9.5q-60 0 -65 -2q-2 -4 -2 -109q0 -18 -0.5 -73.5t-0.5 -73.5q12 -1 37 -1q52 0 78 26q28 28 43 99q1 4 9.5 3.5t8.5 -4.5q-4 -183 2 -274q0 -4 -8 -4.5t-9 3.5q-23 83 -47 107q-19 19 -67 19q-35 0 -46 -1q-1 -29 -1 -107
q0 -160 5 -164q4 -6 64 -6h45q59 0 104 44q58 58 97 189q2 4 11.5 3t9.5 -5q-1 -43 -3 -128.5t-3 -120.5q0 -5 -6 -5q-192 1 -300 1q-202 0 -294 -2q-1 0 -2 5.5t0 11t3 5.5q72 1 75 6q7 5 7 190q0 36 -0.5 120.5t-0.5 136.5q0 103 -4 107q-5 5 -72 8q-1 0 -2 5t0 10t3 5z
" />
    <glyph glyph-name="Edieresis" unicode="&#xcb;" horiz-adv-x="667" 
d="M354 723q0 29 20 51.5t51 22.5q33 0 53.5 -20.5t20.5 -49.5q0 -31 -20.5 -53t-52.5 -22q-33 0 -52.5 20.5t-19.5 50.5zM169 724q0 29 21 50t53 21q31 0 51.5 -20.5t20.5 -51.5q0 -29 -21 -50t-54 -21q-32 0 -51.5 21t-19.5 51zM18 609q75 -3 303 -3q167 0 279 4q6 0 6 -9
q-2 -38 -5 -120t-4 -105q0 -2 -4 -3t-9 0t-6 4q-41 112 -90 161q-28 28 -55.5 37.5t-83.5 9.5q-60 0 -65 -2q-2 -4 -2 -109q0 -18 -0.5 -73.5t-0.5 -73.5q12 -1 37 -1q52 0 78 26q28 28 43 99q1 4 9.5 3.5t8.5 -4.5q-4 -183 2 -274q0 -4 -8 -4.5t-9 3.5q-23 83 -47 107
q-19 19 -67 19q-35 0 -46 -1q-1 -29 -1 -107q0 -160 5 -164q4 -6 64 -6h45q59 0 104 44q58 58 97 189q2 4 11.5 3t9.5 -5q-1 -43 -3 -128.5t-3 -120.5q0 -5 -6 -5q-192 1 -300 1q-202 0 -294 -2q-1 0 -2 5.5t0 11t3 5.5q72 1 75 6q7 5 7 190q0 36 -0.5 120.5t-0.5 136.5
q0 103 -4 107q-5 5 -72 8q-1 0 -2 5t0 10t3 5z" />
    <glyph glyph-name="Igrave" unicode="&#xcc;" horiz-adv-x="378" 
d="M261 647q-125 28 -175 48q-58 19 -58 58q0 21 14.5 36t38.5 15q34 0 66 -32q52 -54 75 -74q15 -14 46 -38q1 -2 -2 -7.5t-5 -5.5zM22 608h166.5t165.5 -1q1 0 2 -5.5t0 -10.5t-3 -5q-58 0 -62 -4q-7 -7 -8 -103q-1 -54 -1 -205q0 -113 1 -168q0 -74 6 -78q4 -5 70 -6
q3 0 2.5 -10.5t-2.5 -11.5q-59 1 -172 1q-83 0 -169 -2q-3 0 -3 10.5t3 10.5q68 2 72 6q5 5 6 76q0 39 0.5 92.5t0.5 81.5q0 72 -2 206q0 93 -8 99q-5 5 -66 6q-1 0 -1.5 5.5t0 10.5t2.5 5z" />
    <glyph glyph-name="Iacute" unicode="&#xcd;" horiz-adv-x="378" 
d="M118 647q-1 0 -3 2.5t-3.5 6t-1.5 4.5q28 20 47 38q29 26 75 74q32 32 67 32q23 0 38 -15t15 -36q0 -38 -59 -58q-37 -15 -175 -48zM22 608h166.5t165.5 -1q1 0 2 -5.5t0 -10.5t-3 -5q-58 0 -62 -4q-7 -7 -8 -103q-1 -54 -1 -205q0 -113 1 -168q0 -74 6 -78q4 -5 70 -6
q3 0 2.5 -10.5t-2.5 -11.5q-59 1 -172 1q-83 0 -169 -2q-3 0 -3 10.5t3 10.5q68 2 72 6q5 5 6 76q0 39 0.5 92.5t0.5 81.5q0 72 -2 206q0 93 -8 99q-5 5 -66 6q-1 0 -1.5 5.5t0 10.5t2.5 5z" />
    <glyph glyph-name="Icircumflex" unicode="&#xce;" horiz-adv-x="378" 
d="M40 655q27 31 53 64.5t40 53t15 20.5q4 2 44 2t45 -3q2 -3 18 -25t38.5 -52t44.5 -55q1 -1 -1 -4.5t-6 -6t-6 -2.5q-67 36 -139 69q-79 -41 -134 -74q-2 -1 -8 5t-4 8zM22 608h166.5t165.5 -1q1 0 2 -5.5t0 -10.5t-3 -5q-58 0 -62 -4q-7 -7 -8 -103q-1 -54 -1 -205
q0 -113 1 -168q0 -74 6 -78q4 -5 70 -6q3 0 2.5 -10.5t-2.5 -11.5q-59 1 -172 1q-83 0 -169 -2q-3 0 -3 10.5t3 10.5q68 2 72 6q5 5 6 76q0 39 0.5 92.5t0.5 81.5q0 72 -2 206q0 93 -8 99q-5 5 -66 6q-1 0 -1.5 5.5t0 10.5t2.5 5z" />
    <glyph glyph-name="Idieresis" unicode="&#xcf;" horiz-adv-x="378" 
d="M208 723q0 29 20 51.5t51 22.5q33 0 53.5 -20.5t20.5 -49.5q0 -31 -20.5 -53t-52.5 -22q-33 0 -52.5 20.5t-19.5 50.5zM23 724q0 29 21 50t53 21q31 0 51.5 -20.5t20.5 -51.5q0 -29 -21 -50t-54 -21q-32 0 -51.5 21t-19.5 51zM22 608h166.5t165.5 -1q1 0 2 -5.5t0 -10.5
t-3 -5q-58 0 -62 -4q-7 -7 -8 -103q-1 -54 -1 -205q0 -113 1 -168q0 -74 6 -78q4 -5 70 -6q3 0 2.5 -10.5t-2.5 -11.5q-59 1 -172 1q-83 0 -169 -2q-3 0 -3 10.5t3 10.5q68 2 72 6q5 5 6 76q0 39 0.5 92.5t0.5 81.5q0 72 -2 206q0 93 -8 99q-5 5 -66 6q-1 0 -1.5 5.5t0 10.5
t2.5 5z" />
    <glyph glyph-name="Eth" unicode="&#xd0;" horiz-adv-x="745" 
d="M351 -1q-28 0 -104.5 1t-100.5 1q-66 0 -122 -2q-2 0 -3 5.5t-0.5 11t2.5 5.5q69 2 73 6q5 5 6 65q1 30 1 168v47h-75q-2 0 -3 5.5t-0.5 11.5t2.5 6q47 0 76 1v172q0 75 -6 79q-4 4 -72 5q-2 0 -2 10.5t2 10.5q56 -1 158 -1q31 0 94 1t87 1q183 0 279 -96q72 -72 72 -184
q0 -132 -92 -226q-106 -104 -272 -104zM350 22q97 0 135 76q26 53 26 200q0 159 -31 224q-17 33 -47 48t-84 15q-50 0 -53 -3t-3 -28q-1 -20 -1 -222h103q2 0 3 -6t0.5 -11.5t-1.5 -5.5q-62 0 -105 -1v-12q0 -142 1 -216q0 -50 4 -54t53 -4z" />
    <glyph glyph-name="Ntilde" unicode="&#xd1;" horiz-adv-x="683" 
d="M192 655q-6 46 19.5 86t77.5 40q28 0 82.5 -17t84.5 -17q16 0 26.5 10t20.5 35q2 3 16 -3q3 -1 2 -2q-5 -28 -9.5 -46t-14 -39t-26 -31.5t-40.5 -10.5q-37 0 -97 19t-89 19q-16 0 -23.5 -9.5t-11.5 -35.5q0 -1 -4.5 -1t-9 1t-4.5 2zM471 610q9 0 33.5 -1.5t46.5 -2
t38 -0.5q36 0 78 3q3 0 3.5 -9t-1.5 -10q-41 -7 -53 -19q-12 -13 -17 -46.5t-5 -122.5q0 -44 -1 -114t-1 -104q0 -36 1 -98t1 -90q0 -5 -61 -5q-36 0 -38 2q-176 265 -370 527h-2q0 -53 0.5 -111.5t1.5 -131t1 -116.5q1 -102 21 -124q12 -12 78 -20q1 0 1.5 -5t-0.5 -10
t-3 -5q-42 3 -112 3q-28 0 -100 -2q-3 0 -3 9.5t2 10.5q47 5 64 20q24 26 24 148q0 43 -1.5 160.5t-0.5 193.5q0 12 -19 31q-13 14 -70 17q-2 1 -2 11t3 10q70 -2 116 -2q33 0 161 4q8 -1 27 -28q58 -85 251 -358h2q0 24 0.5 82t0.5 86q0 153 -24 177q-14 14 -72 21
q-3 1 -2 10t3 9z" />
    <glyph glyph-name="Ograve" unicode="&#xd2;" horiz-adv-x="735" 
d="M448 654q-125 28 -175 48q-58 19 -58 58q0 21 14.5 36t38.5 15q34 0 66 -32q52 -54 75 -74q15 -14 46 -38q1 -2 -2 -7.5t-5 -5.5zM357 -12q-69 0 -135.5 29.5t-109.5 72.5q-85 85 -85 213q0 117 93 210q105 105 263 105q144 0 243 -99q82 -82 82 -201q0 -132 -100 -230
q-100 -100 -251 -100zM266 535q-31 -64 -31 -254q0 -155 27 -211q29 -59 101 -59q75 0 106 63q32 64 32 232q0 184 -28 240q-24 50 -100 50q-75 0 -107 -61z" />
    <glyph glyph-name="Oacute" unicode="&#xd3;" horiz-adv-x="735" 
d="M304 654q-1 0 -3 2.5t-3.5 6t-1.5 4.5q28 20 47 38q29 26 75 74q32 32 67 32q23 0 38 -15t15 -36q0 -38 -59 -58q-37 -15 -175 -48zM357 -12q-69 0 -135.5 29.5t-109.5 72.5q-85 85 -85 213q0 117 93 210q105 105 263 105q144 0 243 -99q82 -82 82 -201q0 -132 -100 -230
q-100 -100 -251 -100zM266 535q-31 -64 -31 -254q0 -155 27 -211q29 -59 101 -59q75 0 106 63q32 64 32 232q0 184 -28 240q-24 50 -100 50q-75 0 -107 -61z" />
    <glyph glyph-name="Ocircumflex" unicode="&#xd4;" horiz-adv-x="735" 
d="M226 662q27 31 53 64.5t40 53t15 20.5q4 2 44 2t45 -3q2 -3 18 -25t38.5 -52t44.5 -55q1 -1 -1 -4.5t-6 -6t-6 -2.5q-67 36 -139 69q-79 -41 -134 -74q-2 -1 -8 5t-4 8zM357 -12q-69 0 -135.5 29.5t-109.5 72.5q-85 85 -85 213q0 117 93 210q105 105 263 105
q144 0 243 -99q82 -82 82 -201q0 -132 -100 -230q-100 -100 -251 -100zM266 535q-31 -64 -31 -254q0 -155 27 -211q29 -59 101 -59q75 0 106 63q32 64 32 232q0 184 -28 240q-24 50 -100 50q-75 0 -107 -61z" />
    <glyph glyph-name="Otilde" unicode="&#xd5;" horiz-adv-x="735" 
d="M214 663q-6 46 19.5 86t77.5 40q28 0 82.5 -17t84.5 -17q16 0 26.5 10t20.5 35q2 3 16 -3q3 -1 2 -2q-5 -28 -9.5 -46t-14 -39t-26 -31.5t-40.5 -10.5q-37 0 -97 19t-89 19q-16 0 -23.5 -9.5t-11.5 -35.5q0 -1 -4.5 -1t-9 1t-4.5 2zM357 -12q-69 0 -135.5 29.5
t-109.5 72.5q-85 85 -85 213q0 117 93 210q105 105 263 105q144 0 243 -99q82 -82 82 -201q0 -132 -100 -230q-100 -100 -251 -100zM266 535q-31 -64 -31 -254q0 -155 27 -211q29 -59 101 -59q75 0 106 63q32 64 32 232q0 184 -28 240q-24 50 -100 50q-75 0 -107 -61z" />
    <glyph glyph-name="Odieresis" unicode="&#xd6;" horiz-adv-x="735" 
d="M395 730q0 29 20 51.5t51 22.5q33 0 53.5 -20.5t20.5 -49.5q0 -31 -20.5 -53t-52.5 -22q-33 0 -52.5 20.5t-19.5 50.5zM210 731q0 29 21 50t53 21q31 0 51.5 -20.5t20.5 -51.5q0 -29 -21 -50t-54 -21q-32 0 -51.5 21t-19.5 51zM357 -12q-69 0 -135.5 29.5t-109.5 72.5
q-85 85 -85 213q0 117 93 210q105 105 263 105q144 0 243 -99q82 -82 82 -201q0 -132 -100 -230q-100 -100 -251 -100zM266 535q-31 -64 -31 -254q0 -155 27 -211q29 -59 101 -59q75 0 106 63q32 64 32 232q0 184 -28 240q-24 50 -100 50q-75 0 -107 -61z" />
    <glyph glyph-name="multiply" unicode="&#xd7;" horiz-adv-x="507" 
d="M437 157q3 -4 -6.5 -13t-13.5 -5l-53 53t-69.5 70t-42.5 43q-40 -36 -166 -166q-4 -3 -12.5 4t-5.5 13q148 148 164 165q2 2 0 4q-134 134 -165 164q-1 2 3.5 7.5t9 9.5t5.5 3q17 -16 79 -78.5t88 -88.5q65 62 168 167q2 1 7 -3t8.5 -9.5t1.5 -6.5q-108 -105 -166 -163
q-2 -2 0 -4z" />
    <glyph glyph-name="Oslash" unicode="&#xd8;" horiz-adv-x="735" 
d="M235 281q0 -70 5 -122q28 35 124.5 160.5t127.5 163.5q-7 41 -19 63q-24 50 -100 50q-75 0 -107 -61q-31 -64 -31 -254zM363 11q75 0 106 63q32 64 32 232q0 84 -5 142q-244 -314 -251 -323q6 -32 17 -55q29 -59 101 -59zM91 -22q-2 -2 -12 5t-8 11q12 14 33.5 39
t30.5 36q-16 14 -23 21q-85 85 -85 213q0 117 93 210q105 105 263 105q110 0 199 -63q8 10 27.5 34t30.5 37q1 1 6.5 -2t10 -7.5t3.5 -5.5q-19 -23 -57 -71q16 -14 22 -20q83 -83 83 -202q0 -132 -100 -230q-100 -100 -251 -100q-107 0 -202 67q-8 -10 -29.5 -36t-34.5 -41z
" />
    <glyph glyph-name="Ugrave" unicode="&#xd9;" horiz-adv-x="699" 
d="M446 646q-125 28 -175 48q-58 19 -58 58q0 21 14.5 36t38.5 15q34 0 66 -32q52 -54 75 -74q15 -14 46 -38q1 -2 -2 -7.5t-5 -5.5zM15 609q53 -1 164 -1t170 -1q3 0 3 -10t-3 -10q-64 -1 -68 -5q-9 -9 -9 -209q0 -30 0.5 -91t0.5 -92q0 -86 33 -119q38 -38 115 -38
q71 0 114 44t44 124q2 166 2 229q0 114 -25 141q-14 14 -76 19q-2 0 -2 10t2 10q119 -5 209 -2q3 0 3 -9t-2 -11q-39 -5 -52 -18q-26 -24 -27 -120q-3 -192 -3 -249q0 -99 -62 -155.5t-180 -56.5q-156 0 -227 69q-28 28 -40.5 63t-12.5 93t1.5 170.5t1.5 144.5q0 49 -5 54
q-4 4 -70 6q-1 0 -2 5t0 10t3 5z" />
    <glyph glyph-name="Uacute" unicode="&#xda;" horiz-adv-x="699" 
d="M302 646q-1 0 -3 2.5t-3.5 6t-1.5 4.5q28 20 47 38q29 26 75 74q32 32 67 32q23 0 38 -15t15 -36q0 -38 -59 -58q-37 -15 -175 -48zM15 609q53 -1 164 -1t170 -1q3 0 3 -10t-3 -10q-64 -1 -68 -5q-9 -9 -9 -209q0 -30 0.5 -91t0.5 -92q0 -86 33 -119q38 -38 115 -38
q71 0 114 44t44 124q2 166 2 229q0 114 -25 141q-14 14 -76 19q-2 0 -2 10t2 10q119 -5 209 -2q3 0 3 -9t-2 -11q-39 -5 -52 -18q-26 -24 -27 -120q-3 -192 -3 -249q0 -99 -62 -155.5t-180 -56.5q-156 0 -227 69q-28 28 -40.5 63t-12.5 93t1.5 170.5t1.5 144.5q0 49 -5 54
q-4 4 -70 6q-1 0 -2 5t0 10t3 5z" />
    <glyph glyph-name="Ucircumflex" unicode="&#xdb;" horiz-adv-x="699" 
d="M224 654q27 31 53 64.5t40 53t15 20.5q4 2 44 2t45 -3q2 -3 18 -25t38.5 -52t44.5 -55q1 -1 -1 -4.5t-6 -6t-6 -2.5q-67 36 -139 69q-79 -41 -134 -74q-2 -1 -8 5t-4 8zM15 609q53 -1 164 -1t170 -1q3 0 3 -10t-3 -10q-64 -1 -68 -5q-9 -9 -9 -209q0 -30 0.5 -91t0.5 -92
q0 -86 33 -119q38 -38 115 -38q71 0 114 44t44 124q2 166 2 229q0 114 -25 141q-14 14 -76 19q-2 0 -2 10t2 10q119 -5 209 -2q3 0 3 -9t-2 -11q-39 -5 -52 -18q-26 -24 -27 -120q-3 -192 -3 -249q0 -99 -62 -155.5t-180 -56.5q-156 0 -227 69q-28 28 -40.5 63t-12.5 93
t1.5 170.5t1.5 144.5q0 49 -5 54q-4 4 -70 6q-1 0 -2 5t0 10t3 5z" />
    <glyph glyph-name="Udieresis" unicode="&#xdc;" horiz-adv-x="699" 
d="M392 722q0 29 20 51.5t51 22.5q33 0 53.5 -20.5t20.5 -49.5q0 -31 -20.5 -53t-52.5 -22q-33 0 -52.5 20.5t-19.5 50.5zM207 723q0 29 21 50t53 21q31 0 51.5 -20.5t20.5 -51.5q0 -29 -21 -50t-54 -21q-32 0 -51.5 21t-19.5 51zM15 609q53 -1 164 -1t170 -1q3 0 3 -10
t-3 -10q-64 -1 -68 -5q-9 -9 -9 -209q0 -30 0.5 -91t0.5 -92q0 -86 33 -119q38 -38 115 -38q71 0 114 44t44 124q2 166 2 229q0 114 -25 141q-14 14 -76 19q-2 0 -2 10t2 10q119 -5 209 -2q3 0 3 -9t-2 -11q-39 -5 -52 -18q-26 -24 -27 -120q-3 -192 -3 -249
q0 -99 -62 -155.5t-180 -56.5q-156 0 -227 69q-28 28 -40.5 63t-12.5 93t1.5 170.5t1.5 144.5q0 49 -5 54q-4 4 -70 6q-1 0 -2 5t0 10t3 5z" />
    <glyph glyph-name="Yacute" unicode="&#xdd;" horiz-adv-x="678" 
d="M284 646q-1 0 -3 2.5t-3.5 6t-1.5 4.5q28 20 47 38q29 26 75 74q32 32 67 32q23 0 38 -15t15 -36q0 -38 -59 -58q-37 -15 -175 -48zM-3 608q168 -2 333 1q2 0 2 -10.5t-2 -10.5q-56 -3 -59 -8q-6 -6 6 -28q59 -113 139 -251h2q85 141 101 169q27 52 27 78q0 20 -15 29.5
t-55 13.5q-2 0 -2.5 4.5t1 9.5t2.5 5q13 0 55.5 -1t57.5 -2q45 0 91 1q2 0 2.5 -9t-1.5 -10q-29 -4 -40 -10q-41 -21 -101 -121q-7 -12 -38 -62t-60 -99q-12 -20 -13 -50q-1 -51 -1 -126q0 -86 8 -92q4 -6 82 -10q2 0 2 -10.5t-2 -10.5q-90 2 -186 2q-30 0 -93 -0.5
t-89 -0.5q-2 0 -2.5 5.5t0 10.5t1.5 5q79 2 86 9t7 46q0 33 1 89t1 68q0 22 -11 42q-89 154 -143 244q-25 42 -38 56q-11 11 -57 12q-1 0 -1.5 5.5t0.5 11t2 5.5z" />
    <glyph glyph-name="Thorn" unicode="&#xde;" horiz-adv-x="658" 
d="M281 167q0 -6 42 -6q77 0 102 50q17 33 17 105t-16 104q-22 43 -93 43h-35q-17 0 -17 -8q-3 -87 0 -288zM12 -2q-2 0 -2.5 5.5t0.5 11t3 5.5q69 2 75 8q7 7 7 225q0 69 -2 279q0 44 -5 49q-2 2 -13.5 3.5t-31 2t-26.5 1.5q-1 0 -2 5t0 10.5t3 5.5q26 0 85.5 -0.5
t89.5 -0.5q27 0 87 -0.5t86 -0.5q1 0 1.5 -5.5t-0.5 -10.5t-2 -5q-71 0 -77 -5q-6 -7 -6 -97h65q185 0 255 -70q35 -33 35 -87q0 -65 -44 -109q-80 -80 -246 -80q-10 0 -67 3q-1 -6 -1 -39q0 -69 5 -74q3 -3 89 -5q2 0 2.5 -5.5t-0.5 -11t-3 -5.5q-18 0 -80.5 -0.5
t-100.5 -0.5q-122 0 -179 -2z" />
    <glyph glyph-name="germandbls" unicode="&#xdf;" horiz-adv-x="604" 
d="M80 50q0 233 -3 347q0 5 -2 5h-63q-3 0 -2.5 11.5t2.5 11.5h62q3 0 3 11q0 103 59 162q63 63 174 63q49 0 101.5 -16t81.5 -45t29 -62q0 -37 -31 -68q-54 -55 -175 -66v-2q139 -34 203 -84.5t64 -124.5q0 -85 -53 -138q-59 -59 -140 -59q-59 0 -95 34q-28 28 -28 66
q0 28 17.5 48t45.5 20q24 0 39.5 -15.5t15.5 -40.5t-14.5 -39.5t-29.5 -20t-15 -9.5q0 -3 6.5 -8t19 -9.5t25.5 -4.5q30 0 42 25q15 30 15 113q0 74 -11 112.5t-41 68.5t-101 57q-2 1 -1.5 10t2.5 10q29 9 48 28q23 23 23 97q0 69 -19 88q-13 13 -36 13q-35 0 -53 -33
q-13 -27 -13 -111q0 -319 1 -491q0 -5 -6 -5q-22 0 -51.5 0.5t-50.5 0.5h-113q-1 0 -2 5t0 10t3 5q31 1 56 1q11 2 11 29z" />
    <glyph glyph-name="agrave" unicode="&#xe0;" horiz-adv-x="535" 
d="M231 616q6 -6 27.5 -32.5t36.5 -41.5q16 -18 49 -48q2 -3 -2 -8.5t-6 -4.5q-101 32 -168 62q-56 23 -56 62q0 21 15 35t39 14q33 0 65 -38zM301 226q-72 -8 -93.5 -29t-21.5 -80q0 -42 9.5 -59.5t30.5 -17.5q19 0 38 14.5t27 31.5t9 50q1 26 1 90zM216 416
q-16 0 -28.5 -3.5t-18 -7.5t-5.5 -7t13 -9t25.5 -21t12.5 -40q0 -31 -22 -50t-55 -19q-34 0 -55.5 19t-21.5 51q0 34 26 60q51 49 158 49q116 0 168 -52q43 -43 43 -135q0 -18 -1.5 -84t-1.5 -107q0 -28 20 -28q31 0 42 81q1 3 10 1.5t9 -5.5q-6 -59 -32 -88.5t-83 -29.5
q-96 0 -122 74q-52 -75 -134 -75q-54 0 -93 31.5t-39 79.5q0 44 31 75q26 26 78.5 42.5t160.5 27.5q1 14 1 80q0 49 -20 68q-20 22 -66 22z" />
    <glyph glyph-name="aacute" unicode="&#xe1;" horiz-adv-x="535" 
d="M201 481q-2 -1 -6 5t-2 8q20 18 44 41q24 25 71 83q31 36 65 36q24 0 39 -14t15 -35q0 -39 -55 -61q-43 -21 -171 -63zM301 226q-72 -8 -93.5 -29t-21.5 -80q0 -42 9.5 -59.5t30.5 -17.5q19 0 38 14.5t27 31.5t9 50q1 26 1 90zM216 416q-16 0 -28.5 -3.5t-18 -7.5
t-5.5 -7t13 -9t25.5 -21t12.5 -40q0 -31 -22 -50t-55 -19q-34 0 -55.5 19t-21.5 51q0 34 26 60q51 49 158 49q116 0 168 -52q43 -43 43 -135q0 -18 -1.5 -84t-1.5 -107q0 -28 20 -28q31 0 42 81q1 3 10 1.5t9 -5.5q-6 -59 -32 -88.5t-83 -29.5q-96 0 -122 74
q-52 -75 -134 -75q-54 0 -93 31.5t-39 79.5q0 44 31 75q26 26 78.5 42.5t160.5 27.5q1 14 1 80q0 49 -20 68q-20 22 -66 22z" />
    <glyph glyph-name="acircumflex" unicode="&#xe2;" horiz-adv-x="535" 
d="M112 493q27 34 53 72t39.5 59t14.5 22q5 2 44 2t44 -3q1 -1 15.5 -23.5t38.5 -58.5t46 -64q2 -2 -3 -8.5t-9 -5.5q-72 44 -138 78q-73 -42 -133 -83q-2 -1 -7.5 5t-4.5 8zM301 226q-72 -8 -93.5 -29t-21.5 -80q0 -42 9.5 -59.5t30.5 -17.5q19 0 38 14.5t27 31.5t9 50
q1 26 1 90zM216 416q-16 0 -28.5 -3.5t-18 -7.5t-5.5 -7t13 -9t25.5 -21t12.5 -40q0 -31 -22 -50t-55 -19q-34 0 -55.5 19t-21.5 51q0 34 26 60q51 49 158 49q116 0 168 -52q43 -43 43 -135q0 -18 -1.5 -84t-1.5 -107q0 -28 20 -28q31 0 42 81q1 3 10 1.5t9 -5.5
q-6 -59 -32 -88.5t-83 -29.5q-96 0 -122 74q-52 -75 -134 -75q-54 0 -93 31.5t-39 79.5q0 44 31 75q26 26 78.5 42.5t160.5 27.5q1 14 1 80q0 49 -20 68q-20 22 -66 22z" />
    <glyph glyph-name="atilde" unicode="&#xe3;" horiz-adv-x="535" 
d="M105 496q-6 50 19.5 92t77.5 42q28 0 80.5 -18.5t82.5 -18.5t47 50q1 1 6 0t9 -3t3 -3q-4 -23 -7 -38t-10 -35t-15.5 -32t-23 -20.5t-33.5 -8.5q-38 0 -96 21t-88 21q-15 0 -22.5 -11t-11.5 -40q0 -1 -4.5 -1.5t-9 1t-4.5 2.5zM301 226q-72 -8 -93.5 -29t-21.5 -80
q0 -42 9.5 -59.5t30.5 -17.5q19 0 38 14.5t27 31.5t9 50q1 26 1 90zM216 416q-16 0 -28.5 -3.5t-18 -7.5t-5.5 -7t13 -9t25.5 -21t12.5 -40q0 -31 -22 -50t-55 -19q-34 0 -55.5 19t-21.5 51q0 34 26 60q51 49 158 49q116 0 168 -52q43 -43 43 -135q0 -18 -1.5 -84t-1.5 -107
q0 -28 20 -28q31 0 42 81q1 3 10 1.5t9 -5.5q-6 -59 -32 -88.5t-83 -29.5q-96 0 -122 74q-52 -75 -134 -75q-54 0 -93 31.5t-39 79.5q0 44 31 75q26 26 78.5 42.5t160.5 27.5q1 14 1 80q0 49 -20 68q-20 22 -66 22z" />
    <glyph glyph-name="adieresis" unicode="&#xe4;" horiz-adv-x="535" 
d="M280 565q0 31 19 54.5t50 23.5q32 0 52.5 -21.5t20.5 -52.5q0 -33 -20 -56t-52 -23q-33 0 -51.5 21.5t-18.5 53.5zM95 566q0 30 21 52.5t53 22.5q31 0 50.5 -21.5t19.5 -54.5q0 -31 -20.5 -53.5t-52.5 -22.5t-51.5 23t-19.5 54zM301 226q-72 -8 -93.5 -29t-21.5 -80
q0 -42 9.5 -59.5t30.5 -17.5q19 0 38 14.5t27 31.5t9 50q1 26 1 90zM216 416q-16 0 -28.5 -3.5t-18 -7.5t-5.5 -7t13 -9t25.5 -21t12.5 -40q0 -31 -22 -50t-55 -19q-34 0 -55.5 19t-21.5 51q0 34 26 60q51 49 158 49q116 0 168 -52q43 -43 43 -135q0 -18 -1.5 -84t-1.5 -107
q0 -28 20 -28q31 0 42 81q1 3 10 1.5t9 -5.5q-6 -59 -32 -88.5t-83 -29.5q-96 0 -122 74q-52 -75 -134 -75q-54 0 -93 31.5t-39 79.5q0 44 31 75q26 26 78.5 42.5t160.5 27.5q1 14 1 80q0 49 -20 68q-20 22 -66 22z" />
    <glyph glyph-name="aring" unicode="&#xe5;" horiz-adv-x="535" 
d="M258 655q42 0 69 -25t27 -64q0 -37 -26.5 -60t-69.5 -23q-40 0 -66.5 25t-26.5 59q0 36 26.5 62t66.5 26zM258 633q-31 0 -50.5 -19.5t-19.5 -46.5q0 -25 20 -44t50 -19q33 0 53 17.5t20 44.5q0 28 -20 47.5t-53 19.5zM301 226q-72 -8 -93.5 -29t-21.5 -80
q0 -42 9.5 -59.5t30.5 -17.5q19 0 38 14.5t27 31.5t9 50q1 26 1 90zM216 416q-16 0 -28.5 -3.5t-18 -7.5t-5.5 -7t13 -9t25.5 -21t12.5 -40q0 -31 -22 -50t-55 -19q-34 0 -55.5 19t-21.5 51q0 34 26 60q51 49 158 49q116 0 168 -52q43 -43 43 -135q0 -18 -1.5 -84t-1.5 -107
q0 -28 20 -28q31 0 42 81q1 3 10 1.5t9 -5.5q-6 -59 -32 -88.5t-83 -29.5q-96 0 -122 74q-52 -75 -134 -75q-54 0 -93 31.5t-39 79.5q0 44 31 75q26 26 78.5 42.5t160.5 27.5q1 14 1 80q0 49 -20 68q-20 22 -66 22z" />
    <glyph glyph-name="ae" unicode="&#xe6;" horiz-adv-x="781" 
d="M458 208q0 -92 20 -132q28 -57 104 -57q59 0 102 43q27 27 44 69q2 2 6.5 1t9 -4.5t4.5 -5.5q-14 -42 -47 -76q-58 -58 -148 -58q-73 0 -131 26.5t-90 69.5q-2 4 -6 0q-70 -94 -161 -94q-62 0 -101 39q-30 30 -30 69q0 48 32 80q47 47 236 69q2 29 2 74q0 41 -10 62
q-17 33 -75 33q-19 0 -32 -3.5t-17.5 -7t-4.5 -5.5t13 -9t26 -22.5t13 -37.5q0 -30 -23 -50t-59 -20q-32 0 -52 19t-20 50q0 33 26 59q49 49 154 49q106 0 150 -50q3 -2 5 0q55 53 146 53t151 -60q57 -57 59 -163q0 -6 -9 -8q-153 0 -287 -2zM534 420q-37 0 -54 -34
q-17 -36 -22 -150q0 -4 3 -4q19 0 69.5 1t70.5 1q3 0 3 7q-2 114 -18 147q-15 32 -52 32zM188 114q0 -39 8 -56q8 -18 30 -18q24 0 49 21t42 47q1 1 1 5q-18 49 -16 111q0 3 -4 3q-73 -12 -91 -30q-19 -20 -19 -83z" />
    <glyph glyph-name="ccedilla" unicode="&#xe7;" horiz-adv-x="495" 
d="M243 -200q-52 0 -109 48q-1 1 1.5 6.5t6.5 9.5t6 2q43 -37 77 -37q22 0 35 13q16 18 16 52q0 30 -23 30q-13 0 -37 -11q-3 -1 -9.5 4.5t-4.5 7.5l44 64q-97 9 -160 72q-62 62 -62 149t66 154q78 78 195 78q83 0 133 -37t50 -91q0 -38 -22.5 -61t-54.5 -23q-30 0 -51 19.5
t-21 46.5q0 29 17 46q14 14 40 18t27 5q5 5 -5.5 17t-36.5 23t-56 11q-59 0 -83 -47q-23 -47 -23 -151q0 -110 18 -147q25 -48 88 -48q43 0 81 28.5t61 88.5q2 4 12.5 -0.5t8.5 -9.5q-26 -68 -76 -105t-120 -37l-29 -44q19 6 48 6q33 0 54.5 -15t21.5 -44q0 -26 -23 -51
q-42 -40 -101 -40z" />
    <glyph glyph-name="egrave" unicode="&#xe8;" horiz-adv-x="514" 
d="M240 616q6 -6 27.5 -32.5t36.5 -41.5q16 -18 49 -48q2 -3 -2 -8.5t-6 -4.5q-101 32 -168 62q-56 23 -56 62q0 21 15 35t39 14q33 0 65 -38zM465 132q4 3 12.5 -1.5t7.5 -8.5q-26 -67 -79 -101t-119 -34q-61 0 -115 21t-89 56q-59 59 -59 147q0 86 64 150q80 80 185 80
q95 0 160 -63q58 -58 59 -159q0 -8 -6 -8q-235 0 -295 -3q1 -95 22 -135q26 -54 102 -54q99 0 150 113zM266 420q-36 0 -51 -31q-19 -36 -23 -157l146 2q-2 104 -18 145t-54 41z" />
    <glyph glyph-name="eacute" unicode="&#xe9;" horiz-adv-x="514" 
d="M211 481q-2 -1 -6 5t-2 8q20 18 44 41q24 25 71 83q31 36 65 36q24 0 39 -14t15 -35q0 -39 -55 -61q-43 -21 -171 -63zM465 132q4 3 12.5 -1.5t7.5 -8.5q-26 -67 -79 -101t-119 -34q-61 0 -115 21t-89 56q-59 59 -59 147q0 86 64 150q80 80 185 80q95 0 160 -63
q58 -58 59 -159q0 -8 -6 -8q-235 0 -295 -3q1 -95 22 -135q26 -54 102 -54q99 0 150 113zM266 420q-36 0 -51 -31q-19 -36 -23 -157l146 2q-2 104 -18 145t-54 41z" />
    <glyph glyph-name="ecircumflex" unicode="&#xea;" horiz-adv-x="514" 
d="M121 493q27 34 53 72t39.5 59t14.5 22q5 2 44 2t44 -3q1 -1 15.5 -23.5t38.5 -58.5t46 -64q2 -2 -3 -8.5t-9 -5.5q-72 44 -138 78q-73 -42 -133 -83q-2 -1 -7.5 5t-4.5 8zM465 132q4 3 12.5 -1.5t7.5 -8.5q-26 -67 -79 -101t-119 -34q-61 0 -115 21t-89 56
q-59 59 -59 147q0 86 64 150q80 80 185 80q95 0 160 -63q58 -58 59 -159q0 -8 -6 -8q-235 0 -295 -3q1 -95 22 -135q26 -54 102 -54q99 0 150 113zM266 420q-36 0 -51 -31q-19 -36 -23 -157l146 2q-2 104 -18 145t-54 41z" />
    <glyph glyph-name="edieresis" unicode="&#xeb;" horiz-adv-x="514" 
d="M290 565q0 31 19 54.5t50 23.5q32 0 52.5 -21.5t20.5 -52.5q0 -33 -20 -56t-52 -23q-33 0 -51.5 21.5t-18.5 53.5zM105 566q0 30 21 52.5t53 22.5q31 0 50.5 -21.5t19.5 -54.5q0 -31 -20.5 -53.5t-52.5 -22.5t-51.5 23t-19.5 54zM465 132q4 3 12.5 -1.5t7.5 -8.5
q-26 -67 -79 -101t-119 -34q-61 0 -115 21t-89 56q-59 59 -59 147q0 86 64 150q80 80 185 80q95 0 160 -63q58 -58 59 -159q0 -8 -6 -8q-235 0 -295 -3q1 -95 22 -135q26 -54 102 -54q99 0 150 113zM266 420q-36 0 -51 -31q-19 -36 -23 -157l146 2q-2 104 -18 145t-54 41z
" />
    <glyph glyph-name="igrave" unicode="&#xec;" horiz-adv-x="311" 
d="M122 613q6 -6 27.5 -32.5t36.5 -41.5q16 -18 49 -48q2 -3 -2 -8.5t-6 -4.5q-101 32 -168 62q-56 23 -56 62q0 21 15 35t39 14q33 0 65 -38zM302 -1q-11 0 -145.5 0.5t-141.5 0.5q-2 0 -2 10t2 10q60 1 63 5q4 4 5 41q1 31 1 93q0 45 -4 213q0 24 -5 29q-4 4 -63 5
q-2 0 -2 10t2 10q62 1 214 1q11 0 11 -10v-280q0 -106 8 -112q4 -5 56 -6q2 0 3 -5t0.5 -10t-2.5 -5z" />
    <glyph glyph-name="iacute" unicode="&#xed;" horiz-adv-x="311" 
d="M92 478q-2 -1 -6 5t-2 8q20 18 44 41q24 25 71 83q31 36 65 36q24 0 39 -14t15 -35q0 -39 -55 -61q-43 -21 -171 -63zM302 -1q-11 0 -145.5 0.5t-141.5 0.5q-2 0 -2 10t2 10q60 1 63 5q4 4 5 41q1 31 1 93q0 45 -4 213q0 24 -5 29q-4 4 -63 5q-2 0 -2 10t2 10q62 1 214 1
q11 0 11 -10v-280q0 -106 8 -112q4 -5 56 -6q2 0 3 -5t0.5 -10t-2.5 -5z" />
    <glyph glyph-name="icircumflex" unicode="&#xee;" horiz-adv-x="311" 
d="M3 490q27 34 53 72t39.5 59t14.5 22q5 2 44 2t44 -3q1 -1 15.5 -23.5t38.5 -58.5t46 -64q2 -2 -3 -8.5t-9 -5.5q-72 44 -138 78q-73 -42 -133 -83q-2 -1 -7.5 5t-4.5 8zM302 -1q-11 0 -145.5 0.5t-141.5 0.5q-2 0 -2 10t2 10q60 1 63 5q4 4 5 41q1 31 1 93q0 45 -4 213
q0 24 -5 29q-4 4 -63 5q-2 0 -2 10t2 10q62 1 214 1q11 0 11 -10v-280q0 -106 8 -112q4 -5 56 -6q2 0 3 -5t0.5 -10t-2.5 -5z" />
    <glyph glyph-name="idieresis" unicode="&#xef;" horiz-adv-x="311" 
d="M171 562q0 31 19 54.5t50 23.5q32 0 52.5 -21.5t20.5 -52.5q0 -33 -20 -56t-52 -23q-33 0 -51.5 21.5t-18.5 53.5zM-14 563q0 30 21 52.5t53 22.5q31 0 50.5 -21.5t19.5 -54.5q0 -31 -20.5 -53.5t-52.5 -22.5t-51.5 23t-19.5 54zM302 -1q-11 0 -145.5 0.5t-141.5 0.5
q-2 0 -2 10t2 10q60 1 63 5q4 4 5 41q1 31 1 93q0 45 -4 213q0 24 -5 29q-4 4 -63 5q-2 0 -2 10t2 10q62 1 214 1q11 0 11 -10v-280q0 -106 8 -112q4 -5 56 -6q2 0 3 -5t0.5 -10t-2.5 -5z" />
    <glyph glyph-name="eth" unicode="&#xf0;" horiz-adv-x="556" 
d="M274 -12q-57 0 -108.5 21.5t-84.5 55.5q-57 57 -57 142q0 87 67 154q33 33 81 53t95 20q49 0 77 -31l2 2q-5 63 -28 107q-13 26 -31 44q-19 -10 -64.5 -34.5t-66.5 -35.5q-4 -1 -9 8.5t-3 11.5q16 9 58.5 31.5t67.5 35.5q-45 36 -113 63q-3 2 0.5 11.5t8.5 8.5
q74 -24 142 -63q77 41 117 63q1 1 5 -4t6 -10.5t0 -6.5q-10 -5 -46.5 -24.5t-57.5 -30.5q57 -37 90 -70q106 -104 106 -247q0 -133 -75 -208q-67 -67 -179 -67zM354 251q0 93 -11 118q-8 15 -26.5 28t-41.5 13q-37 0 -55 -36q-21 -42 -21 -164q0 -114 19 -157.5t60 -43.5
q38 0 55 34q21 44 21 208z" />
    <glyph glyph-name="ntilde" unicode="&#xf1;" horiz-adv-x="578" 
d="M138 496q-6 50 19.5 92t77.5 42q28 0 80.5 -18.5t82.5 -18.5t47 50q1 1 6 0t9 -3t3 -3q-4 -23 -7 -38t-10 -35t-15.5 -32t-23 -20.5t-33.5 -8.5q-38 0 -96 21t-88 21q-15 0 -22.5 -11t-11.5 -40q0 -1 -4.5 -1.5t-9 1t-4.5 2.5zM15 -2q-2 1 -2 11t2 10q52 1 55 4q5 7 5 85
v227q0 57 -7 64q-4 5 -54 6q-1 0 -2 5t0 10t3 5q128 0 212 2q7 0 7 -10q0 -13 -1 -51t-2 -50l3 -1q29 61 65 94t91 33q127 0 127 -146q0 -19 -0.5 -75.5t-0.5 -88.5q0 -102 6 -108q3 -3 49 -6q5 0 3 -15q-1 -4 -3 -4q-109 2 -249 0q-2 0 -3 5t-0.5 10t1.5 5q34 3 36 5
q3 3 3 42v245q0 58 -40 58q-42 0 -74 -64q-14 -28 -14 -75q0 -12 0.5 -80t0.5 -87q0 -35 4 -39q2 -2 42 -5q2 0 2.5 -5t-0.5 -10t-3 -5q-171 2 -262 -1z" />
    <glyph glyph-name="ograve" unicode="&#xf2;" horiz-adv-x="554" 
d="M253 616q6 -6 27.5 -32.5t36.5 -41.5q16 -18 49 -48q2 -3 -2 -8.5t-6 -4.5q-101 32 -168 62q-56 23 -56 62q0 21 15 35t39 14q33 0 65 -38zM530 211q0 -82 -67 -149q-75 -75 -186 -75q-56 0 -108 22.5t-87 57.5q-58 58 -58 144t65 151q79 79 196 79q107 0 183 -76
q62 -62 62 -154zM357 249q0 107 -16 138q-17 33 -57 33q-45 0 -63 -40q-21 -40 -21 -170q0 -114 19 -158t59 -44t58 35q21 42 21 206z" />
    <glyph glyph-name="oacute" unicode="&#xf3;" horiz-adv-x="554" 
d="M223 481q-2 -1 -6 5t-2 8q20 18 44 41q24 25 71 83q31 36 65 36q24 0 39 -14t15 -35q0 -39 -55 -61q-43 -21 -171 -63zM530 211q0 -82 -67 -149q-75 -75 -186 -75q-56 0 -108 22.5t-87 57.5q-58 58 -58 144t65 151q79 79 196 79q107 0 183 -76q62 -62 62 -154zM357 249
q0 107 -16 138q-17 33 -57 33q-45 0 -63 -40q-21 -40 -21 -170q0 -114 19 -158t59 -44t58 35q21 42 21 206z" />
    <glyph glyph-name="ocircumflex" unicode="&#xf4;" horiz-adv-x="554" 
d="M134 493q27 34 53 72t39.5 59t14.5 22q5 2 44 2t44 -3q1 -1 15.5 -23.5t38.5 -58.5t46 -64q2 -2 -3 -8.5t-9 -5.5q-72 44 -138 78q-73 -42 -133 -83q-2 -1 -7.5 5t-4.5 8zM530 211q0 -82 -67 -149q-75 -75 -186 -75q-56 0 -108 22.5t-87 57.5q-58 58 -58 144t65 151
q79 79 196 79q107 0 183 -76q62 -62 62 -154zM357 249q0 107 -16 138q-17 33 -57 33q-45 0 -63 -40q-21 -40 -21 -170q0 -114 19 -158t59 -44t58 35q21 42 21 206z" />
    <glyph glyph-name="otilde" unicode="&#xf5;" horiz-adv-x="554" 
d="M127 496q-6 50 19.5 92t77.5 42q28 0 80.5 -18.5t82.5 -18.5t47 50q1 1 6 0t9 -3t3 -3q-4 -23 -7 -38t-10 -35t-15.5 -32t-23 -20.5t-33.5 -8.5q-38 0 -96 21t-88 21q-15 0 -22.5 -11t-11.5 -40q0 -1 -4.5 -1.5t-9 1t-4.5 2.5zM530 211q0 -82 -67 -149q-75 -75 -186 -75
q-56 0 -108 22.5t-87 57.5q-58 58 -58 144t65 151q79 79 196 79q107 0 183 -76q62 -62 62 -154zM357 249q0 107 -16 138q-17 33 -57 33q-45 0 -63 -40q-21 -40 -21 -170q0 -114 19 -158t59 -44t58 35q21 42 21 206z" />
    <glyph glyph-name="odieresis" unicode="&#xf6;" horiz-adv-x="554" 
d="M302 565q0 31 19 54.5t50 23.5q32 0 52.5 -21.5t20.5 -52.5q0 -33 -20 -56t-52 -23q-33 0 -51.5 21.5t-18.5 53.5zM117 566q0 30 21 52.5t53 22.5q31 0 50.5 -21.5t19.5 -54.5q0 -31 -20.5 -53.5t-52.5 -22.5t-51.5 23t-19.5 54zM530 211q0 -82 -67 -149
q-75 -75 -186 -75q-56 0 -108 22.5t-87 57.5q-58 58 -58 144t65 151q79 79 196 79q107 0 183 -76q62 -62 62 -154zM357 249q0 107 -16 138q-17 33 -57 33q-45 0 -63 -40q-21 -40 -21 -170q0 -114 19 -158t59 -44t58 35q21 42 21 206z" />
    <glyph glyph-name="divide" unicode="&#xf7;" horiz-adv-x="507" 
d="M320 488q0 -30 -20.5 -54t-49.5 -24q-31 0 -51.5 20.5t-20.5 50.5t20.5 52t50.5 22q31 0 51 -19.5t20 -47.5zM48 337h411q4 0 4 -8q0 -18 -5 -18h-409q-5 0 -5 21q0 5 4 5zM320 170q0 -30 -20 -52.5t-50 -22.5q-31 0 -51 20.5t-20 50.5q0 29 20.5 51t49.5 22
q32 0 51.5 -19.5t19.5 -49.5z" />
    <glyph glyph-name="oslash" unicode="&#xf8;" horiz-adv-x="554" 
d="M200 210q0 -45 3 -78q20 25 76 97t76 97q-4 43 -14 61q-17 33 -57 33q-45 0 -63 -40q-21 -40 -21 -170zM278 8q40 0 58 35q21 42 21 206q0 30 -1 43q-35 -45 -149 -191q8 -51 25.5 -72t45.5 -21zM76 -24q-1 -1 -6.5 1.5t-9 6.5t-2.5 5q5 6 22 26.5t26 30.5q-14 10 -24 21
q-58 58 -58 144t65 151q79 79 196 79q83 0 151 -48q35 43 45 55q1 1 6 -1.5t9.5 -7t3.5 -5.5q-7 -8 -22 -27t-24 -29q5 -4 14 -13q62 -62 62 -154q0 -82 -67 -149q-75 -75 -186 -75q-81 0 -153 46q-22 -27 -48 -57z" />
    <glyph glyph-name="ugrave" unicode="&#xf9;" horiz-adv-x="570" 
d="M252 613q6 -6 27.5 -32.5t36.5 -41.5q16 -18 49 -48q2 -3 -2 -8.5t-6 -4.5q-101 32 -168 62q-56 23 -56 62q0 21 15 35t39 14q33 0 65 -38zM356 -3q-12 0 -12 101h-3q-57 -113 -151 -113q-59 0 -94 35q-32 32 -32 108q0 28 1 119.5t1 109.5q0 38 -4 42t-54 6
q-3 0 -3.5 10.5t3.5 10.5q129 -2 202 0q13 0 13 -12q0 -15 -1 -147.5t-1 -157.5t12 -39t33 -14q36 0 65 55q14 29 14 78q0 35 0.5 94t0.5 69q0 41 -5 46t-57 6q-2 0 -2.5 10t2.5 10q58 2 204 2q17 0 17 -6q-5 -165 -5 -363q0 -26 4 -31q3 -3 58 -5q3 0 3 -10.5t-3 -10.5
q-18 0 -101 -1.5t-105 -1.5z" />
    <glyph glyph-name="uacute" unicode="&#xfa;" horiz-adv-x="570" 
d="M222 478q-2 -1 -6 5t-2 8q20 18 44 41q24 25 71 83q31 36 65 36q24 0 39 -14t15 -35q0 -39 -55 -61q-43 -21 -171 -63zM356 -3q-12 0 -12 101h-3q-57 -113 -151 -113q-59 0 -94 35q-32 32 -32 108q0 28 1 119.5t1 109.5q0 38 -4 42t-54 6q-3 0 -3.5 10.5t3.5 10.5
q129 -2 202 0q13 0 13 -12q0 -15 -1 -147.5t-1 -157.5t12 -39t33 -14q36 0 65 55q14 29 14 78q0 35 0.5 94t0.5 69q0 41 -5 46t-57 6q-2 0 -2.5 10t2.5 10q58 2 204 2q17 0 17 -6q-5 -165 -5 -363q0 -26 4 -31q3 -3 58 -5q3 0 3 -10.5t-3 -10.5q-18 0 -101 -1.5t-105 -1.5z
" />
    <glyph glyph-name="ucircumflex" unicode="&#xfb;" horiz-adv-x="570" 
d="M133 490q27 34 53 72t39.5 59t14.5 22q5 2 44 2t44 -3q1 -1 15.5 -23.5t38.5 -58.5t46 -64q2 -2 -3 -8.5t-9 -5.5q-72 44 -138 78q-73 -42 -133 -83q-2 -1 -7.5 5t-4.5 8zM356 -3q-12 0 -12 101h-3q-57 -113 -151 -113q-59 0 -94 35q-32 32 -32 108q0 28 1 119.5t1 109.5
q0 38 -4 42t-54 6q-3 0 -3.5 10.5t3.5 10.5q129 -2 202 0q13 0 13 -12q0 -15 -1 -147.5t-1 -157.5t12 -39t33 -14q36 0 65 55q14 29 14 78q0 35 0.5 94t0.5 69q0 41 -5 46t-57 6q-2 0 -2.5 10t2.5 10q58 2 204 2q17 0 17 -6q-5 -165 -5 -363q0 -26 4 -31q3 -3 58 -5
q3 0 3 -10.5t-3 -10.5q-18 0 -101 -1.5t-105 -1.5z" />
    <glyph glyph-name="udieresis" unicode="&#xfc;" horiz-adv-x="570" 
d="M302 562q0 31 19 54.5t50 23.5q32 0 52.5 -21.5t20.5 -52.5q0 -33 -20 -56t-52 -23q-33 0 -51.5 21.5t-18.5 53.5zM117 563q0 30 21 52.5t53 22.5q31 0 50.5 -21.5t19.5 -54.5q0 -31 -20.5 -53.5t-52.5 -22.5t-51.5 23t-19.5 54zM356 -3q-12 0 -12 101h-3
q-57 -113 -151 -113q-59 0 -94 35q-32 32 -32 108q0 28 1 119.5t1 109.5q0 38 -4 42t-54 6q-3 0 -3.5 10.5t3.5 10.5q129 -2 202 0q13 0 13 -12q0 -15 -1 -147.5t-1 -157.5t12 -39t33 -14q36 0 65 55q14 29 14 78q0 35 0.5 94t0.5 69q0 41 -5 46t-57 6q-2 0 -2.5 10t2.5 10
q58 2 204 2q17 0 17 -6q-5 -165 -5 -363q0 -26 4 -31q3 -3 58 -5q3 0 3 -10.5t-3 -10.5q-18 0 -101 -1.5t-105 -1.5z" />
    <glyph glyph-name="yacute" unicode="&#xfd;" horiz-adv-x="529" 
d="M233 478q-2 -1 -6 5t-2 8q20 18 44 41q24 25 71 83q31 36 65 36q24 0 39 -14t15 -35q0 -39 -55 -61q-43 -21 -171 -63zM131 -219q-45 0 -74.5 25t-29.5 63q0 32 22 52.5t52 20.5q28 0 44 -17.5t16 -42.5q0 -24 -19 -45q-7 -7 -18.5 -12t-13.5 -7q-8 -7 5 -12q7 -3 19 -3
q38 0 65 27q36 36 66 117q-12 26 -84 179.5t-103 220.5q-19 39 -28 47q-10 10 -49 11q-3 0 -3 10.5t3 10.5q46 -1 138 -1q94 0 144 2q2 0 3 -5t0.5 -10t-2.5 -5q-45 -4 -49 -9q-7 -7 13 -55q18 -42 94 -209h1q46 116 58 150q17 51 17 81q0 20 -11 29t-42 13q-3 1 -2 10t4 9
q107 -2 165 0q3 0 3.5 -9.5t-2.5 -10.5q-33 -6 -47 -20q-31 -31 -62 -113q-80 -202 -140 -347q-30 -72 -67 -110q-37 -35 -86 -35z" />
    <glyph glyph-name="thorn" unicode="&#xfe;" horiz-adv-x="564" 
d="M307 396q-41 0 -72 -60q-18 -39 -18 -114q0 -95 5 -126.5t19 -46.5q8 -10 24.5 -18t29.5 -8q33 0 48 31q21 41 21 162q0 117 -19 155q-13 25 -38 25zM56 623q-5 5 -56 5q-2 0 -3 5t0 10t2 5q136 0 216 5q6 0 6 -14q0 -11 -2.5 -149t-2.5 -148q48 100 136 100
q69 0 123 -54q60 -60 60 -160q0 -104 -75 -181q-60 -60 -124 -60q-70 0 -116 54l-1 -1q0 -35 0.5 -70.5t1 -54.5t0.5 -30q0 -65 5 -72q4 -4 67 -4q3 0 3 -10.5t-3 -10.5q-10 0 -46.5 -0.5t-54.5 -0.5q-171 0 -197 -1q-2 0 -2.5 5t0.5 10.5t3 5.5q61 3 63 5q6 5 6 88
q0 23 -0.5 178.5t-0.5 185.5q0 351 -8 359z" />
    <glyph glyph-name="ydieresis" unicode="&#xff;" horiz-adv-x="529" 
d="M313 562q0 31 19 54.5t50 23.5q32 0 52.5 -21.5t20.5 -52.5q0 -33 -20 -56t-52 -23q-33 0 -51.5 21.5t-18.5 53.5zM128 563q0 30 21 52.5t53 22.5q31 0 50.5 -21.5t19.5 -54.5q0 -31 -20.5 -53.5t-52.5 -22.5t-51.5 23t-19.5 54zM131 -219q-45 0 -74.5 25t-29.5 63
q0 32 22 52.5t52 20.5q28 0 44 -17.5t16 -42.5q0 -24 -19 -45q-7 -7 -18.5 -12t-13.5 -7q-8 -7 5 -12q7 -3 19 -3q38 0 65 27q36 36 66 117q-12 26 -84 179.5t-103 220.5q-19 39 -28 47q-10 10 -49 11q-3 0 -3 10.5t3 10.5q46 -1 138 -1q94 0 144 2q2 0 3 -5t0.5 -10
t-2.5 -5q-45 -4 -49 -9q-7 -7 13 -55q18 -42 94 -209h1q46 116 58 150q17 51 17 81q0 20 -11 29t-42 13q-3 1 -2 10t4 9q107 -2 165 0q3 0 3.5 -9.5t-2.5 -10.5q-33 -6 -47 -20q-31 -31 -62 -113q-80 -202 -140 -347q-30 -72 -67 -110q-37 -35 -86 -35z" />
    <glyph glyph-name="Amacron" unicode="&#x100;" horiz-adv-x="708" 
d="M528 761q0 -12 -0.5 -38.5t-0.5 -34.5q0 -5 -10 -5h-290q-4 0 -4 5q-2 61 0 71q1 6 9 6q25 0 71 -0.5t72 -0.5q98 0 148 1q5 0 5 -4zM-1 17q42 5 64 29q27 25 55 91q125 280 201 478q7 5 55 5q53 0 54 -5q48 -141 183 -510q24 -63 37 -76q9 -9 61 -11q3 0 2.5 -10
t-2.5 -10q-112 2 -155 2q-144 0 -173 -1q-1 0 -2 5t-0.5 10t1.5 5q49 3 57 9q6 8 -1 33q-29 85 -42 119q-78 3 -135 3q-61 0 -86 -1q-7 0 -11 -7q-12 -26 -22 -57q-10 -27 -10 -49q0 -27 15.5 -37t60.5 -15q1 0 1.5 -4.5t-0.5 -9t-2 -4.5q-74 4 -206 0q-1 0 -1.5 4.5t0 9
t1.5 4.5zM290 473h-2q-63 -153 -111 -265q76 -5 209 -5q-22 64 -54.5 153.5t-41.5 116.5z" />
    <glyph glyph-name="amacron" unicode="&#x101;" horiz-adv-x="535" 
d="M410 594q0 -54 -1 -73q0 -5 -10 -5h-285q-4 0 -4 5v71q1 6 9 6q25 0 70.5 -0.5t70.5 -0.5q100 0 145 1q5 0 5 -4zM301 226q-72 -8 -93.5 -29t-21.5 -80q0 -42 9.5 -59.5t30.5 -17.5q19 0 38 14.5t27 31.5t9 50q1 26 1 90zM216 416q-16 0 -28.5 -3.5t-18 -7.5t-5.5 -7
t13 -9t25.5 -21t12.5 -40q0 -31 -22 -50t-55 -19q-34 0 -55.5 19t-21.5 51q0 34 26 60q51 49 158 49q116 0 168 -52q43 -43 43 -135q0 -18 -1.5 -84t-1.5 -107q0 -28 20 -28q31 0 42 81q1 3 10 1.5t9 -5.5q-6 -59 -32 -88.5t-83 -29.5q-96 0 -122 74q-52 -75 -134 -75
q-54 0 -93 31.5t-39 79.5q0 44 31 75q26 26 78.5 42.5t160.5 27.5q1 14 1 80q0 49 -20 68q-20 22 -66 22z" />
    <glyph glyph-name="Abreve" unicode="&#x102;" horiz-adv-x="708" 
d="M521 798q-11 -70 -47 -106t-104 -36q-64 0 -95.5 38.5t-42.5 105.5q0 3 10 5.5t11 -0.5q11 -26 22 -37q25 -25 96 -25q57 0 86 13.5t45 46.5q0 1 2.5 1t5 -0.5t5.5 -1t4.5 -2t1.5 -2.5zM-1 17q42 5 64 29q27 25 55 91q125 280 201 478q7 5 55 5q53 0 54 -5
q48 -141 183 -510q24 -63 37 -76q9 -9 61 -11q3 0 2.5 -10t-2.5 -10q-112 2 -155 2q-144 0 -173 -1q-1 0 -2 5t-0.5 10t1.5 5q49 3 57 9q6 8 -1 33q-29 85 -42 119q-78 3 -135 3q-61 0 -86 -1q-7 0 -11 -7q-12 -26 -22 -57q-10 -27 -10 -49q0 -27 15.5 -37t60.5 -15
q1 0 1.5 -4.5t-0.5 -9t-2 -4.5q-74 4 -206 0q-1 0 -1.5 4.5t0 9t1.5 4.5zM290 473h-2q-63 -153 -111 -265q76 -5 209 -5q-22 64 -54.5 153.5t-41.5 116.5z" />
    <glyph glyph-name="abreve" unicode="&#x103;" horiz-adv-x="535" 
d="M405 646q-11 -81 -50 -119q-35 -37 -99 -37t-95 42t-41 116q0 4 10 5.5t11 -0.5q8 -29 23 -44q27 -27 93 -27q55 0 84.5 16t44.5 53q0 1 3.5 0.5l7 -1t6 -2t2.5 -2.5zM301 226q-72 -8 -93.5 -29t-21.5 -80q0 -42 9.5 -59.5t30.5 -17.5q19 0 38 14.5t27 31.5t9 50
q1 26 1 90zM216 416q-16 0 -28.5 -3.5t-18 -7.5t-5.5 -7t13 -9t25.5 -21t12.5 -40q0 -31 -22 -50t-55 -19q-34 0 -55.5 19t-21.5 51q0 34 26 60q51 49 158 49q116 0 168 -52q43 -43 43 -135q0 -18 -1.5 -84t-1.5 -107q0 -28 20 -28q31 0 42 81q1 3 10 1.5t9 -5.5
q-6 -59 -32 -88.5t-83 -29.5q-96 0 -122 74q-52 -75 -134 -75q-54 0 -93 31.5t-39 79.5q0 44 31 75q26 26 78.5 42.5t160.5 27.5q1 14 1 80q0 49 -20 68q-20 22 -66 22z" />
    <glyph glyph-name="Aogonek" unicode="&#x104;" horiz-adv-x="708" 
d="M290 473h-2q-63 -153 -111 -265q76 -5 209 -5q-22 64 -54.5 153.5t-41.5 116.5zM668 -124q-40 -74 -114 -74q-37 0 -65.5 16t-28.5 49q0 31 28 61.5t99 71.5h-33q-144 0 -173 -1q-1 0 -2 5t-0.5 10t1.5 5q49 3 57 9q6 8 -1 33q-29 85 -42 119q-78 3 -135 3q-61 0 -86 -1
q-7 0 -11 -7q-12 -26 -22 -57q-10 -27 -10 -49q0 -27 15.5 -37t60.5 -15q1 0 1.5 -4.5t-0.5 -9t-2 -4.5q-74 4 -206 0q-1 0 -1.5 4.5t0 9t1.5 4.5q42 5 64 29q27 25 55 91q125 280 201 478q7 5 55 5q53 0 54 -5q48 -141 183 -510q24 -63 37 -76q9 -9 61 -11q3 0 2.5 -10
t-2.5 -10q-16 0 -48 0.5t-47 1.5q-59 -59 -59 -119q0 -45 31 -45q33 0 66 50q2 2 5.5 0.5t7.5 -5t3 -5.5z" />
    <glyph glyph-name="aogonek" unicode="&#x105;" horiz-adv-x="535" 
d="M423 -198q-38 0 -66.5 16t-28.5 49q0 59 124 130v2q-121 -25 -155 66q-51 -75 -135 -75q-54 0 -92 31.5t-38 79.5q0 43 30 75q27 27 79.5 43t159.5 27q1 14 1 80q0 49 -20 68q-20 22 -66 22q-15 0 -27.5 -3.5t-18.5 -7.5t-6 -7t13 -9t25.5 -21t12.5 -40q0 -31 -22 -50
t-55 -19q-34 0 -55.5 19t-21.5 51q0 34 26 59q50 50 158 50q116 0 168 -52q45 -45 43 -135q0 -18 -1.5 -84t-1.5 -107q0 -28 20 -28q31 0 42 81q2 2 6 2t8.5 -2t4.5 -4q-2 -30 -10.5 -52t-16.5 -32t-26 -28q-29 -29 -43 -54.5t-14 -61.5q0 -45 31 -45q33 0 65 50
q2 3 10 -1.5t6 -8.5q-38 -74 -113 -74zM301 226q-72 -8 -93.5 -29t-21.5 -80q0 -42 9.5 -59.5t30.5 -17.5q19 0 38 14.5t27 31.5t9 50q1 25 1 90z" />
    <glyph glyph-name="Cacute" unicode="&#x106;" horiz-adv-x="643" 
d="M290 654q-1 0 -3 2.5t-3.5 6t-1.5 4.5q28 20 47 38q29 26 75 74q32 32 67 32q23 0 38 -15t15 -36q0 -38 -59 -58q-37 -15 -175 -48zM358 616q43 0 80.5 -14t57.5 -27.5t21 -13.5q7 0 62 58q2 2 9.5 1.5t7.5 -4.5q-7 -112 -4 -246q0 -3 -8.5 -3t-9.5 3q-58 133 -100 175
q-45 43 -101 43q-73 0 -104 -63q-34 -68 -34 -230q0 -132 31 -193q35 -73 129 -73q77 0 126 51q52 50 68 135q3 5 18 -2q5 -2 4 -4q-18 -94 -76 -151q-66 -68 -187 -68q-148 0 -237 91q-83 83 -83 207q0 133 87 220q106 108 243 108z" />
    <glyph glyph-name="cacute" unicode="&#x107;" horiz-adv-x="495" 
d="M215 481q-2 -1 -6 5t-2 8q20 18 44 41q24 25 71 83q31 36 65 36q24 0 39 -14t15 -35q0 -39 -55 -61q-43 -21 -171 -63zM272 -12q-113 0 -186 73q-62 62 -62 149t66 154q78 78 195 78q83 0 133 -37t50 -91q0 -38 -22.5 -61t-54.5 -23q-30 0 -51 19.5t-21 46.5q0 29 17 46
q14 14 40 18t27 5q5 5 -5.5 17t-36.5 23t-56 11q-59 0 -83 -47q-23 -47 -23 -151q0 -110 18 -147q25 -48 88 -48q43 0 81 28.5t61 88.5q2 4 12.5 -0.5t8.5 -9.5q-26 -68 -76 -105t-120 -37z" />
    <glyph glyph-name="Cdotaccent" unicode="&#x10a;" horiz-adv-x="642" 
d="M361 813q39 0 62 -22t23 -55t-25 -54t-62 -21q-41 0 -64 21t-23 52q0 34 26.5 56.5t62.5 22.5zM358 616q43 0 80.5 -14t57.5 -27.5t21 -13.5q7 0 62 58q2 2 9.5 1.5t7.5 -4.5q-7 -112 -4 -246q0 -3 -8.5 -3t-9.5 3q-58 133 -100 175q-45 43 -101 43q-73 0 -104 -63
q-34 -68 -34 -230q0 -132 31 -193q35 -73 129 -73q77 0 126 51q52 50 68 135q3 5 18 -2q5 -2 4 -4q-18 -94 -76 -151q-66 -68 -187 -68q-148 0 -237 91q-83 83 -83 207q0 133 87 220q106 108 243 108z" />
    <glyph glyph-name="cdotaccent" unicode="&#x10b;" horiz-adv-x="495" 
d="M274 644q38 0 61 -22.5t23 -55.5t-24.5 -54.5t-61.5 -21.5q-40 0 -63 21.5t-23 52.5q0 34 26.5 57t61.5 23zM272 -12q-113 0 -186 73q-62 62 -62 149t66 154q78 78 195 78q83 0 133 -37t50 -91q0 -38 -22.5 -61t-54.5 -23q-30 0 -51 19.5t-21 46.5q0 29 17 46
q14 14 40 18t27 5q5 5 -5.5 17t-36.5 23t-56 11q-59 0 -83 -47q-23 -47 -23 -151q0 -110 18 -147q25 -48 88 -48q43 0 81 28.5t61 88.5q2 4 12.5 -0.5t8.5 -9.5q-26 -68 -76 -105t-120 -37z" />
    <glyph glyph-name="Ccaron" unicode="&#x10c;" horiz-adv-x="642" 
d="M509 797q-27 -31 -53 -65t-40 -53t-15 -20q-5 -3 -44.5 -3t-44.5 4q-2 3 -18 25t-38.5 52t-44.5 55q-1 1 1 4.5t5.5 6t6.5 2.5q73 -40 139 -68q72 36 135 73q2 1 7 -5.5t4 -7.5zM358 616q43 0 80.5 -14t57.5 -27.5t21 -13.5q7 0 62 58q2 2 9.5 1.5t7.5 -4.5
q-7 -112 -4 -246q0 -3 -8.5 -3t-9.5 3q-58 133 -100 175q-45 43 -101 43q-73 0 -104 -63q-34 -68 -34 -230q0 -132 31 -193q35 -73 129 -73q77 0 126 51q52 50 68 135q3 5 18 -2q5 -2 4 -4q-18 -94 -76 -151q-66 -68 -187 -68q-148 0 -237 91q-83 83 -83 207q0 133 87 220
q106 108 243 108z" />
    <glyph glyph-name="ccaron" unicode="&#x10d;" horiz-adv-x="495" 
d="M419 643q-27 -34 -53 -71.5t-39.5 -58.5t-14.5 -22q-4 -2 -43 -2t-44 2q-1 1 -15.5 23.5t-38.5 58.5t-46 64q-2 2 3 8.5t9 5.5q71 -44 138 -77q61 34 133 82q2 1 7.5 -5t3.5 -8zM272 -12q-113 0 -186 73q-62 62 -62 149t66 154q78 78 195 78q83 0 133 -37t50 -91
q0 -38 -22.5 -61t-54.5 -23q-30 0 -51 19.5t-21 46.5q0 29 17 46q14 14 40 18t27 5q5 5 -5.5 17t-36.5 23t-56 11q-59 0 -83 -47q-23 -47 -23 -151q0 -110 18 -147q25 -48 88 -48q43 0 81 28.5t61 88.5q2 4 12.5 -0.5t8.5 -9.5q-26 -68 -76 -105t-120 -37z" />
    <glyph glyph-name="Dcaron" unicode="&#x10e;" horiz-adv-x="735" 
d="M504 790q-27 -31 -53 -65t-40 -53t-15 -20q-5 -2 -44.5 -2t-44.5 3q-2 3 -18 25t-38.5 52t-44.5 55q-1 1 1 4.5t5.5 6t6.5 2.5q73 -40 139 -68q72 36 135 73q2 1 7 -5.5t4 -7.5zM15 608q56 -1 158 -1q31 0 94 1t87 1q183 0 279 -96q72 -72 72 -184q0 -132 -92 -226
q-106 -104 -272 -104q-28 0 -104.5 1t-100.5 1q-66 0 -122 -2q-2 0 -3 5.5t-0.5 11t2.5 5.5q69 2 73 6q5 5 6 65q1 30 1 168v243q0 75 -6 79q-4 4 -72 5q-2 0 -2 10.5t2 10.5zM286 582q-3 -3 -3 -28q-1 -23 -1 -258q0 -142 1 -216q0 -50 4 -54t53 -4q97 0 135 76
q26 53 26 200q0 159 -31 224q-17 33 -47 48t-84 15q-50 0 -53 -3z" />
    <glyph glyph-name="dcaron" unicode="&#x10f;" horiz-adv-x="566" 
d="M546 401q-2 -3 -8.5 0.5t-5.5 6.5q11 36 13 69t-1 74t-3 54q0 31 15.5 49.5t41.5 18.5q24 0 37 -16.5t13 -40.5q0 -79 -102 -215zM264 400q-30 0 -47 -33q-19 -38 -19 -145q0 -131 15 -161q12 -26 42 -26q41 0 71 60q9 19 12 45.5t3 100.5q0 98 -7 111q-8 17 -29 32.5
t-41 15.5zM270 648q96 0 224 4q7 0 7 -9q-7 -217 -7 -324q0 -55 1 -137t1 -111q1 -43 5 -46q3 -3 56 -5q4 0 4 -10.5t-4 -10.5q-166 0 -208 -1q-7 0 -10 82h-2q-51 -94 -131 -94q-64 0 -114 50q-64 64 -64 168q0 105 70 173q62 64 129 64q59 0 110 -63h2q1 71 1 205
q0 33 -5 40q-4 3 -65 5q-2 0 -2 10t2 10z" />
    <glyph glyph-name="Dcroat" unicode="&#x110;" horiz-adv-x="745" 
d="M351 -1q-28 0 -104.5 1t-100.5 1q-66 0 -122 -2q-2 0 -3 5.5t-0.5 11t2.5 5.5q69 2 73 6q5 5 6 65q1 30 1 168v47h-75q-2 0 -3 5.5t-0.5 11.5t2.5 6q47 0 76 1v172q0 75 -6 79q-4 4 -72 5q-2 0 -2 10.5t2 10.5q56 -1 158 -1q31 0 94 1t87 1q183 0 279 -96q72 -72 72 -184
q0 -132 -92 -226q-106 -104 -272 -104zM350 22q97 0 135 76q26 53 26 200q0 159 -31 224q-17 33 -47 48t-84 15q-50 0 -53 -3t-3 -28q-1 -20 -1 -222h103q2 0 3 -6t0.5 -11.5t-1.5 -5.5q-62 0 -105 -1v-12q0 -142 1 -216q0 -50 4 -54t53 -4z" />
    <glyph glyph-name="dcroat" unicode="&#x111;" horiz-adv-x="566" 
d="M264 398q-30 0 -47 -34q-19 -36 -19 -142q0 -131 15 -161q12 -26 42 -26q41 0 71 60q9 19 12 45.5t3 100.5q0 95 -7 109q-8 17 -29 32.5t-41 15.5zM337 80q-51 -94 -131 -94q-64 0 -114 50q-64 64 -64 168q0 103 70 171q62 64 129 64q57 0 110 -63h2q1 46 1 143h-112
q-2 0 -3 5.5t-0.5 11t2.5 5.5h113v42q0 33 -5 40q-4 3 -65 5q-2 0 -2 10t2 10q96 0 224 4q7 0 7 -9q-1 -37 -3 -102h42q2 0 3 -5.5t0 -11t-2 -5.5h-44q-3 -101 -3 -200q0 -55 1 -137t1 -111q1 -43 5 -46q3 -3 56 -5q4 0 4 -10.5t-4 -10.5q-166 0 -208 -1q-7 0 -10 82h-2z
" />
    <glyph glyph-name="Emacron" unicode="&#x112;" horiz-adv-x="667" 
d="M488 754q0 -12 -0.5 -38.5t-0.5 -34.5q0 -5 -10 -5h-290q-4 0 -4 5q-2 61 0 71q1 6 9 6q25 0 71 -0.5t72 -0.5q98 0 148 1q5 0 5 -4zM18 609q75 -3 303 -3q167 0 279 4q6 0 6 -9q-2 -38 -5 -120t-4 -105q0 -2 -4 -3t-9 0t-6 4q-41 112 -90 161q-28 28 -55.5 37.5
t-83.5 9.5q-60 0 -65 -2q-2 -4 -2 -109q0 -18 -0.5 -73.5t-0.5 -73.5q12 -1 37 -1q52 0 78 26q28 28 43 99q1 4 9.5 3.5t8.5 -4.5q-4 -183 2 -274q0 -4 -8 -4.5t-9 3.5q-23 83 -47 107q-19 19 -67 19q-35 0 -46 -1q-1 -29 -1 -107q0 -160 5 -164q4 -6 64 -6h45q59 0 104 44
q58 58 97 189q2 4 11.5 3t9.5 -5q-1 -43 -3 -128.5t-3 -120.5q0 -5 -6 -5q-192 1 -300 1q-202 0 -294 -2q-1 0 -2 5.5t0 11t3 5.5q72 1 75 6q7 5 7 190q0 36 -0.5 120.5t-0.5 136.5q0 103 -4 107q-5 5 -72 8q-1 0 -2 5t0 10t3 5z" />
    <glyph glyph-name="emacron" unicode="&#x113;" horiz-adv-x="514" 
d="M420 594q0 -54 -1 -73q0 -5 -10 -5h-285q-4 0 -4 5v71q1 6 9 6q25 0 70.5 -0.5t70.5 -0.5q100 0 145 1q5 0 5 -4zM465 132q4 3 12.5 -1.5t7.5 -8.5q-26 -67 -79 -101t-119 -34q-61 0 -115 21t-89 56q-59 59 -59 147q0 86 64 150q80 80 185 80q95 0 160 -63
q58 -58 59 -159q0 -8 -6 -8q-235 0 -295 -3q1 -95 22 -135q26 -54 102 -54q99 0 150 113zM266 420q-36 0 -51 -31q-19 -36 -23 -157l146 2q-2 104 -18 145t-54 41z" />
    <glyph glyph-name="Ebreve" unicode="&#x114;" horiz-adv-x="667" 
d="M482 791q-11 -70 -47 -106t-104 -36q-64 0 -95.5 38.5t-42.5 105.5q0 3 9.5 5.5t11.5 -0.5q11 -26 22 -37q25 -25 96 -25q57 0 86 13.5t45 46.5q0 1 2.5 1t5 -0.5t5.5 -1t4.5 -2t1.5 -2.5zM18 609q75 -3 303 -3q167 0 279 4q6 0 6 -9q-2 -38 -5 -120t-4 -105q0 -2 -4 -3
t-9 0t-6 4q-41 112 -90 161q-28 28 -55.5 37.5t-83.5 9.5q-60 0 -65 -2q-2 -4 -2 -109q0 -18 -0.5 -73.5t-0.5 -73.5q12 -1 37 -1q52 0 78 26q28 28 43 99q1 4 9.5 3.5t8.5 -4.5q-4 -183 2 -274q0 -4 -8 -4.5t-9 3.5q-23 83 -47 107q-19 19 -67 19q-35 0 -46 -1
q-1 -29 -1 -107q0 -160 5 -164q4 -6 64 -6h45q59 0 104 44q58 58 97 189q2 4 11.5 3t9.5 -5q-1 -43 -3 -128.5t-3 -120.5q0 -5 -6 -5q-192 1 -300 1q-202 0 -294 -2q-1 0 -2 5.5t0 11t3 5.5q72 1 75 6q7 5 7 190q0 36 -0.5 120.5t-0.5 136.5q0 103 -4 107q-5 5 -72 8
q-1 0 -2 5t0 10t3 5z" />
    <glyph glyph-name="ebreve" unicode="&#x115;" horiz-adv-x="514" 
d="M414 646q-11 -81 -50 -119q-35 -37 -99 -37t-95 42t-41 116q0 4 9.5 5.5t11.5 -0.5q8 -29 23 -44q27 -27 93 -27q55 0 84.5 16t44.5 53q0 1 3.5 0.5l7 -1t6 -2t2.5 -2.5zM465 132q4 3 12.5 -1.5t7.5 -8.5q-26 -67 -79 -101t-119 -34q-61 0 -115 21t-89 56q-59 59 -59 147
q0 86 64 150q80 80 185 80q95 0 160 -63q58 -58 59 -159q0 -8 -6 -8q-235 0 -295 -3q1 -95 22 -135q26 -54 102 -54q99 0 150 113zM266 420q-36 0 -51 -31q-19 -36 -23 -157l146 2q-2 104 -18 145t-54 41z" />
    <glyph glyph-name="Edotaccent" unicode="&#x116;" horiz-adv-x="667" 
d="M335 806q39 0 62 -22t23 -55t-25 -54t-62 -21q-41 0 -64 21t-23 52q0 34 26.5 56.5t62.5 22.5zM18 609q75 -3 303 -3q167 0 279 4q6 0 6 -9q-2 -38 -5 -120t-4 -105q0 -2 -4 -3t-9 0t-6 4q-41 112 -90 161q-28 28 -55.5 37.5t-83.5 9.5q-60 0 -65 -2q-2 -4 -2 -109
q0 -18 -0.5 -73.5t-0.5 -73.5q12 -1 37 -1q52 0 78 26q28 28 43 99q1 4 9.5 3.5t8.5 -4.5q-4 -183 2 -274q0 -4 -8 -4.5t-9 3.5q-23 83 -47 107q-19 19 -67 19q-35 0 -46 -1q-1 -29 -1 -107q0 -160 5 -164q4 -6 64 -6h45q59 0 104 44q58 58 97 189q2 4 11.5 3t9.5 -5
q-1 -43 -3 -128.5t-3 -120.5q0 -5 -6 -5q-192 1 -300 1q-202 0 -294 -2q-1 0 -2 5.5t0 11t3 5.5q72 1 75 6q7 5 7 190q0 36 -0.5 120.5t-0.5 136.5q0 103 -4 107q-5 5 -72 8q-1 0 -2 5t0 10t3 5z" />
    <glyph glyph-name="edotaccent" unicode="&#x117;" horiz-adv-x="514" 
d="M269 644q38 0 61 -22.5t23 -55.5t-24.5 -54.5t-61.5 -21.5q-40 0 -63 21.5t-23 52.5q0 34 26.5 57t61.5 23zM465 132q4 3 12.5 -1.5t7.5 -8.5q-26 -67 -79 -101t-119 -34q-61 0 -115 21t-89 56q-59 59 -59 147q0 86 64 150q80 80 185 80q95 0 160 -63q58 -58 59 -159
q0 -8 -6 -8q-235 0 -295 -3q1 -95 22 -135q26 -54 102 -54q99 0 150 113zM266 420q-36 0 -51 -31q-19 -36 -23 -157l146 2q-2 104 -18 145t-54 41z" />
    <glyph glyph-name="Eogonek" unicode="&#x118;" horiz-adv-x="667" 
d="M609 -124q-40 -74 -114 -74q-37 0 -65.5 16t-28.5 49q0 32 28.5 62.5t99.5 70.5q-119 1 -224 1q-202 0 -294 -2q-1 0 -2 5.5t0 11t3 5.5q72 1 75 6q7 5 7 190q0 36 -0.5 120.5t-0.5 136.5q0 103 -4 107q-5 5 -72 8q-1 0 -2 5t0 10t3 5q75 -3 303 -3q167 0 279 4q6 0 6 -9
q-2 -38 -5 -120t-4 -105q0 -2 -4 -3t-9 0t-6 4q-41 112 -90 161q-28 28 -55.5 37.5t-83.5 9.5q-60 0 -65 -2q-2 -4 -2 -109q0 -18 -0.5 -73.5t-0.5 -73.5q12 -1 37 -1q52 0 78 26q28 28 43 99q1 4 9.5 3.5t8.5 -4.5q-4 -183 2 -274q0 -4 -8 -4.5t-9 3.5q-23 83 -47 107
q-19 19 -67 19q-35 0 -46 -1q-1 -29 -1 -107q0 -160 5 -164q4 -6 64 -6h45q59 0 104 44q58 58 97 189q2 4 11.5 3t9.5 -5q-1 -43 -3 -128.5t-3 -120.5q0 -5 -6 -5h-50q-31 -32 -45 -58.5t-14 -60.5q0 -45 31 -45q33 0 66 50q2 2 5.5 0.5t7.5 -5t3 -5.5z" />
    <glyph glyph-name="eogonek" unicode="&#x119;" horiz-adv-x="514" 
d="M336 -198q-39 0 -66.5 15.5t-27.5 49.5q0 32 27.5 62t93.5 71l-1 1q-42 -14 -75 -14q-61 0 -115 21t-89 56q-59 59 -59 147q0 86 64 150q80 80 185 80q95 0 160 -63q58 -58 59 -159q0 -8 -6 -8q-235 0 -295 -3q1 -95 22 -135q26 -54 102 -54q99 0 150 113q4 3 12.5 -1.5
t7.5 -8.5q-4 -9 -9 -19t-9 -17t-12 -17.5t-12 -15.5t-14 -16t-13 -14t-14 -15t-13 -14q-52 -55 -52 -112q0 -46 31 -46q33 0 65 50q2 3 10 -1.5t6 -8.5q-38 -74 -113 -74zM266 420q-36 0 -51 -31q-19 -36 -23 -157l146 2q-2 104 -18 145t-54 41z" />
    <glyph glyph-name="Ecaron" unicode="&#x11a;" horiz-adv-x="667" 
d="M483 790q-27 -31 -53 -65t-40 -53t-15 -20q-5 -2 -44.5 -2t-44.5 3q-2 3 -18 25t-38.5 52t-44.5 55q-1 1 1 4.5t5.5 6t6.5 2.5q73 -40 139 -68q72 36 135 73q2 1 7 -5.5t4 -7.5zM18 609q75 -3 303 -3q167 0 279 4q6 0 6 -9q-2 -38 -5 -120t-4 -105q0 -2 -4 -3t-9 0t-6 4
q-41 112 -90 161q-28 28 -55.5 37.5t-83.5 9.5q-60 0 -65 -2q-2 -4 -2 -109q0 -18 -0.5 -73.5t-0.5 -73.5q12 -1 37 -1q52 0 78 26q28 28 43 99q1 4 9.5 3.5t8.5 -4.5q-4 -183 2 -274q0 -4 -8 -4.5t-9 3.5q-23 83 -47 107q-19 19 -67 19q-35 0 -46 -1q-1 -29 -1 -107
q0 -160 5 -164q4 -6 64 -6h45q59 0 104 44q58 58 97 189q2 4 11.5 3t9.5 -5q-1 -43 -3 -128.5t-3 -120.5q0 -5 -6 -5q-192 1 -300 1q-202 0 -294 -2q-1 0 -2 5.5t0 11t3 5.5q72 1 75 6q7 5 7 190q0 36 -0.5 120.5t-0.5 136.5q0 103 -4 107q-5 5 -72 8q-1 0 -2 5t0 10t3 5z
" />
    <glyph glyph-name="ecaron" unicode="&#x11b;" horiz-adv-x="514" 
d="M415 643q-27 -34 -53 -71.5t-39.5 -58.5t-14.5 -22q-4 -2 -43 -2t-44 2q-1 1 -15.5 23.5t-38.5 58.5t-46 64q-2 2 3 8.5t9 5.5q71 -44 138 -77q61 34 133 82q2 1 7.5 -5t3.5 -8zM465 132q4 3 12.5 -1.5t7.5 -8.5q-26 -67 -79 -101t-119 -34q-61 0 -115 21t-89 56
q-59 59 -59 147q0 86 64 150q80 80 185 80q95 0 160 -63q58 -58 59 -159q0 -8 -6 -8q-235 0 -295 -3q1 -95 22 -135q26 -54 102 -54q99 0 150 113zM266 420q-36 0 -51 -31q-19 -36 -23 -157l146 2q-2 104 -18 145t-54 41z" />
    <glyph glyph-name="Gbreve" unicode="&#x11e;" horiz-adv-x="699" 
d="M506 798q-11 -70 -47 -106t-104 -36q-64 0 -95.5 38.5t-42.5 105.5q0 3 9.5 5.5t11.5 -0.5q11 -26 22 -37q25 -25 96 -25q57 0 86 13.5t45 46.5q0 1 2.5 1t5 -0.5t5.5 -1t4.5 -2t1.5 -2.5zM362 615q43 0 79.5 -13.5t56.5 -27t23 -13.5q8 0 31.5 20t42.5 41q2 2 9 0t7 -4
q-11 -86 -11 -230q0 -4 -8.5 -5t-9.5 2q-53 110 -103 160q-49 47 -109 47q-74 0 -105 -61q-30 -60 -30 -236q0 -105 5.5 -152t20.5 -76q29 -57 98 -57q29 0 50 11t29 26q7 15 7 109q0 93 -7 99q-4 5 -71 6q-1 0 -2 5.5t0 10.5t3 5q190 -2 315 5q3 0 3 -9.5t-2 -11.5
q-54 -4 -56 -7q-6 -5 -6 -97q-1 -61 1 -160q0 -4 -7.5 -5.5t-10.5 1.5q-51 68 -64 68q-4 0 -31 -19.5t-71.5 -39.5t-91.5 -20q-143 0 -235 92q-84 84 -84 205q0 133 99 230q99 101 235 101z" />
    <glyph glyph-name="gbreve" unicode="&#x11f;" horiz-adv-x="517" 
d="M401 654q-11 -81 -50 -119q-35 -37 -99 -37t-95 42t-41 116q0 4 10 5.5t11 -0.5q8 -29 23 -44q27 -27 93 -27q55 0 84.5 16t44.5 53q0 1 3.5 0.5l7 -1t6 -2t2.5 -2.5zM322 289q0 75 -10 96q-15 28 -56 28q-68 0 -68 -127q0 -67 13 -93q15 -29 53 -29q68 0 68 125z
M472 -140q-37 -38 -100.5 -59t-139.5 -21q-100 0 -159.5 29.5t-59.5 75.5q0 53 96 92q-64 23 -64 75q0 31 26 59q25 25 74 51q-49 17 -77.5 49t-28.5 79q0 48 35 83q64 62 186 62q30 0 57 -6q16 32 38 54q34 34 77 34q32 0 49 -16t17 -37q0 -20 -12 -31.5t-31 -11.5
q-20 0 -36 14q-7 7 -11.5 19.5t-7.5 16.5q-14 12 -36 -10q-14 -14 -26 -36q66 -16 102 -51q32 -32 32 -80t-40 -88q-27 -27 -77.5 -44.5t-105.5 -16.5q-41 0 -78 9q-49 -26 -49 -41q0 -13 39 -20q8 -1 168 -18q117 -10 154 -47q29 -29 29 -74q0 -56 -40 -94zM237 -197
q107 0 147 40q20 19 20 48q0 43 -68 53q-126 15 -179 22q-16 2 -23 4q-67 -34 -67 -78q0 -40 45 -64.5t125 -24.5z" />
    <glyph glyph-name="Gdotaccent" unicode="&#x120;" horiz-adv-x="699" 
d="M359 813q39 0 62 -22t23 -55t-25 -54t-62 -21q-41 0 -64 21t-23 52q0 34 26.5 56.5t62.5 22.5zM362 615q43 0 79.5 -13.5t56.5 -27t23 -13.5q8 0 31.5 20t42.5 41q2 2 9 0t7 -4q-11 -86 -11 -230q0 -4 -8.5 -5t-9.5 2q-53 110 -103 160q-49 47 -109 47q-74 0 -105 -61
q-30 -60 -30 -236q0 -105 5.5 -152t20.5 -76q29 -57 98 -57q29 0 50 11t29 26q7 15 7 109q0 93 -7 99q-4 5 -71 6q-1 0 -2 5.5t0 10.5t3 5q190 -2 315 5q3 0 3 -9.5t-2 -11.5q-54 -4 -56 -7q-6 -5 -6 -97q-1 -61 1 -160q0 -4 -7.5 -5.5t-10.5 1.5q-51 68 -64 68
q-4 0 -31 -19.5t-71.5 -39.5t-91.5 -20q-143 0 -235 92q-84 84 -84 205q0 133 99 230q99 101 235 101z" />
    <glyph glyph-name="gdotaccent" unicode="&#x121;" horiz-adv-x="517" 
d="M260 644q38 0 61 -22.5t23 -55.5t-24.5 -54.5t-61.5 -21.5q-40 0 -63 21.5t-23 52.5q0 34 26.5 57t61.5 23zM322 289q0 75 -10 96q-15 28 -56 28q-68 0 -68 -127q0 -67 13 -93q15 -29 53 -29q68 0 68 125zM472 -140q-37 -38 -100.5 -59t-139.5 -21q-100 0 -159.5 29.5
t-59.5 75.5q0 53 96 92q-64 23 -64 75q0 31 26 59q25 25 74 51q-49 17 -77.5 49t-28.5 79q0 48 35 83q64 62 186 62q30 0 57 -6q16 32 38 54q34 34 77 34q32 0 49 -16t17 -37q0 -20 -12 -31.5t-31 -11.5q-20 0 -36 14q-7 7 -11.5 19.5t-7.5 16.5q-14 12 -36 -10
q-14 -14 -26 -36q66 -16 102 -51q32 -32 32 -80t-40 -88q-27 -27 -77.5 -44.5t-105.5 -16.5q-41 0 -78 9q-49 -26 -49 -41q0 -13 39 -20q8 -1 168 -18q117 -10 154 -47q29 -29 29 -74q0 -56 -40 -94zM237 -197q107 0 147 40q20 19 20 48q0 43 -68 53q-126 15 -179 22
q-16 2 -23 4q-67 -34 -67 -78q0 -40 45 -64.5t125 -24.5z" />
    <glyph glyph-name="Gcommaaccent" unicode="&#x122;" horiz-adv-x="699" 
d="M362 615q43 0 79.5 -13.5t56.5 -27t23 -13.5q8 0 31.5 20t42.5 41q2 2 9 0t7 -4q-11 -86 -11 -230q0 -4 -8.5 -5t-9.5 2q-53 110 -103 160q-49 47 -109 47q-74 0 -105 -61q-30 -60 -30 -236q0 -105 5.5 -152t20.5 -76q29 -57 98 -57q29 0 50 11t29 26q7 15 7 109
q0 93 -7 99q-4 5 -71 6q-1 0 -2 5.5t0 10.5t3 5q190 -2 315 5q3 0 3 -9.5t-2 -11.5q-54 -4 -56 -7q-6 -5 -6 -97q-1 -61 1 -160q0 -4 -7.5 -5.5t-10.5 1.5q-51 68 -64 68q-4 0 -31 -19.5t-71.5 -39.5t-91.5 -20q-143 0 -235 92q-84 84 -84 205q0 133 99 230q99 101 235 101z
M342 -52q40 0 63.5 -26.5t23.5 -67.5q0 -98 -137 -138q-2 -1 -5 4t-4 9.5t1 5.5q44 14 74.5 38t30.5 50q0 8 -6 8q-2 0 -9 -5.5t-19 -11t-26 -5.5q-32 0 -50.5 18.5t-18.5 45.5q0 32 23 53.5t59 21.5z" />
    <glyph glyph-name="gcommaaccent" unicode="&#x123;" horiz-adv-x="517" 
d="M260 492q-40 0 -63.5 26.5t-23.5 67.5q0 98 137 138q2 1 5 -4t4 -9.5t-1 -5.5q-44 -14 -74.5 -38t-30.5 -50q0 -8 6 -8q2 0 9 5.5t19 11t26 5.5q32 0 50.5 -18.5t18.5 -45.5q0 -32 -23 -53.5t-59 -21.5zM322 289q0 75 -10 96q-15 28 -56 28q-68 0 -68 -127q0 -67 13 -93
q15 -29 53 -29q68 0 68 125zM472 -140q-37 -38 -100.5 -59t-139.5 -21q-100 0 -159.5 29.5t-59.5 75.5q0 53 96 92q-64 23 -64 75q0 31 26 59q25 25 74 51q-49 17 -77.5 49t-28.5 79q0 48 35 83q64 62 186 62q30 0 57 -6q16 32 38 54q34 34 77 34q32 0 49 -16t17 -37
q0 -20 -12 -31.5t-31 -11.5q-20 0 -36 14q-7 7 -11.5 19.5t-7.5 16.5q-14 12 -36 -10q-14 -14 -26 -36q66 -16 102 -51q32 -32 32 -80t-40 -88q-27 -27 -77.5 -44.5t-105.5 -16.5q-41 0 -78 9q-49 -26 -49 -41q0 -13 39 -20q8 -1 168 -18q117 -10 154 -47q29 -29 29 -74
q0 -56 -40 -94zM237 -197q107 0 147 40q20 19 20 48q0 43 -68 53q-126 15 -179 22q-16 2 -23 4q-67 -34 -67 -78q0 -40 45 -64.5t125 -24.5z" />
    <glyph glyph-name="Hbar" unicode="&#x126;" horiz-adv-x="758" 
d="M738 -1q-48 1 -332 1q-3 0 -2.5 10.5t2.5 10.5q59 1 63 5q6 8 6 115q0 19 0.5 74.5t0.5 94.5h-153q-37 0 -41 -2q-1 -97 -1 -217q0 -62 5 -67q3 -3 60 -4q1 0 2 -5t0 -10.5t-3 -5.5q-108 2 -168 2q-34 0 -94.5 -0.5t-69.5 -0.5q-3 1 -3 11.5t3 10.5q69 0 72 3q6 6 7 58
q2 138 2 263q0 82 -1 109h-67q-2 0 -3 5.5t-0.5 11.5t2.5 6h68v29q0 66 -8 76q-4 4 -69 5q-2 1 -2 11t4 10q217 -4 331 -2q2 0 2 -10t-2 -10q-59 -1 -64 -6q-4 -4 -4 -64v-38h196v29q0 71 -5 76q-4 4 -56 5q-1 0 -2 5t0 10t3 5q253 -2 327 0q2 0 2.5 -5t0 -10t-1.5 -5
q-66 -1 -70 -5q-7 -7 -8 -70q0 -22 -1 -35h70q4 0 3.5 -11.5t-3.5 -11.5h-70q-2 -88 -2 -146v-209q0 -68 7 -75q4 -4 68 -5q2 0 3 -5.5t-0.5 -11t-3.5 -5.5zM406 333q61 0 70 2q1 24 1 121q-32 0 -97.5 -0.5t-98.5 -0.5q0 -92 1 -121q6 0 51 -0.5t73 -0.5z" />
    <glyph glyph-name="hbar" unicode="&#x127;" horiz-adv-x="575" 
d="M570 -1q-140 3 -256 -1q-2 0 -3 5t-0.5 10t2.5 5q33 1 37 4q3 3 3 34q2 78 2 223q0 57 -7 72q-11 21 -34 21q-20 0 -40.5 -19.5t-31.5 -43.5q-15 -29 -15 -70q0 -25 -1 -96.5t-1 -79.5q0 -34 5 -39q4 -4 42 -6q3 0 3 -9.5t-3 -9.5q-37 1 -262 1q-3 0 -2.5 9.5t2.5 9.5
q52 2 56 6t4 43v88t-0.5 195.5t-0.5 167.5h-45q-3 0 -3 10.5t3 10.5h44v35q-1 43 -6 48q-4 4 -52 5q-2 0 -2.5 9.5t2.5 9.5q179 4 214 6q7 0 6 -10q0 -8 -0.5 -22.5t-1 -38t-0.5 -41.5h109q2 0 3 -5.5t0 -11t-2 -5.5h-110q0 -132 -1 -197h3q35 57 70 87t84 30q56 0 92 -36
q36 -35 36 -129q0 -40 -0.5 -107.5t-0.5 -88.5q0 -45 7 -54q4 -4 53 -5q1 0 2 -5t0 -10t-3 -5z" />
    <glyph glyph-name="Imacron" unicode="&#x12a;" horiz-adv-x="378" 
d="M342 754q0 -12 -0.5 -38.5t-0.5 -34.5q0 -5 -10 -5h-290q-4 0 -4 5q-2 61 0 71q1 6 9 6q25 0 71 -0.5t72 -0.5q98 0 148 1q5 0 5 -4zM22 608h166.5t165.5 -1q1 0 2 -5.5t0 -10.5t-3 -5q-58 0 -62 -4q-7 -7 -8 -103q-1 -54 -1 -205q0 -113 1 -168q0 -74 6 -78q4 -5 70 -6
q3 0 2.5 -10.5t-2.5 -11.5q-59 1 -172 1q-83 0 -169 -2q-3 0 -3 10.5t3 10.5q68 2 72 6q5 5 6 76q0 39 0.5 92.5t0.5 81.5q0 72 -2 206q0 93 -8 99q-5 5 -66 6q-1 0 -1.5 5.5t0 10.5t2.5 5z" />
    <glyph glyph-name="imacron" unicode="&#x12b;" horiz-adv-x="311" 
d="M301 591q0 -54 -1 -73q0 -5 -10 -5h-285q-4 0 -4 5v71q1 6 9 6q25 0 70.5 -0.5t70.5 -0.5q100 0 145 1q5 0 5 -4zM302 -1q-11 0 -145.5 0.5t-141.5 0.5q-2 0 -2 10t2 10q60 1 63 5q4 4 5 41q1 31 1 93q0 45 -4 213q0 24 -5 29q-4 4 -63 5q-2 0 -2 10t2 10q62 1 214 1
q11 0 11 -10v-280q0 -106 8 -112q4 -5 56 -6q2 0 3 -5t0.5 -10t-2.5 -5z" />
    <glyph glyph-name="Ibreve" unicode="&#x12c;" horiz-adv-x="378" 
d="M336 791q-11 -70 -47 -106t-104 -36q-64 0 -95.5 38.5t-42.5 105.5q0 3 9.5 5.5t11.5 -0.5q11 -26 22 -37q25 -25 96 -25q57 0 86 13.5t45 46.5q0 1 2.5 1t5 -0.5t5.5 -1t4.5 -2t1.5 -2.5zM22 608h166.5t165.5 -1q1 0 2 -5.5t0 -10.5t-3 -5q-58 0 -62 -4q-7 -7 -8 -103
q-1 -54 -1 -205q0 -113 1 -168q0 -74 6 -78q4 -5 70 -6q3 0 2.5 -10.5t-2.5 -11.5q-59 1 -172 1q-83 0 -169 -2q-3 0 -3 10.5t3 10.5q68 2 72 6q5 5 6 76q0 39 0.5 92.5t0.5 81.5q0 72 -2 206q0 93 -8 99q-5 5 -66 6q-1 0 -1.5 5.5t0 10.5t2.5 5z" />
    <glyph glyph-name="ibreve" unicode="&#x12d;" horiz-adv-x="311" 
d="M296 643q-11 -81 -50 -119q-35 -37 -99 -37t-95 42t-41 116q0 4 9.5 5.5t11.5 -0.5q8 -29 23 -44q27 -27 93 -27q55 0 84.5 16t44.5 53q0 1 3.5 0.5l7 -1t6 -2t2.5 -2.5zM302 -1q-11 0 -145.5 0.5t-141.5 0.5q-2 0 -2 10t2 10q60 1 63 5q4 4 5 41q1 31 1 93q0 45 -4 213
q0 24 -5 29q-4 4 -63 5q-2 0 -2 10t2 10q62 1 214 1q11 0 11 -10v-280q0 -106 8 -112q4 -5 56 -6q2 0 3 -5t0.5 -10t-2.5 -5z" />
    <glyph glyph-name="Iogonek" unicode="&#x12e;" horiz-adv-x="378" 
d="M289 -124q-40 -74 -114 -74q-37 0 -65.5 16t-28.5 49q0 32 28.5 62.5t100.5 71.5h-23q-83 0 -169 -2q-3 0 -3 10.5t3 10.5q68 2 72 6q5 5 6 76q0 39 0.5 92.5t0.5 81.5q0 72 -2 206q0 93 -8 99q-5 5 -66 6q-1 0 -1.5 5.5t0 10.5t2.5 5h166.5t165.5 -1q1 0 2 -5.5t0 -10.5
t-3 -5q-58 0 -62 -4q-7 -7 -8 -103q-1 -54 -1 -205q0 -113 1 -168q0 -74 6 -78q4 -5 70 -6q3 0 2.5 -10.5t-2.5 -11.5q-42 1 -123 1q-31 -32 -45.5 -59t-14.5 -61q0 -45 31 -45q33 0 66 50q2 2 5.5 0.5t7.5 -5t3 -5.5z" />
    <glyph glyph-name="iogonek" unicode="&#x12f;" horiz-adv-x="311" 
d="M250 588q0 -37 -29 -62t-68 -25t-62.5 24t-23.5 56q0 33 23 54q25 27 75 27q36 0 60.5 -21.5t24.5 -52.5zM257 -124q-40 -74 -114 -74q-37 0 -65.5 16t-28.5 49q0 31 28.5 61.5t97.5 70.5q-73 1 -160 1q-2 0 -2 10t2 10q60 1 63 5q4 4 5 41q1 31 1 93q0 129 -4 213
q0 24 -5 29q-4 4 -63 5q-2 0 -2 10t2 10q62 1 214 1q11 0 11 -10v-280q0 -106 8 -112q4 -5 56 -6q2 0 3 -5t0.5 -10t-2.5 -5h-100q-30 -31 -44 -57.5t-14 -60.5q0 -45 31 -45q33 0 66 50q2 2 5.5 0.5t7.5 -5t3 -5.5z" />
    <glyph glyph-name="Idotaccent" unicode="&#x130;" horiz-adv-x="378" 
d="M189 806q39 0 62 -22t23 -55t-25 -54t-62 -21q-41 0 -64 21t-23 52q0 34 26.5 56.5t62.5 22.5zM22 608h166.5t165.5 -1q1 0 2 -5.5t0 -10.5t-3 -5q-58 0 -62 -4q-7 -7 -8 -103q-1 -54 -1 -205q0 -113 1 -168q0 -74 6 -78q4 -5 70 -6q3 0 2.5 -10.5t-2.5 -11.5
q-59 1 -172 1q-83 0 -169 -2q-3 0 -3 10.5t3 10.5q68 2 72 6q5 5 6 76q0 39 0.5 92.5t0.5 81.5q0 72 -2 206q0 93 -8 99q-5 5 -66 6q-1 0 -1.5 5.5t0 10.5t2.5 5z" />
    <glyph glyph-name="dotlessi" unicode="&#x131;" horiz-adv-x="311" 
d="M302 -1q-11 0 -145.5 0.5t-141.5 0.5q-2 0 -2 10t2 10q60 1 63 5q4 4 5 41q1 31 1 93q0 45 -4 213q0 24 -5 29q-4 4 -63 5q-2 0 -2 10t2 10q62 1 214 1q11 0 11 -10v-280q0 -106 8 -112q4 -5 56 -6q2 0 3 -5t0.5 -10t-2.5 -5z" />
    <glyph glyph-name="Kcommaaccent" unicode="&#x136;" horiz-adv-x="732" 
d="M15 608q24 0 87.5 -0.5t79.5 -0.5q25 0 90.5 1t82.5 1q2 0 2.5 -10.5t-2.5 -10.5q-63 -2 -67 -6q-6 -6 -6 -100q0 -46 -1.5 -114t-1.5 -87h2q67 66 189 197q44 47 44 78q0 16 -15.5 23t-61.5 10q-3 0 -2.5 10t2.5 10q65 -1 262 -1q3 0 3 -10t-3 -11q-51 -4 -86 -21
q-40 -20 -96 -73q-47 -47 -74 -76q121 -219 189 -334q20 -34 34 -48q13 -13 57 -15q1 0 2 -5t0 -10.5t-3 -5.5q-52 2 -168 2q-31 1 -83 0t-66 -1q-2 0 -2 10.5t2 10.5q41 1 45 5q6 6 -8 34q-117 218 -123 228q-26 -24 -39 -37q0 -119 1 -164q0 -58 4 -63q4 -3 54 -4
q2 0 2 -10.5t-2 -10.5q-51 1 -173 1h-152q-3 0 -2.5 10.5t2.5 10.5q68 1 72 5q5 7 5 55q1 25 3 253q0 32 -0.5 89.5t-0.5 97.5q-1 57 -7 61q-4 4 -71 5q-2 0 -2 10.5t2 10.5zM353 -41q40 0 63.5 -26.5t23.5 -67.5q0 -98 -137 -138q-2 -1 -5 4t-4 9.5t1 5.5q44 14 74.5 38
t30.5 50q0 8 -6 8q-2 0 -9 -5.5t-19 -11t-26 -5.5q-32 0 -50.5 18.5t-18.5 45.5q0 32 23 53.5t59 21.5z" />
    <glyph glyph-name="kcommaaccent" unicode="&#x137;" horiz-adv-x="564" 
d="M13 648q55 3 212 0q6 0 6 -8q-3 -243 -6 -450h1q91 93 126 132q33 34 33 57q0 15 -12.5 20.5t-50.5 7.5q-2 0 -2.5 5t1 10t3.5 5q58 -2 107 -2q71 0 115 1q2 0 2 -9t-2 -10q-49 -5 -79 -21q-51 -25 -102 -79q103 -196 129 -241q16 -28 25 -37t46 -10q2 0 2.5 -9.5
t-2.5 -9.5q-25 0 -129.5 0.5t-123.5 -1.5q-2 0 -2 9.5t2 9.5q28 2 32 6q4 3 -3 17q-7 15 -38.5 76.5t-40.5 80.5q-8 -7 -37 -36v-116q0 -20 3 -24q3 -3 40 -4q1 0 1.5 -4.5t0 -9.5t-2.5 -5h-258q-1 0 -2 5t-0.5 10t2.5 5q51 2 55 6q4 3 4 33q2 96 2 273q0 172 -1 257
q0 32 -4 36t-53 4q-2 0 -2.5 5t0.5 10t3 5zM280 -44q40 0 63.5 -26.5t23.5 -67.5q0 -98 -137 -138q-2 -1 -5 4t-4 9.5t1 5.5q44 14 74.5 38t30.5 50q0 8 -6 8q-2 0 -9 -5.5t-19 -11t-26 -5.5q-32 0 -50.5 18.5t-18.5 45.5q0 32 23 53.5t59 21.5z" />
    <glyph glyph-name="Lacute" unicode="&#x139;" horiz-adv-x="612" 
d="M186 637q-1 0 -3 2.5t-3.5 6t-1.5 4.5q28 20 47 38q29 26 75 74q32 32 67 32q23 0 38 -15t15 -36q0 -38 -59 -58q-37 -15 -175 -48zM18 609q88 -2 174 -2h173q1 0 1.5 -5.5t-0.5 -10.5t-2 -5q-74 -1 -77 -4q-6 -6 -6 -152q-1 -92 -1 -292q0 -107 3 -109q5 -5 49 -5
q80 0 116 38q57 55 112 207q2 4 11 4t9 -5q-3 -186 -8 -262q0 -8 -9 -8q-51 2 -255 2q-234 0 -296 -1q-3 0 -2.5 11t2.5 11q72 1 75 4q4 4 4 67q0 26 1.5 163.5t1.5 194.5q0 127 -5 132t-72 6q-1 0 -2 5t0 10.5t3 5.5z" />
    <glyph glyph-name="lacute" unicode="&#x13a;" horiz-adv-x="315" 
d="M93 691q-1 0 -3 2.5t-3.5 6t-1.5 4.5q28 20 47 38q29 26 75 74q32 32 67 32q23 0 38 -15t15 -36q0 -38 -59 -58q-37 -15 -175 -48zM15 649h212q9 0 9 -11q-1 -105 -1 -311q0 -117 -2 -261q0 -32 7 -41q4 -4 59 -6q1 0 1.5 -5.5t0 -10.5t-2.5 -5q-89 3 -284 3q-2 0 -2 10
t2 10q53 0 57 4t4 27q3 141 3 201q0 234 -1 338q-1 30 -4 33q-4 4 -59 5q-3 1 -2.5 10.5t3.5 9.5z" />
    <glyph glyph-name="Lcommaaccent" unicode="&#x13b;" horiz-adv-x="612" 
d="M18 609q88 -2 174 -2h173q1 0 1.5 -5.5t-0.5 -10.5t-2 -5q-74 -1 -77 -4q-6 -6 -6 -152q-1 -92 -1 -292q0 -107 3 -109q5 -5 49 -5q80 0 116 38q57 55 112 207q2 4 11 4t9 -5q-3 -186 -8 -262q0 -8 -9 -8q-51 2 -255 2q-234 0 -296 -1q-3 0 -2.5 11t2.5 11q72 1 75 4
q4 4 4 67q0 26 1.5 163.5t1.5 194.5q0 127 -5 132t-72 6q-1 0 -2 5t0 10.5t3 5.5zM293 -45q40 0 63.5 -26.5t23.5 -67.5q0 -98 -137 -138q-2 -1 -5 4t-4 9.5t1 5.5q44 14 74.5 38t30.5 50q0 8 -6 8q-2 0 -9 -5.5t-19 -11t-26 -5.5q-32 0 -50.5 18.5t-18.5 45.5q0 32 23 53.5
t59 21.5z" />
    <glyph glyph-name="lcommaaccent" unicode="&#x13c;" horiz-adv-x="315" 
d="M15 649h212q9 0 9 -11q-1 -105 -1 -311q0 -117 -2 -261q0 -32 7 -41q4 -4 59 -6q1 0 1.5 -5.5t0 -10.5t-2.5 -5q-89 3 -284 3q-2 0 -2 10t2 10q53 0 57 4t4 27q3 141 3 201q0 234 -1 338q-1 30 -4 33q-4 4 -59 5q-3 1 -2.5 10.5t3.5 9.5zM151 -45q40 0 63.5 -26.5
t23.5 -67.5q0 -98 -137 -138q-2 -1 -5 4t-4 9.5t1 5.5q44 14 74.5 38t30.5 50q0 8 -6 8q-2 0 -9 -5.5t-19 -11t-26 -5.5q-32 0 -50.5 18.5t-18.5 45.5q0 32 23 53.5t59 21.5z" />
    <glyph glyph-name="Lcaron" unicode="&#x13d;" horiz-adv-x="612" 
d="M427 395q-2 -3 -8.5 0.5t-5.5 6.5q11 36 13 69t-1 74t-3 54q0 31 15.5 49.5t41.5 18.5q24 0 37 -16.5t13 -40.5q0 -79 -102 -215zM18 609q88 -2 174 -2h173q1 0 1.5 -5.5t-0.5 -10.5t-2 -5q-74 -1 -77 -4q-6 -6 -6 -152q-1 -92 -1 -292q0 -107 3 -109q5 -5 49 -5
q80 0 116 38q57 55 112 207q2 4 11 4t9 -5q-3 -186 -8 -262q0 -8 -9 -8q-51 2 -255 2q-234 0 -296 -1q-3 0 -2.5 11t2.5 11q72 1 75 4q4 4 4 67q0 26 1.5 163.5t1.5 194.5q0 127 -5 132t-72 6q-1 0 -2 5t0 10.5t3 5.5z" />
    <glyph glyph-name="lcaron" unicode="&#x13e;" horiz-adv-x="315" 
d="M285 401q-2 -3 -8.5 0.5t-5.5 6.5q11 36 13 69t-1 74t-3 54q0 31 15.5 49.5t41.5 18.5q24 0 37 -16.5t13 -40.5q0 -79 -102 -215zM15 649h212q9 0 9 -11q-1 -105 -1 -311q0 -117 -2 -261q0 -32 7 -41q4 -4 59 -6q1 0 1.5 -5.5t0 -10.5t-2.5 -5q-89 3 -284 3q-2 0 -2 10
t2 10q53 0 57 4t4 27q3 141 3 201q0 234 -1 338q-1 30 -4 33q-4 4 -59 5q-3 1 -2.5 10.5t3.5 9.5z" />
    <glyph glyph-name="Ldot" unicode="&#x13f;" horiz-adv-x="612" 
d="M18 609q88 -2 174 -2h173q1 0 1.5 -5.5t-0.5 -10.5t-2 -5q-74 -1 -77 -4q-6 -6 -6 -152q-1 -92 -1 -292q0 -107 3 -109q5 -5 46 -5q51 0 82 11t58 38q50 51 91 154q2 3 11 2.5t9 -4.5q-2 -136 -8 -219q0 -8 -9 -8q-51 2 -255 2q-234 0 -296 -1q-3 0 -2.5 11t2.5 11
q72 1 75 4q4 4 4 67q0 26 1.5 163.5t1.5 194.5q0 127 -5 132t-72 6q-1 0 -2 5t0 10.5t3 5.5zM576 355q0 -37 -26.5 -61t-60.5 -24q-36 0 -57 21t-21 50q0 33 26.5 54.5t62.5 21.5q34 0 55 -18t21 -44z" />
    <glyph glyph-name="ldot" unicode="&#x140;" horiz-adv-x="405" 
d="M15 649h212q9 0 9 -11q-1 -105 -1 -311q0 -117 -2 -261q0 -32 7 -41q4 -4 59 -6q1 0 1.5 -5.5t0 -10.5t-2.5 -5q-89 3 -284 3q-2 0 -2 10t2 10q53 0 57 4t4 27q3 141 3 201q0 234 -1 338q-1 30 -4 33q-4 4 -59 5q-3 1 -2.5 10.5t3.5 9.5zM426 308q0 -37 -20 -59.5
t-49 -22.5q-31 0 -51 24.5t-20 57.5q0 36 20.5 58.5t49.5 22.5q31 0 50.5 -24t19.5 -57z" />
    <glyph glyph-name="Lslash" unicode="&#x141;" horiz-adv-x="622" 
d="M573 -2q-51 2 -255 2q-234 0 -296 -1q-3 0 -2.5 11t2.5 11q72 1 75 4q4 4 4 67q0 24 0.5 71t0.5 71q-23 -11 -65 -32q-3 0 -7 9t-2 11l35 17.5t40 19.5q0 37 0.5 101t0.5 90q0 127 -5 132t-72 6q-1 0 -2 5t0 10.5t3 5.5q88 -2 174 -2h173q1 0 1.5 -5.5t-0.5 -10.5t-2 -5
q-74 -1 -77 -4q-6 -6 -6 -152q0 -18 -0.5 -44.5t-0.5 -38.5q110 52 142 67q2 1 5.5 -4t4.5 -10t-1 -7q-19 -9 -70 -33t-81 -38v-184q0 -107 3 -109q5 -5 49 -5q80 0 116 38q57 55 112 207q2 4 11 4t9 -5q-3 -186 -8 -262q0 -8 -9 -8z" />
    <glyph glyph-name="lslash" unicode="&#x142;" horiz-adv-x="332" 
d="M308 -2q-89 3 -284 3q-2 0 -2 10t2 10q53 0 57 4t4 27q3 141 3 201v21q-7 -4 -58 -34q-2 0 -5.5 4.5t-5 9.5t-0.5 6q40 23 69 41q0 198 -1 290q-1 30 -4 33q-4 4 -59 5q-3 1 -2.5 10.5t3.5 9.5h212q9 0 9 -11q-1 -83 -1 -244q29 18 58 35q2 1 5.5 -4t5 -10t-0.5 -7
q-8 -5 -31 -18.5t-37 -21.5v-41q0 -117 -2 -261q0 -32 7 -41q4 -4 59 -6q1 0 1.5 -5.5t0 -10.5t-2.5 -5z" />
    <glyph glyph-name="Nacute" unicode="&#x143;" horiz-adv-x="683" 
d="M282 646q-1 0 -3 2.5t-3.5 6t-1.5 4.5q28 20 47 38q29 26 75 74q32 32 67 32q23 0 38 -15t15 -36q0 -38 -59 -58q-37 -15 -175 -48zM471 610q9 0 33.5 -1.5t46.5 -2t38 -0.5q36 0 78 3q3 0 3.5 -9t-1.5 -10q-41 -7 -53 -19q-12 -13 -17 -46.5t-5 -122.5q0 -44 -1 -114
t-1 -104q0 -36 1 -98t1 -90q0 -5 -61 -5q-36 0 -38 2q-176 265 -370 527h-2q0 -53 0.5 -111.5t1.5 -131t1 -116.5q1 -102 21 -124q12 -12 78 -20q1 0 1.5 -5t-0.5 -10t-3 -5q-42 3 -112 3q-28 0 -100 -2q-3 0 -3 9.5t2 10.5q47 5 64 20q24 26 24 148q0 43 -1.5 160.5
t-0.5 193.5q0 12 -19 31q-13 14 -70 17q-2 1 -2 11t3 10q70 -2 116 -2q33 0 161 4q8 -1 27 -28q58 -85 251 -358h2q0 24 0.5 82t0.5 86q0 153 -24 177q-14 14 -72 21q-3 1 -2 10t3 9z" />
    <glyph glyph-name="nacute" unicode="&#x144;" horiz-adv-x="578" 
d="M234 481q-2 -1 -6 5t-2 8q20 18 44 41q24 25 71 83q31 36 65 36q24 0 39 -14t15 -35q0 -39 -55 -61q-43 -21 -171 -63zM15 -2q-2 1 -2 11t2 10q52 1 55 4q5 7 5 85v227q0 57 -7 64q-4 5 -54 6q-1 0 -2 5t0 10t3 5q128 0 212 2q7 0 7 -10q0 -13 -1 -51t-2 -50l3 -1
q29 61 65 94t91 33q127 0 127 -146q0 -19 -0.5 -75.5t-0.5 -88.5q0 -102 6 -108q3 -3 49 -6q5 0 3 -15q-1 -4 -3 -4q-109 2 -249 0q-2 0 -3 5t-0.5 10t1.5 5q34 3 36 5q3 3 3 42v245q0 58 -40 58q-42 0 -74 -64q-14 -28 -14 -75q0 -12 0.5 -80t0.5 -87q0 -35 4 -39
q2 -2 42 -5q2 0 2.5 -5t-0.5 -10t-3 -5q-171 2 -262 -1z" />
    <glyph glyph-name="Ncommaaccent" unicode="&#x145;" horiz-adv-x="683" 
d="M471 610q9 0 33.5 -1.5t46.5 -2t38 -0.5q36 0 78 3q3 0 3.5 -9t-1.5 -10q-41 -7 -53 -19q-12 -13 -17 -46.5t-5 -122.5q0 -44 -1 -114t-1 -104q0 -36 1 -98t1 -90q0 -5 -61 -5q-36 0 -38 2q-176 265 -370 527h-2q0 -53 0.5 -111.5t1.5 -131t1 -116.5q1 -102 21 -124
q12 -12 78 -20q1 0 1.5 -5t-0.5 -10t-3 -5q-42 3 -112 3q-28 0 -100 -2q-3 0 -3 9.5t2 10.5q47 5 64 20q24 26 24 148q0 43 -1.5 160.5t-0.5 193.5q0 12 -19 31q-13 14 -70 17q-2 1 -2 11t3 10q70 -2 116 -2q33 0 161 4q8 -1 27 -28q58 -85 251 -358h2q0 24 0.5 82t0.5 86
q0 153 -24 177q-14 14 -72 21q-3 1 -2 10t3 9zM330 -41q40 0 63.5 -26.5t23.5 -67.5q0 -98 -137 -138q-2 -1 -5 4t-4 9.5t1 5.5q44 14 74.5 38t30.5 50q0 8 -6 8q-2 0 -9 -5.5t-19 -11t-26 -5.5q-32 0 -50.5 18.5t-18.5 45.5q0 32 23 53.5t59 21.5z" />
    <glyph glyph-name="ncommaaccent" unicode="&#x146;" horiz-adv-x="578" 
d="M15 -2q-2 1 -2 11t2 10q52 1 55 4q5 7 5 85v227q0 57 -7 64q-4 5 -54 6q-1 0 -2 5t0 10t3 5q128 0 212 2q7 0 7 -10q0 -13 -1 -51t-2 -50l3 -1q29 61 65 94t91 33q127 0 127 -146q0 -19 -0.5 -75.5t-0.5 -88.5q0 -102 6 -108q3 -3 49 -6q5 0 3 -15q-1 -4 -3 -4
q-109 2 -249 0q-2 0 -3 5t-0.5 10t1.5 5q34 3 36 5q3 3 3 42v245q0 58 -40 58q-42 0 -74 -64q-14 -28 -14 -75q0 -12 0.5 -80t0.5 -87q0 -35 4 -39q2 -2 42 -5q2 0 2.5 -5t-0.5 -10t-3 -5q-171 2 -262 -1zM292 -44q40 0 63.5 -26.5t23.5 -67.5q0 -98 -137 -138q-2 -1 -5 4
t-4 9.5t1 5.5q44 14 74.5 38t30.5 50q0 8 -6 8q-2 0 -9 -5.5t-19 -11t-26 -5.5q-32 0 -50.5 18.5t-18.5 45.5q0 32 23 53.5t59 21.5z" />
    <glyph glyph-name="Ncaron" unicode="&#x147;" horiz-adv-x="683" 
d="M501 789q-27 -31 -53 -65t-40 -53t-15 -20q-5 -3 -44.5 -3t-44.5 4q-2 3 -18 25t-38.5 52t-44.5 55q-1 1 1 4.5t5.5 6t6.5 2.5q73 -40 139 -68q72 36 135 73q2 1 7 -5.5t4 -7.5zM471 610q9 0 33.5 -1.5t46.5 -2t38 -0.5q36 0 78 3q3 0 3.5 -9t-1.5 -10q-41 -7 -53 -19
q-12 -13 -17 -46.5t-5 -122.5q0 -44 -1 -114t-1 -104q0 -36 1 -98t1 -90q0 -5 -61 -5q-36 0 -38 2q-176 265 -370 527h-2q0 -53 0.5 -111.5t1.5 -131t1 -116.5q1 -102 21 -124q12 -12 78 -20q1 0 1.5 -5t-0.5 -10t-3 -5q-42 3 -112 3q-28 0 -100 -2q-3 0 -3 9.5t2 10.5
q47 5 64 20q24 26 24 148q0 43 -1.5 160.5t-0.5 193.5q0 12 -19 31q-13 14 -70 17q-2 1 -2 11t3 10q70 -2 116 -2q33 0 161 4q8 -1 27 -28q58 -85 251 -358h2q0 24 0.5 82t0.5 86q0 153 -24 177q-14 14 -72 21q-3 1 -2 10t3 9z" />
    <glyph glyph-name="ncaron" unicode="&#x148;" horiz-adv-x="578" 
d="M438 643q-27 -34 -53 -71.5t-39.5 -58.5t-14.5 -22q-5 -2 -43.5 -2t-43.5 2q-1 1 -15.5 23.5t-38.5 58.5t-46 64q-2 2 3 8.5t9 5.5q71 -44 138 -77q61 34 133 82q2 1 7.5 -5t3.5 -8zM15 -2q-2 1 -2 11t2 10q52 1 55 4q5 7 5 85v227q0 57 -7 64q-4 5 -54 6q-1 0 -2 5t0 10
t3 5q128 0 212 2q7 0 7 -10q0 -13 -1 -51t-2 -50l3 -1q29 61 65 94t91 33q127 0 127 -146q0 -19 -0.5 -75.5t-0.5 -88.5q0 -102 6 -108q3 -3 49 -6q5 0 3 -15q-1 -4 -3 -4q-109 2 -249 0q-2 0 -3 5t-0.5 10t1.5 5q34 3 36 5q3 3 3 42v245q0 58 -40 58q-42 0 -74 -64
q-14 -28 -14 -75q0 -12 0.5 -80t0.5 -87q0 -35 4 -39q2 -2 42 -5q2 0 2.5 -5t-0.5 -10t-3 -5q-171 2 -262 -1z" />
    <glyph glyph-name="Omacron" unicode="&#x14c;" horiz-adv-x="735" 
d="M529 761q0 -12 -0.5 -38.5t-0.5 -34.5q0 -5 -10 -5h-290q-4 0 -4 5q-2 61 0 71q1 6 9 6q25 0 71 -0.5t72 -0.5q98 0 148 1q5 0 5 -4zM357 -12q-69 0 -135.5 29.5t-109.5 72.5q-85 85 -85 213q0 117 93 210q105 105 263 105q144 0 243 -99q82 -82 82 -201
q0 -132 -100 -230q-100 -100 -251 -100zM266 535q-31 -64 -31 -254q0 -155 27 -211q29 -59 101 -59q75 0 106 63q32 64 32 232q0 184 -28 240q-24 50 -100 50q-75 0 -107 -61z" />
    <glyph glyph-name="omacron" unicode="&#x14d;" horiz-adv-x="554" 
d="M432 594q0 -54 -1 -73q0 -5 -10 -5h-285q-4 0 -4 5v71q1 6 9 6q25 0 70.5 -0.5t70.5 -0.5q100 0 145 1q5 0 5 -4zM530 211q0 -82 -67 -149q-75 -75 -186 -75q-56 0 -108 22.5t-87 57.5q-58 58 -58 144t65 151q79 79 196 79q107 0 183 -76q62 -62 62 -154zM357 249
q0 107 -16 138q-17 33 -57 33q-45 0 -63 -40q-21 -40 -21 -170q0 -114 19 -158t59 -44t58 35q21 42 21 206z" />
    <glyph glyph-name="Obreve" unicode="&#x14e;" horiz-adv-x="735" 
d="M523 798q-11 -70 -47 -106t-104 -36q-64 0 -95.5 38.5t-42.5 105.5q0 3 10 5.5t11 -0.5q11 -26 22 -37q25 -25 96 -25q57 0 86 13.5t45 46.5q0 1 2.5 1t5 -0.5t5.5 -1t4.5 -2t1.5 -2.5zM357 -12q-69 0 -135.5 29.5t-109.5 72.5q-85 85 -85 213q0 117 93 210
q105 105 263 105q144 0 243 -99q82 -82 82 -201q0 -132 -100 -230q-100 -100 -251 -100zM266 535q-31 -64 -31 -254q0 -155 27 -211q29 -59 101 -59q75 0 106 63q32 64 32 232q0 184 -28 240q-24 50 -100 50q-75 0 -107 -61z" />
    <glyph glyph-name="obreve" unicode="&#x14f;" horiz-adv-x="554" 
d="M427 646q-11 -81 -50 -119q-35 -37 -99 -37t-95 42t-41 116q0 4 10 5.5t11 -0.5q8 -29 23 -44q27 -27 93 -27q55 0 84.5 16t44.5 53q0 1 3.5 0.5l7 -1t6 -2t2.5 -2.5zM530 211q0 -82 -67 -149q-75 -75 -186 -75q-56 0 -108 22.5t-87 57.5q-58 58 -58 144t65 151
q79 79 196 79q107 0 183 -76q62 -62 62 -154zM357 249q0 107 -16 138q-17 33 -57 33q-45 0 -63 -40q-21 -40 -21 -170q0 -114 19 -158t59 -44t58 35q21 42 21 206z" />
    <glyph glyph-name="Ohungarumlaut" unicode="&#x150;" horiz-adv-x="735" 
d="M279 651q-1 -1 -5 4t-4 7q12 13 26 36q22 31 53 80q22 40 61 40q20 0 34 -12.5t14 -31.5q0 -30 -41 -56q-33 -21 -138 -67zM419 652q-2 -1 -5.5 4.5t-2.5 6.5q13 14 30 36q25 30 57 75q29 41 65 41q19 0 31.5 -12.5t12.5 -30.5q0 -33 -41 -57q-30 -18 -147 -63zM357 -12
q-69 0 -135.5 29.5t-109.5 72.5q-85 85 -85 213q0 117 93 210q105 105 263 105q144 0 243 -99q82 -82 82 -201q0 -132 -100 -230q-100 -100 -251 -100zM266 535q-31 -64 -31 -254q0 -155 27 -211q29 -59 101 -59q75 0 106 63q32 64 32 232q0 184 -28 240q-24 50 -100 50
q-75 0 -107 -61z" />
    <glyph glyph-name="ohungarumlaut" unicode="&#x151;" horiz-adv-x="554" 
d="M187 479q-1 -1 -5.5 3.5t-3.5 6.5q11 17 22 39q11 19 45 87q23 45 60 45q20 0 34 -12t14 -31q0 -30 -36 -58q-34 -27 -130 -80zM324 479q-2 0 -6 4.5t-3 6.5q6 7 15 20t13 19q21 28 52 83q25 46 62 46q19 0 32 -12t13 -31q0 -32 -37 -59q-27 -20 -141 -77zM530 211
q0 -82 -67 -149q-75 -75 -186 -75q-56 0 -108 22.5t-87 57.5q-58 58 -58 144t65 151q79 79 196 79q107 0 183 -76q62 -62 62 -154zM357 249q0 107 -16 138q-17 33 -57 33q-45 0 -63 -40q-21 -40 -21 -170q0 -114 19 -158t59 -44t58 35q21 42 21 206z" />
    <glyph glyph-name="OE" unicode="&#x152;" horiz-adv-x="1010" 
d="M396 23q38 0 43 3q4 4 4 299q0 253 -5 257q-3 4 -41 4q-100 0 -139 -78q-26 -55 -26 -209q0 -151 28 -207q35 -69 136 -69zM370 -1q-169 0 -261 92q-81 81 -81 193q0 129 94 223q100 102 270 102q35 0 124 -1t124 -1q128 0 304 2q5 0 5 -7q-4 -58 -9 -225q0 -2 -8 -2.5
t-10 1.5q-17 41 -27 62t-29 54t-36.5 49.5t-43.5 29.5t-56 13h-93q-5 0 -5 -6q-3 -193 -2 -245q0 -7 5 -7q24 0 42 1q60 2 87 55q7 14 20 73q1 2 9 2t8 -4q-2 -82 -2 -137q0 -7 3 -139q0 -3 -8 -3.5t-9 1.5q-13 57 -24 77q-25 49 -73 49h-50q-7 0 -7 -4q0 -35 -0.5 -87
t-0.5 -81q0 -96 4 -101q7 -5 55 -5q45 0 58 1q54 0 96 42q56 56 97 190q1 3 11 3t10 -4q-7 -190 -6 -251q0 -4 -5 -4q-47 0 -151.5 0.5t-168.5 0.5q-31 0 -125 -1t-135 -1z" />
    <glyph glyph-name="oe" unicode="&#x153;" horiz-adv-x="844" 
d="M355 239q0 116 -16 148q-17 32 -57 32q-45 0 -63 -40q-20 -39 -20 -154q0 -139 20 -180q17 -34 59 -34q41 0 58 33q19 39 19 195zM667 242q0 111 -17 144q-15 32 -55 32q-37 0 -53 -33q-19 -39 -21 -148q0 -4 4 -4q11 0 41 0.5t41 0.5h57q3 1 3 8zM816 211h-170
q-46 0 -118 -2q-8 0 -8 -4q2 -91 21 -129q29 -57 105 -57q99 0 148 113q3 4 12.5 -1t7.5 -9q-20 -49 -48 -77q-58 -58 -148 -58q-109 0 -177 65q-3 2 -7 0q-25 -28 -69 -46t-89 -18q-53 0 -105.5 21.5t-87.5 56.5q-59 59 -59 144q0 86 64 150q80 80 199 80q90 0 154 -67
q3 -3 6 0q65 67 156 67q95 0 157 -62q60 -58 60 -163q0 -4 -4 -4z" />
    <glyph glyph-name="Racute" unicode="&#x154;" horiz-adv-x="723" 
d="M280 647q-1 0 -3 2.5t-3.5 6t-1.5 4.5q28 20 47 38q29 26 75 74q32 32 67 32q23 0 38 -15t15 -36q0 -38 -59 -58q-37 -15 -175 -48zM14 608h170q18 0 93.5 0.5t95.5 0.5q174 0 241 -67q31 -31 31 -82q0 -70 -61 -112t-158 -52v-3q93 -14 136 -45t58 -104q14 -65 21.5 -82
t22.5 -17q30 0 48 87q1 1 4 0.5t7 -1.5t6.5 -3t2.5 -3q-14 -70 -47 -102.5t-95 -32.5q-72 0 -107 36q-41 41 -62 162q-12 60 -28 78t-54 18h-52q-5 0 -5 -4q-1 -80 -1 -221q0 -30 3 -33q4 -4 77 -6q3 0 3 -11t-3 -11q-177 6 -348 1q-2 0 -2.5 11t2.5 11q70 1 74 5q5 7 5 45
q0 86 1 169.5t1 87.5q0 52 -0.5 129t-0.5 78q0 41 -5 48q-3 3 -75 4q-1 0 -2 5.5t0 10.5t3 5zM283 585q-2 -2 -2 -34q0 -6 0.5 -84t0.5 -121q0 -36 1 -39q2 -2 46 -2q85 0 105 41q14 28 14 110q0 63 -14 91q-20 39 -100 39q-49 0 -51 -1z" />
    <glyph glyph-name="racute" unicode="&#x155;" horiz-adv-x="483" 
d="M182 478q-2 -1 -6 5t-2 8q20 18 44 41q24 25 71 83q31 36 65 36q24 0 39 -14t15 -35q0 -39 -55 -61q-43 -21 -171 -63zM10 20q57 1 60 4q4 4 6 56q0 18 -0.5 115t-0.5 117q0 81 -8 87q-3 4 -55 5q-2 0 -2.5 5t0.5 10.5t3 5.5q26 0 104.5 1.5t99.5 1.5q9 0 11.5 -3.5
t2.5 -13.5q0 -1 -3 -115l3 -1q25 69 56.5 106t80.5 37q45 0 74 -27t29 -69t-25 -69t-60 -27q-33 0 -55 18.5t-22 49.5q0 21 9.5 39t19 28.5t9.5 13.5q0 5 -12 5q-17 0 -37 -21t-36 -52q-31 -63 -31 -138v-89q1 -70 6 -75q3 -3 68 -5q2 0 2.5 -5t-0.5 -10.5t-3 -5.5
q-8 0 -143.5 0.5t-150.5 0.5q-2 0 -2.5 10t2.5 10z" />
    <glyph glyph-name="Rcommaaccent" unicode="&#x156;" horiz-adv-x="723" 
d="M14 608h170q18 0 93.5 0.5t95.5 0.5q174 0 241 -67q31 -31 31 -82q0 -70 -61 -112t-158 -52v-3q93 -14 136 -45t58 -104q14 -65 21.5 -82t22.5 -17q30 0 48 87q1 1 4 0.5t7 -1.5t6.5 -3t2.5 -3q-14 -70 -47 -102.5t-95 -32.5q-72 0 -107 36q-41 41 -62 162q-12 60 -28 78
t-54 18h-52q-5 0 -5 -4q-1 -80 -1 -221q0 -30 3 -33q4 -4 77 -6q3 0 3 -11t-3 -11q-177 6 -348 1q-2 0 -2.5 11t2.5 11q70 1 74 5q5 7 5 45q0 86 1 169.5t1 87.5q0 52 -0.5 129t-0.5 78q0 41 -5 48q-3 3 -75 4q-1 0 -2 5.5t0 10.5t3 5zM283 585q-2 -2 -2 -34q0 -6 0.5 -84
t0.5 -121q0 -36 1 -39q2 -2 46 -2q85 0 105 41q14 28 14 110q0 63 -14 91q-20 39 -100 39q-49 0 -51 -1zM361 -41q40 0 63.5 -26.5t23.5 -67.5q0 -98 -137 -138q-2 -1 -5 4t-4 9.5t1 5.5q44 14 74.5 38t30.5 50q0 8 -6 8q-2 0 -9 -5.5t-19 -11t-26 -5.5q-32 0 -50.5 18.5
t-18.5 45.5q0 32 23 53.5t59 21.5z" />
    <glyph glyph-name="rcommaaccent" unicode="&#x157;" horiz-adv-x="483" 
d="M10 20q57 1 60 4q4 4 6 56q0 18 -0.5 115t-0.5 117q0 81 -8 87q-3 4 -55 5q-2 0 -2.5 5t0.5 10.5t3 5.5q26 0 104.5 1.5t99.5 1.5q9 0 11.5 -3.5t2.5 -13.5q0 -1 -3 -115l3 -1q25 69 56.5 106t80.5 37q45 0 74 -27t29 -69t-25 -69t-60 -27q-33 0 -55 18.5t-22 49.5
q0 21 9.5 39t19 28.5t9.5 13.5q0 5 -12 5q-17 0 -37 -21t-36 -52q-31 -63 -31 -138v-89q1 -70 6 -75q3 -3 68 -5q2 0 2.5 -5t-0.5 -10.5t-3 -5.5q-8 0 -143.5 0.5t-150.5 0.5q-2 0 -2.5 10t2.5 10zM152 -45q40 0 63.5 -26.5t23.5 -67.5q0 -98 -137 -138q-2 -1 -5 4t-4 9.5
t1 5.5q44 14 74.5 38t30.5 50q0 8 -6 8q-2 0 -9 -5.5t-19 -11t-26 -5.5q-32 0 -50.5 18.5t-18.5 45.5q0 32 23 53.5t59 21.5z" />
    <glyph glyph-name="Rcaron" unicode="&#x158;" horiz-adv-x="723" 
d="M499 790q-27 -31 -53 -65t-40 -53t-15 -20q-5 -2 -44.5 -2t-44.5 3q-2 3 -18 25t-38.5 52t-44.5 55q-1 1 1 4.5t5.5 6t6.5 2.5q73 -40 139 -68q72 36 135 73q2 1 7 -5.5t4 -7.5zM14 608h170q18 0 93.5 0.5t95.5 0.5q174 0 241 -67q31 -31 31 -82q0 -70 -61 -112t-158 -52
v-3q93 -14 136 -45t58 -104q14 -65 21.5 -82t22.5 -17q30 0 48 87q1 1 4 0.5t7 -1.5t6.5 -3t2.5 -3q-14 -70 -47 -102.5t-95 -32.5q-72 0 -107 36q-41 41 -62 162q-12 60 -28 78t-54 18h-52q-5 0 -5 -4q-1 -80 -1 -221q0 -30 3 -33q4 -4 77 -6q3 0 3 -11t-3 -11
q-177 6 -348 1q-2 0 -2.5 11t2.5 11q70 1 74 5q5 7 5 45q0 86 1 169.5t1 87.5q0 52 -0.5 129t-0.5 78q0 41 -5 48q-3 3 -75 4q-1 0 -2 5.5t0 10.5t3 5zM283 585q-2 -2 -2 -34q0 -6 0.5 -84t0.5 -121q0 -36 1 -39q2 -2 46 -2q85 0 105 41q14 28 14 110q0 63 -14 91
q-20 39 -100 39q-49 0 -51 -1z" />
    <glyph glyph-name="rcaron" unicode="&#x159;" horiz-adv-x="483" 
d="M386 640q-27 -34 -53 -71.5t-39.5 -58.5t-14.5 -22q-5 -2 -43.5 -2t-43.5 2q-1 1 -15.5 23.5t-38.5 58.5t-46 64q-2 2 3 8.5t9 5.5q71 -44 138 -77q61 34 133 82q2 1 7.5 -5t3.5 -8zM10 20q57 1 60 4q4 4 6 56q0 18 -0.5 115t-0.5 117q0 81 -8 87q-3 4 -55 5q-2 0 -2.5 5
t0.5 10.5t3 5.5q26 0 104.5 1.5t99.5 1.5q9 0 11.5 -3.5t2.5 -13.5q0 -1 -3 -115l3 -1q25 69 56.5 106t80.5 37q45 0 74 -27t29 -69t-25 -69t-60 -27q-33 0 -55 18.5t-22 49.5q0 21 9.5 39t19 28.5t9.5 13.5q0 5 -12 5q-17 0 -37 -21t-36 -52q-31 -63 -31 -138v-89
q1 -70 6 -75q3 -3 68 -5q2 0 2.5 -5t-0.5 -10.5t-3 -5.5q-8 0 -143.5 0.5t-150.5 0.5q-2 0 -2.5 10t2.5 10z" />
    <glyph glyph-name="Sacute" unicode="&#x15a;" horiz-adv-x="605" 
d="M249 654q-1 0 -3 2.5t-3.5 6t-1.5 4.5q28 20 47 38q29 26 75 74q32 32 67 32q23 0 38 -15t15 -36q0 -38 -59 -58q-37 -15 -175 -48zM461 561q5 0 21.5 19t29.5 39q2 3 9.5 1.5t7.5 -3.5q-7 -94 -4 -199q0 -3 -8.5 -3.5t-9.5 2.5q-39 77 -77 115q-61 59 -144 59
q-67 0 -101 -34q-23 -23 -23 -57q0 -38 31.5 -58t112.5 -40q95 -24 141.5 -44.5t73.5 -47.5q42 -42 42 -118q0 -87 -64.5 -145t-164.5 -58q-50 0 -97.5 15t-75.5 30t-31 15q-7 0 -25.5 -17.5t-31.5 -36.5q-1 -3 -9 -2t-8 4q3 114 -7 219q0 4 8.5 5t9.5 -2q43 -90 90 -137
q72 -70 177 -70q67 0 98 31q24 23 24 61t-34 60.5t-123 43.5q-145 34 -197 85q-43 44 -43 120q0 84 64 142t168 58q48 0 88 -13t60.5 -26t21.5 -13z" />
    <glyph glyph-name="sacute" unicode="&#x15b;" horiz-adv-x="473" 
d="M189 481q-2 -1 -6 5t-2 8q20 18 44 41q24 25 71 83q31 36 65 36q24 0 39 -14t15 -35q0 -39 -55 -61q-43 -21 -171 -63zM441 147q0 -62 -39 -103q-53 -51 -144 -51q-40 0 -75 8.5t-54.5 17.5t-20.5 9q-6 0 -40 -41q-2 -3 -11 -2.5t-9 3.5q-2 59 -11 158q0 3 10 5.5
t12 -1.5q21 -51 49 -79q56 -56 146 -56q53 0 75 20q13 13 13 38q0 23 -23.5 37t-92.5 30q-109 26 -145 62q-33 32 -33 84q0 63 48 106.5t123 43.5q33 0 65 -10t51 -19.5t20 -9.5q4 0 40 49q1 2 10.5 1t9.5 -3q-5 -76 -2 -142q0 -5 -10.5 -5.5t-12.5 2.5q-20 35 -38 53
q-61 61 -132 61q-42 0 -63 -19q-12 -12 -12 -32q0 -26 24.5 -39.5t96.5 -29.5q107 -25 144 -63q31 -31 31 -83z" />
    <glyph glyph-name="Scedilla" unicode="&#x15e;" horiz-adv-x="605" 
d="M287 -200q-52 0 -109 48q-1 1 1.5 6.5t6.5 9.5t6 2q43 -37 77 -37q22 0 35 13q16 18 16 52q0 30 -23 30q-13 0 -37 -11q-3 -1 -9.5 4.5t-4.5 7.5l46 67q-40 5 -78 19t-59.5 26t-24.5 12q-7 0 -25.5 -17.5t-31.5 -36.5q-1 -3 -9 -2t-8 4q3 114 -7 219q0 4 8.5 5t9.5 -2
q43 -90 90 -137q72 -70 177 -70q67 0 98 31q24 23 24 61t-34 60.5t-123 43.5q-145 34 -197 85q-43 44 -43 120q0 84 64 142t168 58q48 0 88 -13t60.5 -26t21.5 -13q5 0 21.5 19t29.5 39q2 3 9.5 1.5t7.5 -3.5q-7 -94 -4 -199q0 -3 -8.5 -3.5t-9.5 2.5q-39 77 -77 115
q-61 59 -144 59q-67 0 -101 -34q-23 -23 -23 -57q0 -38 31.5 -58t112.5 -40q95 -24 141.5 -44.5t73.5 -47.5q42 -42 42 -118q0 -87 -64.5 -145t-164.5 -58h-17l-30 -45q19 6 48 6q33 0 54.5 -15t21.5 -44q0 -26 -23 -51q-42 -40 -101 -40z" />
    <glyph glyph-name="scedilla" unicode="&#x15f;" horiz-adv-x="473" 
d="M219 -200q-52 0 -109 48q-1 1 1.5 6.5t6.5 9.5t6 2q43 -37 77 -37q22 0 35 13q16 18 16 52q0 30 -23 30q-13 0 -37 -11q-3 -1 -9.5 4.5t-4.5 7.5l48 70q-31 3 -58.5 11t-42.5 15t-17 7q-6 0 -40 -41q-2 -3 -11 -2.5t-9 3.5q-2 59 -11 158q0 3 10 5.5t12 -1.5
q21 -51 49 -79q56 -56 146 -56q53 0 75 20q13 13 13 38q0 23 -23.5 37t-92.5 30q-109 26 -145 62q-33 32 -33 84q0 63 48 106.5t123 43.5q33 0 65 -10t51 -19.5t20 -9.5q4 0 40 49q1 2 10.5 1t9.5 -3q-5 -76 -2 -142q0 -5 -10.5 -5.5t-12.5 2.5q-20 35 -38 53
q-61 61 -132 61q-42 0 -63 -19q-12 -12 -12 -32q0 -26 24.5 -39.5t96.5 -29.5q107 -25 144 -63q31 -31 31 -83q0 -62 -39 -103q-53 -51 -144 -51h-7l-32 -49q19 6 48 6q33 0 54.5 -15t21.5 -44q0 -26 -23 -51q-42 -40 -101 -40z" />
    <glyph glyph-name="Scaron" unicode="&#x160;" horiz-adv-x="605" 
d="M468 797q-27 -31 -53 -65t-40 -53t-15 -20q-5 -3 -44.5 -3t-44.5 4q-2 3 -18 25t-38.5 52t-44.5 55q-1 1 1 4.5t5.5 6t6.5 2.5q73 -40 139 -68q72 36 135 73q2 1 7 -5.5t4 -7.5zM461 561q5 0 21.5 19t29.5 39q2 3 9.5 1.5t7.5 -3.5q-7 -94 -4 -199q0 -3 -8.5 -3.5
t-9.5 2.5q-39 77 -77 115q-61 59 -144 59q-67 0 -101 -34q-23 -23 -23 -57q0 -38 31.5 -58t112.5 -40q95 -24 141.5 -44.5t73.5 -47.5q42 -42 42 -118q0 -87 -64.5 -145t-164.5 -58q-50 0 -97.5 15t-75.5 30t-31 15q-7 0 -25.5 -17.5t-31.5 -36.5q-1 -3 -9 -2t-8 4
q3 114 -7 219q0 4 8.5 5t9.5 -2q43 -90 90 -137q72 -70 177 -70q67 0 98 31q24 23 24 61t-34 60.5t-123 43.5q-145 34 -197 85q-43 44 -43 120q0 84 64 142t168 58q48 0 88 -13t60.5 -26t21.5 -13z" />
    <glyph glyph-name="scaron" unicode="&#x161;" horiz-adv-x="473" 
d="M393 643q-27 -34 -53 -71.5t-39.5 -58.5t-14.5 -22q-4 -2 -43 -2t-44 2q-1 1 -15.5 23.5t-38.5 58.5t-46 64q-2 2 3 8.5t9 5.5q71 -44 138 -77q61 34 133 82q2 1 7.5 -5t3.5 -8zM441 147q0 -62 -39 -103q-53 -51 -144 -51q-40 0 -75 8.5t-54.5 17.5t-20.5 9q-6 0 -40 -41
q-2 -3 -11 -2.5t-9 3.5q-2 59 -11 158q0 3 10 5.5t12 -1.5q21 -51 49 -79q56 -56 146 -56q53 0 75 20q13 13 13 38q0 23 -23.5 37t-92.5 30q-109 26 -145 62q-33 32 -33 84q0 63 48 106.5t123 43.5q33 0 65 -10t51 -19.5t20 -9.5q4 0 40 49q1 2 10.5 1t9.5 -3
q-5 -76 -2 -142q0 -5 -10.5 -5.5t-12.5 2.5q-20 35 -38 53q-61 61 -132 61q-42 0 -63 -19q-12 -12 -12 -32q0 -26 24.5 -39.5t96.5 -29.5q107 -25 144 -63q31 -31 31 -83z" />
    <glyph glyph-name="Tcommaaccent" unicode="&#x162;" horiz-adv-x="710" 
d="M34 347q6 103 8 254q0 8 11 8q37 -1 298 -4q163 0 308 5q12 1 12 -6q4 -129 1 -251q0 -4 -8.5 -4t-9.5 3q-68 169 -109 211q-23 23 -70 23q-18 0 -19 -2q-2 -2 -3 -119q-4 -242 -4 -390q0 -38 6 -46q6 -5 90 -10q2 -1 2 -11t-3 -10q-174 7 -380 0q-1 0 -2.5 5t-1 10.5
t2.5 5.5q87 5 91 8q9 12 9 91q3 198 3 395q0 69 -2 71t-28 2q-39 0 -64 -25q-26 -26 -60 -88.5t-60 -126.5q-2 -3 -10 -2.5t-8 3.5zM356 -45q40 0 63.5 -26.5t23.5 -67.5q0 -98 -137 -138q-2 -1 -5 4t-4 9.5t1 5.5q44 14 74.5 38t30.5 50q0 8 -6 8q-2 0 -9 -5.5t-19 -11
t-26 -5.5q-32 0 -50.5 18.5t-18.5 45.5q0 32 23 53.5t59 21.5z" />
    <glyph glyph-name="tcommaaccent" unicode="&#x163;" horiz-adv-x="369" 
d="M358 137q-13 -74 -45 -110t-92 -36q-78 0 -117 41q-35 33 -35 108q0 122 5 260q-6 1 -61 1q-4 0 -3.5 11.5t3.5 11.5q50 2 79.5 14t57.5 41q38 36 62 100q2 4 11 3t10 -5q0 -12 -2 -72.5t-3 -79.5h117q2 0 3 -6t-0.5 -12.5t-3.5 -6.5q-82 1 -116 -1q-4 -74 -4 -274
q0 -57 7 -72q10 -20 35 -20q48 0 71 110q1 2 6 1.5t10 -3t5 -4.5zM190 -51q40 0 63.5 -26.5t23.5 -67.5q0 -98 -137 -138q-2 -1 -5 4t-4 9.5t1 5.5q44 14 74.5 38t30.5 50q0 8 -6 8q-2 0 -9 -5.5t-19 -11t-26 -5.5q-32 0 -50.5 18.5t-18.5 45.5q0 32 23 53.5t59 21.5z" />
    <glyph glyph-name="Tcaron" unicode="&#x164;" horiz-adv-x="710" 
d="M508 790q-27 -31 -53 -65t-40 -53t-15 -20q-5 -2 -44.5 -2t-44.5 3q-2 3 -18 25t-38.5 52t-44.5 55q-1 1 1 4.5t5.5 6t6.5 2.5q73 -40 139 -68q72 36 135 73q2 1 7 -5.5t4 -7.5zM34 347q6 103 8 254q0 8 11 8q37 -1 298 -4q163 0 308 5q12 1 12 -6q4 -129 1 -251
q0 -4 -8.5 -4t-9.5 3q-68 169 -109 211q-23 23 -70 23q-18 0 -19 -2q-2 -2 -3 -119q-4 -242 -4 -390q0 -38 6 -46q6 -5 90 -10q2 -1 2 -11t-3 -10q-174 7 -380 0q-1 0 -2.5 5t-1 10.5t2.5 5.5q87 5 91 8q9 12 9 91q3 198 3 395q0 69 -2 71t-28 2q-39 0 -64 -25
q-26 -26 -60 -88.5t-60 -126.5q-2 -3 -10 -2.5t-8 3.5z" />
    <glyph glyph-name="tcaron" unicode="&#x165;" horiz-adv-x="369" 
d="M279 469q-2 -3 -8.5 0.5t-5.5 6.5q11 36 13 69t-1 74t-3 54q0 31 15.5 49.5t41.5 18.5q24 0 37 -16.5t13 -40.5q0 -79 -102 -215zM358 137q-13 -74 -45 -110t-92 -36q-78 0 -117 41q-35 33 -35 108q0 122 5 260q-6 1 -61 1q-4 0 -3.5 11.5t3.5 11.5q50 2 79.5 14t57.5 41
q38 36 62 100q2 4 11 3t10 -5q0 -12 -2 -72.5t-3 -79.5h117q2 0 3 -6t-0.5 -12.5t-3.5 -6.5q-82 1 -116 -1q-4 -74 -4 -274q0 -57 7 -72q10 -20 35 -20q48 0 71 110q1 2 6 1.5t10 -3t5 -4.5z" />
    <glyph glyph-name="Umacron" unicode="&#x16a;" horiz-adv-x="699" 
d="M527 753q0 -12 -0.5 -38.5t-0.5 -34.5q0 -5 -10 -5h-290q-4 0 -4 5q-2 61 0 71q1 6 9 6q25 0 71 -0.5t72 -0.5q98 0 148 1q5 0 5 -4zM15 609q53 -1 164 -1t170 -1q3 0 3 -10t-3 -10q-64 -1 -68 -5q-9 -9 -9 -209q0 -30 0.5 -91t0.5 -92q0 -86 33 -119q38 -38 115 -38
q71 0 114 44t44 124q2 166 2 229q0 114 -25 141q-14 14 -76 19q-2 0 -2 10t2 10q119 -5 209 -2q3 0 3 -9t-2 -11q-39 -5 -52 -18q-26 -24 -27 -120q-3 -192 -3 -249q0 -99 -62 -155.5t-180 -56.5q-156 0 -227 69q-28 28 -40.5 63t-12.5 93t1.5 170.5t1.5 144.5q0 49 -5 54
q-4 4 -70 6q-1 0 -2 5t0 10t3 5z" />
    <glyph glyph-name="umacron" unicode="&#x16b;" horiz-adv-x="570" 
d="M432 591q0 -54 -1 -73q0 -5 -10 -5h-285q-4 0 -4 5v71q1 6 9 6q25 0 70.5 -0.5t70.5 -0.5q100 0 145 1q5 0 5 -4zM356 -3q-12 0 -12 101h-3q-57 -113 -151 -113q-59 0 -94 35q-32 32 -32 108q0 28 1 119.5t1 109.5q0 38 -4 42t-54 6q-3 0 -3.5 10.5t3.5 10.5
q129 -2 202 0q13 0 13 -12q0 -15 -1 -147.5t-1 -157.5t12 -39t33 -14q36 0 65 55q14 29 14 78q0 35 0.5 94t0.5 69q0 41 -5 46t-57 6q-2 0 -2.5 10t2.5 10q58 2 204 2q17 0 17 -6q-5 -165 -5 -363q0 -26 4 -31q3 -3 58 -5q3 0 3 -10.5t-3 -10.5q-18 0 -101 -1.5t-105 -1.5z
" />
    <glyph glyph-name="Ubreve" unicode="&#x16c;" horiz-adv-x="699" 
d="M520 790q-11 -70 -47 -106t-104 -36q-64 0 -95.5 38.5t-42.5 105.5q0 3 9.5 5.5t11.5 -0.5q11 -26 22 -37q25 -25 96 -25q57 0 86 13.5t45 46.5q0 1 2.5 1t5 -0.5t5.5 -1t4.5 -2t1.5 -2.5zM15 609q53 -1 164 -1t170 -1q3 0 3 -10t-3 -10q-64 -1 -68 -5q-9 -9 -9 -209
q0 -30 0.5 -91t0.5 -92q0 -86 33 -119q38 -38 115 -38q71 0 114 44t44 124q2 166 2 229q0 114 -25 141q-14 14 -76 19q-2 0 -2 10t2 10q119 -5 209 -2q3 0 3 -9t-2 -11q-39 -5 -52 -18q-26 -24 -27 -120q-3 -192 -3 -249q0 -99 -62 -155.5t-180 -56.5q-156 0 -227 69
q-28 28 -40.5 63t-12.5 93t1.5 170.5t1.5 144.5q0 49 -5 54q-4 4 -70 6q-1 0 -2 5t0 10t3 5z" />
    <glyph glyph-name="ubreve" unicode="&#x16d;" horiz-adv-x="570" 
d="M426 643q-11 -81 -50 -119q-35 -37 -99 -37t-95 42t-41 116q0 4 9.5 5.5t11.5 -0.5q8 -29 23 -44q27 -27 93 -27q55 0 84.5 16t44.5 53q0 1 3.5 0.5l7 -1t6 -2t2.5 -2.5zM356 -3q-12 0 -12 101h-3q-57 -113 -151 -113q-59 0 -94 35q-32 32 -32 108q0 28 1 119.5t1 109.5
q0 38 -4 42t-54 6q-3 0 -3.5 10.5t3.5 10.5q129 -2 202 0q13 0 13 -12q0 -15 -1 -147.5t-1 -157.5t12 -39t33 -14q36 0 65 55q14 29 14 78q0 35 0.5 94t0.5 69q0 41 -5 46t-57 6q-2 0 -2.5 10t2.5 10q58 2 204 2q17 0 17 -6q-5 -165 -5 -363q0 -26 4 -31q3 -3 58 -5
q3 0 3 -10.5t-3 -10.5q-18 0 -101 -1.5t-105 -1.5z" />
    <glyph glyph-name="Uring" unicode="&#x16e;" horiz-adv-x="699" 
d="M372 814q43 0 70 -24.5t27 -62.5q0 -36 -27 -59t-70 -23q-40 0 -67 24.5t-27 57.5q0 36 26.5 61.5t67.5 25.5zM372 792q-32 0 -51.5 -19t-19.5 -46q0 -24 20 -42t51 -18q33 0 53.5 16.5t20.5 43.5t-20.5 46t-53.5 19zM15 609q53 -1 164 -1t170 -1q3 0 3 -10t-3 -10
q-64 -1 -68 -5q-9 -9 -9 -209q0 -30 0.5 -91t0.5 -92q0 -86 33 -119q38 -38 115 -38q71 0 114 44t44 124q2 166 2 229q0 114 -25 141q-14 14 -76 19q-2 0 -2 10t2 10q119 -5 209 -2q3 0 3 -9t-2 -11q-39 -5 -52 -18q-26 -24 -27 -120q-3 -192 -3 -249q0 -99 -62 -155.5
t-180 -56.5q-156 0 -227 69q-28 28 -40.5 63t-12.5 93t1.5 170.5t1.5 144.5q0 49 -5 54q-4 4 -70 6q-1 0 -2 5t0 10t3 5z" />
    <glyph glyph-name="uring" unicode="&#x16f;" horiz-adv-x="570" 
d="M280 652q42 0 69 -25t27 -64q0 -37 -26.5 -60t-69.5 -23q-40 0 -66.5 25t-26.5 59q0 36 26.5 62t66.5 26zM280 630q-31 0 -50.5 -19.5t-19.5 -46.5q0 -25 20 -44t50 -19q33 0 53 17.5t20 44.5q0 28 -20 47.5t-53 19.5zM356 -3q-12 0 -12 101h-3q-57 -113 -151 -113
q-59 0 -94 35q-32 32 -32 108q0 28 1 119.5t1 109.5q0 38 -4 42t-54 6q-3 0 -3.5 10.5t3.5 10.5q129 -2 202 0q13 0 13 -12q0 -15 -1 -147.5t-1 -157.5t12 -39t33 -14q36 0 65 55q14 29 14 78q0 35 0.5 94t0.5 69q0 41 -5 46t-57 6q-2 0 -2.5 10t2.5 10q58 2 204 2
q17 0 17 -6q-5 -165 -5 -363q0 -26 4 -31q3 -3 58 -5q3 0 3 -10.5t-3 -10.5q-18 0 -101 -1.5t-105 -1.5z" />
    <glyph glyph-name="Uhungarumlaut" unicode="&#x170;" horiz-adv-x="699" 
d="M276 643q-1 -1 -5 4t-4 7q12 13 26 36q21 31 53 80q22 40 61 40q20 0 34 -12.5t14 -31.5q0 -30 -41 -56q-33 -21 -138 -67zM416 644q-2 -1 -5.5 4.5t-2.5 6.5q13 14 30 36q25 30 57 75q29 41 65 41q19 0 31.5 -12.5t12.5 -30.5q0 -33 -41 -57q-30 -18 -147 -63zM15 609
q53 -1 164 -1t170 -1q3 0 3 -10t-3 -10q-64 -1 -68 -5q-9 -9 -9 -209q0 -30 0.5 -91t0.5 -92q0 -86 33 -119q38 -38 115 -38q71 0 114 44t44 124q2 166 2 229q0 114 -25 141q-14 14 -76 19q-2 0 -2 10t2 10q119 -5 209 -2q3 0 3 -9t-2 -11q-39 -5 -52 -18q-26 -24 -27 -120
q-3 -192 -3 -249q0 -99 -62 -155.5t-180 -56.5q-156 0 -227 69q-28 28 -40.5 63t-12.5 93t1.5 170.5t1.5 144.5q0 49 -5 54q-4 4 -70 6q-1 0 -2 5t0 10t3 5z" />
    <glyph glyph-name="uhungarumlaut" unicode="&#x171;" horiz-adv-x="570" 
d="M187 476q-1 -1 -5.5 3.5t-3.5 6.5q11 18 22 39q11 19 45 87q23 45 60 45q20 0 34 -12t14 -31q0 -30 -36 -58q-34 -27 -130 -80zM324 476q-2 0 -6 4.5t-3 6.5q6 7 15 20t13 19q21 28 52 83q25 46 62 46q19 0 32 -12t13 -31q0 -32 -37 -59q-27 -20 -141 -77zM356 -3
q-12 0 -12 101h-3q-57 -113 -151 -113q-59 0 -94 35q-32 32 -32 108q0 28 1 119.5t1 109.5q0 38 -4 42t-54 6q-3 0 -3.5 10.5t3.5 10.5q129 -2 202 0q13 0 13 -12q0 -15 -1 -147.5t-1 -157.5t12 -39t33 -14q36 0 65 55q14 29 14 78q0 35 0.5 94t0.5 69q0 41 -5 46t-57 6
q-2 0 -2.5 10t2.5 10q58 2 204 2q17 0 17 -6q-5 -165 -5 -363q0 -26 4 -31q3 -3 58 -5q3 0 3 -10.5t-3 -10.5q-18 0 -101 -1.5t-105 -1.5z" />
    <glyph glyph-name="Uogonek" unicode="&#x172;" horiz-adv-x="699" 
d="M371 -198q-37 0 -65.5 16t-28.5 49q0 30 25 58t85 64h-21q-156 0 -227 69q-28 28 -40.5 63t-12.5 93t1.5 170.5t1.5 144.5q0 49 -5 54q-4 4 -70 6q-1 0 -2 5t0 10t3 5q53 -1 164 -1t170 -1q3 0 3 -10t-3 -10q-64 -1 -68 -5q-9 -9 -9 -209q0 -30 0.5 -91t0.5 -92
q0 -86 33 -119q38 -38 115 -38q71 0 114 44t44 124q2 166 2 229q0 114 -25 141q-14 14 -76 19q-2 0 -2 10t2 10q119 -5 209 -2q3 0 3 -9t-2 -11q-39 -5 -52 -18q-26 -24 -27 -120q-3 -192 -3 -249q0 -85 -47 -140t-137 -68q-52 -55 -52 -112q0 -45 31 -45q33 0 66 50
q2 2 5.5 0.5t7.5 -5t3 -5.5q-40 -74 -114 -74z" />
    <glyph glyph-name="uogonek" unicode="&#x173;" horiz-adv-x="570" 
d="M437 -198q-37 0 -65.5 16t-28.5 49q0 31 28 61.5t97 70.5q-88 -2 -112 -2q-12 0 -12 101h-3q-57 -113 -151 -113q-59 0 -94 35q-32 32 -32 108q0 28 1 119.5t1 109.5q0 38 -4 42t-54 6q-3 0 -3.5 10.5t3.5 10.5q129 -2 202 0q13 0 13 -12q0 -15 -1 -147.5t-1 -157.5
t12 -39t33 -14q36 0 65 55q14 29 14 78q0 35 0.5 94t0.5 69q0 41 -5 46t-57 6q-2 0 -2.5 10t2.5 10q58 2 204 2q17 0 17 -6q-5 -165 -5 -363q0 -26 4 -31q3 -3 58 -5q3 0 3 -10.5t-3 -10.5q-38 0 -66 -1q-30 -31 -44 -57.5t-14 -60.5q0 -45 31 -45q33 0 66 50q2 2 5.5 0.5
t7.5 -5t3 -5.5q-40 -74 -114 -74z" />
    <glyph glyph-name="Wcircumflex" unicode="&#x174;" horiz-adv-x="998" 
d="M374 653q27 31 53 64.5t40 53t15 20.5q4 2 44 2t45 -3q2 -3 18 -25t38.5 -52t44.5 -55q1 -1 -1 -4.5t-6 -6t-6 -2.5q-67 36 -139 69q-79 -41 -134 -74q-2 -1 -8 5t-4 8zM6 609q197 -4 343 -1q1 0 2 -5t0.5 -10.5t-1.5 -5.5q-59 -3 -64 -10q-9 -9 2 -49q25 -100 100 -358
h3q68 195 144 442q2 2 29 2q49 0 51 -4q94 -287 144 -443h3q1 3 36 107t51 159q21 71 21 99q0 26 -17 38.5t-67 18.5q-1 1 -1 5t1.5 9t2.5 5q19 0 65.5 -1t65.5 -1q45 0 77 2q3 0 3.5 -9t-1.5 -10q-39 -9 -61 -29q-27 -27 -55 -110q-84 -254 -152 -453q0 -5 -58 -5
q-43 0 -45 5q-52 181 -130 403h-2q-18 -57 -139 -406q-2 -5 -59 -5q-42 0 -44 5q-34 112 -87 281.5t-75 240.5q-15 49 -25 59q-9 9 -62 14q-1 0 -1.5 5t0.5 10t2 5z" />
    <glyph glyph-name="wcircumflex" unicode="&#x175;" horiz-adv-x="786" 
d="M274 487q27 34 53 72t39.5 59t14.5 22q5 2 44 2t44 -3q1 -1 15.5 -23.5t38.5 -58.5t46 -64q2 -2 -3 -8.5t-9 -5.5q-72 44 -138 78q-73 -42 -133 -83q-2 -1 -7.5 5t-4.5 8zM677 363q0 22 -13 31.5t-47 13.5q-2 0 -2.5 5t0.5 9.5t3 4.5q87 -3 169 -1q1 0 2 -5t0.5 -10
t-1.5 -5q-37 -6 -53 -22q-19 -19 -43 -85q-70 -190 -114 -304q-2 -5 -56 -5q-36 0 -38 6q-53 165 -88 284h-2q-17 -48 -51 -145.5t-48 -136.5q-3 -7 -59 -7q-32 0 -35 5q-69 194 -123 358q-11 33 -18 40q-9 9 -53 12q-4 0 -3.5 10t3.5 10q122 -4 281 1q2 0 3 -5t0.5 -10
t-2.5 -5q-47 -4 -51 -8q-8 -8 9 -65q19 -66 66 -210h1q42 119 102 299q1 8 47 8q49 0 52 -9q18 -75 86 -296h2q6 18 23.5 65.5t25.5 70.5q25 72 25 101z" />
    <glyph glyph-name="Ycircumflex" unicode="&#x176;" horiz-adv-x="678" 
d="M206 654q27 31 53 64.5t40 53t15 20.5q4 2 44 2t45 -3q2 -3 18 -25t38.5 -52t44.5 -55q1 -1 -1 -4.5t-6 -6t-6 -2.5q-67 36 -139 69q-79 -41 -134 -74q-2 -1 -8 5t-4 8zM-3 608q168 -2 333 1q2 0 2 -10.5t-2 -10.5q-56 -3 -59 -8q-6 -6 6 -28q59 -113 139 -251h2
q85 141 101 169q27 52 27 78q0 20 -15 29.5t-55 13.5q-2 0 -2.5 4.5t1 9.5t2.5 5q13 0 55.5 -1t57.5 -2q45 0 91 1q2 0 2.5 -9t-1.5 -10q-29 -4 -40 -10q-41 -21 -101 -121q-7 -12 -38 -62t-60 -99q-12 -20 -13 -50q-1 -51 -1 -126q0 -86 8 -92q4 -6 82 -10q2 0 2 -10.5
t-2 -10.5q-90 2 -186 2q-30 0 -93 -0.5t-89 -0.5q-2 0 -2.5 5.5t0 10.5t1.5 5q79 2 86 9t7 46q0 33 1 89t1 68q0 22 -11 42q-89 154 -143 244q-25 42 -38 56q-11 11 -57 12q-1 0 -1.5 5.5t0.5 11t2 5.5z" />
    <glyph glyph-name="ycircumflex" unicode="&#x177;" horiz-adv-x="529" 
d="M144 490q27 34 53 72t39.5 59t14.5 22q5 2 44 2t44 -3q1 -1 15.5 -23.5t38.5 -58.5t46 -64q2 -2 -3 -8.5t-9 -5.5q-72 44 -138 78q-73 -42 -133 -83q-2 -1 -7.5 5t-4.5 8zM131 -219q-45 0 -74.5 25t-29.5 63q0 32 22 52.5t52 20.5q28 0 44 -17.5t16 -42.5q0 -24 -19 -45
q-7 -7 -18.5 -12t-13.5 -7q-8 -7 5 -12q7 -3 19 -3q38 0 65 27q36 36 66 117q-12 26 -84 179.5t-103 220.5q-19 39 -28 47q-10 10 -49 11q-3 0 -3 10.5t3 10.5q46 -1 138 -1q94 0 144 2q2 0 3 -5t0.5 -10t-2.5 -5q-45 -4 -49 -9q-7 -7 13 -55q18 -42 94 -209h1
q46 116 58 150q17 51 17 81q0 20 -11 29t-42 13q-3 1 -2 10t4 9q107 -2 165 0q3 0 3.5 -9.5t-2.5 -10.5q-33 -6 -47 -20q-31 -31 -62 -113q-80 -202 -140 -347q-30 -72 -67 -110q-37 -35 -86 -35z" />
    <glyph glyph-name="Ydieresis" unicode="&#x178;" horiz-adv-x="678" 
d="M374 722q0 29 20 51.5t51 22.5q33 0 53.5 -20.5t20.5 -49.5q0 -31 -20.5 -53t-52.5 -22q-33 0 -52.5 20.5t-19.5 50.5zM189 723q0 29 21 50t53 21q31 0 51.5 -20.5t20.5 -51.5q0 -29 -21 -50t-54 -21q-32 0 -51.5 21t-19.5 51zM-3 608q168 -2 333 1q2 0 2 -10.5t-2 -10.5
q-56 -3 -59 -8q-6 -6 6 -28q59 -113 139 -251h2q85 141 101 169q27 52 27 78q0 20 -15 29.5t-55 13.5q-2 0 -2.5 4.5t1 9.5t2.5 5q13 0 55.5 -1t57.5 -2q45 0 91 1q2 0 2.5 -9t-1.5 -10q-29 -4 -40 -10q-41 -21 -101 -121q-7 -12 -38 -62t-60 -99q-12 -20 -13 -50
q-1 -51 -1 -126q0 -86 8 -92q4 -6 82 -10q2 0 2 -10.5t-2 -10.5q-90 2 -186 2q-30 0 -93 -0.5t-89 -0.5q-2 0 -2.5 5.5t0 10.5t1.5 5q79 2 86 9t7 46q0 33 1 89t1 68q0 22 -11 42q-89 154 -143 244q-25 42 -38 56q-11 11 -57 12q-1 0 -1.5 5.5t0.5 11t2 5.5z" />
    <glyph glyph-name="Zacute" unicode="&#x179;" horiz-adv-x="694" 
d="M302 647q-1 0 -3 2.5t-3.5 6t-1.5 4.5q28 20 47 38q29 26 75 74q32 32 67 32q23 0 38 -15t15 -36q0 -38 -59 -58q-37 -15 -175 -48zM100 610q36 0 109.5 -1t98.5 -1h343q2 0 3.5 -7.5t-0.5 -9.5q-310 -420 -412 -565v-2h148q45 1 72 10t53 36q51 49 109 194q2 4 10 3.5
t8 -4.5q4 -103 -6 -257q0 -7 -5 -8q-99 3 -262 3q-245 0 -334 -1q-3 0 -4.5 8.5t0.5 11.5q234 315 409 563v2q-12 1 -86 1q-66 0 -92.5 -9t-52.5 -35q-43 -43 -110 -170q-2 -3 -9 -2t-8 4q3 185 8 231q2 5 10 5z" />
    <glyph glyph-name="zacute" unicode="&#x17a;" horiz-adv-x="523" 
d="M217 478q-2 -1 -6 5t-2 8q20 18 44 41q24 25 71 83q31 36 65 36q24 0 39 -14t15 -35q0 -39 -55 -61q-43 -21 -171 -63zM65 427q17 -1 162 -1q252 0 255 -2q2 -3 2 -9.5t-2 -9.5q-4 -5 -32 -43t-60.5 -83t-55.5 -77q-15 -21 -58 -82.5t-64 -90.5q-2 -5 3 -5q36 -2 74 -2
q71 0 100 29q29 27 78 139q1 3 4.5 4t6.5 -0.5t3 -3.5q0 -100 -5 -187q-1 -5 -8 -5q-43 2 -228 2q-164 0 -211 -1q-2 1 -4 6.5t0 7.5q6 9 54.5 76.5t77.5 107.5q138 193 146 204v1q-22 2 -91 2q-44 0 -65.5 -24t-81.5 -134q-2 -3 -8.5 -2.5t-6.5 3.5q1 63 9 174q0 6 6 6z
" />
    <glyph glyph-name="Zdotaccent" unicode="&#x17b;" horiz-adv-x="694" 
d="M373 806q39 0 62 -22t23 -55t-25 -54t-62 -21q-41 0 -64 21t-23 52q0 34 26.5 56.5t62.5 22.5zM100 610q36 0 109.5 -1t98.5 -1h343q2 0 3.5 -7.5t-0.5 -9.5q-310 -420 -412 -565v-2h148q45 1 72 10t53 36q51 49 109 194q2 4 10 3.5t8 -4.5q4 -103 -6 -257q0 -7 -5 -8
q-99 3 -262 3q-245 0 -334 -1q-3 0 -4.5 8.5t0.5 11.5q234 315 409 563v2q-12 1 -86 1q-66 0 -92.5 -9t-52.5 -35q-43 -43 -110 -170q-2 -3 -9 -2t-8 4q3 185 8 231q2 5 10 5z" />
    <glyph glyph-name="zdotaccent" unicode="&#x17c;" horiz-adv-x="523" 
d="M276 641q38 0 61 -22.5t23 -55.5t-24.5 -54.5t-61.5 -21.5q-40 0 -63 21.5t-23 52.5q0 34 26.5 57t61.5 23zM65 427q17 -1 162 -1q252 0 255 -2q2 -3 2 -9.5t-2 -9.5q-4 -5 -32 -43t-60.5 -83t-55.5 -77q-15 -21 -58 -82.5t-64 -90.5q-2 -5 3 -5q36 -2 74 -2q71 0 100 29
q29 27 78 139q1 3 4.5 4t6.5 -0.5t3 -3.5q0 -100 -5 -187q-1 -5 -8 -5q-43 2 -228 2q-164 0 -211 -1q-2 1 -4 6.5t0 7.5q6 9 54.5 76.5t77.5 107.5q138 193 146 204v1q-22 2 -91 2q-44 0 -65.5 -24t-81.5 -134q-2 -3 -8.5 -2.5t-6.5 3.5q1 63 9 174q0 6 6 6z" />
    <glyph glyph-name="Zcaron" unicode="&#x17d;" horiz-adv-x="694" 
d="M521 790q-27 -31 -53 -65t-40 -53t-15 -20q-5 -2 -44.5 -2t-44.5 3q-2 3 -18 25t-38.5 52t-44.5 55q-1 1 1 4.5t5.5 6t6.5 2.5q73 -40 139 -68q72 36 135 73q2 1 7 -5.5t4 -7.5zM100 610q36 0 109.5 -1t98.5 -1h343q2 0 3.5 -7.5t-0.5 -9.5q-310 -420 -412 -565v-2h148
q45 1 72 10t53 36q51 49 109 194q2 4 10 3.5t8 -4.5q4 -103 -6 -257q0 -7 -5 -8q-99 3 -262 3q-245 0 -334 -1q-3 0 -4.5 8.5t0.5 11.5q234 315 409 563v2q-12 1 -86 1q-66 0 -92.5 -9t-52.5 -35q-43 -43 -110 -170q-2 -3 -9 -2t-8 4q3 185 8 231q2 5 10 5z" />
    <glyph glyph-name="zcaron" unicode="&#x17e;" horiz-adv-x="523" 
d="M421 640q-27 -34 -53 -71.5t-39.5 -58.5t-14.5 -22q-4 -2 -43 -2t-44 2q-1 1 -15.5 23.5t-38.5 58.5t-46 64q-2 2 3 8.5t9 5.5q71 -44 138 -77q61 34 133 82q2 1 7.5 -5t3.5 -8zM65 427q17 -1 162 -1q252 0 255 -2q2 -3 2 -9.5t-2 -9.5q-4 -5 -32 -43t-60.5 -83
t-55.5 -77q-15 -21 -58 -82.5t-64 -90.5q-2 -5 3 -5q36 -2 74 -2q71 0 100 29q29 27 78 139q1 3 4.5 4t6.5 -0.5t3 -3.5q0 -100 -5 -187q-1 -5 -8 -5q-43 2 -228 2q-164 0 -211 -1q-2 1 -4 6.5t0 7.5q6 9 54.5 76.5t77.5 107.5q138 193 146 204v1q-22 2 -91 2
q-44 0 -65.5 -24t-81.5 -134q-2 -3 -8.5 -2.5t-6.5 3.5q1 63 9 174q0 6 6 6z" />
    <glyph glyph-name="Aringacute" unicode="&#x1fa;" horiz-adv-x="708" 
d="M324 779q-1 0 -3 2.5t-3.5 6t-1.5 4.5q28 20 47 38q29 26 75 74q32 32 67 32q23 0 38 -15t15 -36q0 -38 -59 -58q-37 -15 -175 -48zM709 -2q-112 2 -155 2q-144 0 -173 -1q-2 0 -2.5 10t2.5 10q48 3 56 9q7 7 -1 33q-3 10 -41 119q-81 3 -136 3q-61 0 -86 -1q-8 0 -10 -7
q-13 -28 -23 -57q-9 -28 -9 -49q0 -26 14.5 -36t60.5 -16q1 0 1.5 -4.5t-0.5 -9t-2 -4.5q-74 4 -206 0q-1 0 -1.5 4.5t0 9t1.5 4.5q41 5 65 29q25 23 54 91q130 295 198 466q-41 24 -41 69q0 35 26.5 60.5t67.5 25.5q43 0 69.5 -24.5t26.5 -62.5q0 -43 -35 -65
q12 -35 181 -501q24 -63 37 -76q9 -9 61 -11q3 0 2.5 -10t-2.5 -10zM369 614q73 0 73 57q0 27 -20 46t-53 19q-32 0 -51.5 -18.5t-19.5 -45.5t19.5 -42.5t51.5 -15.5zM177 208q76 -5 209 -5q-24 69 -57 160.5t-39 109.5h-2q-34 -86 -111 -265z" />
    <glyph glyph-name="aringacute" unicode="&#x1fb;" horiz-adv-x="535" 
d="M205 669q-2 -1 -6 5t-2 8q20 18 44 41q24 25 71 83q31 36 65 36q24 0 39 -14t15 -35q0 -39 -55 -61q-43 -21 -171 -63zM264 647q42 0 69 -25t27 -64q0 -37 -26.5 -60t-69.5 -23q-40 0 -66.5 25t-26.5 59q0 36 26.5 62t66.5 26zM264 625q-31 0 -50.5 -19.5t-19.5 -46.5
q0 -25 20 -44t50 -19q33 0 53 17.5t20 44.5q0 28 -20 47.5t-53 19.5zM301 226q-72 -8 -93.5 -29t-21.5 -80q0 -42 9.5 -59.5t30.5 -17.5q19 0 38 14.5t27 31.5t9 50q1 26 1 90zM216 416q-16 0 -28.5 -3.5t-18 -7.5t-5.5 -7t13 -9t25.5 -21t12.5 -40q0 -31 -22 -50t-55 -19
q-34 0 -55.5 19t-21.5 51q0 34 26 60q51 49 158 49q116 0 168 -52q43 -43 43 -135q0 -18 -1.5 -84t-1.5 -107q0 -28 20 -28q31 0 42 81q1 3 10 1.5t9 -5.5q-6 -59 -32 -88.5t-83 -29.5q-96 0 -122 74q-52 -75 -134 -75q-54 0 -93 31.5t-39 79.5q0 44 31 75q26 26 78.5 42.5
t160.5 27.5q1 14 1 80q0 49 -20 68q-20 22 -66 22z" />
    <glyph glyph-name="AEacute" unicode="&#x1fc;" horiz-adv-x="1017" 
d="M511 647q-1 0 -3 2.5t-3.5 6t-1.5 4.5q28 20 47 38q29 26 75 74q32 32 67 32q23 0 38 -15t15 -36q0 -38 -59 -58q-37 -15 -175 -48zM444 572q0 2 -2 3t-3 -1q-143 -230 -202 -326q96 -3 202 -3q6 0 6 4v80q0 193 -1 243zM-5 0q-3 0 -2.5 10t2.5 10q55 11 87 43
q26 26 62 83q152 238 270 432q2 4 -2 4q-36 4 -87 4q-1 0 -2 5t0 10.5t3 5.5q24 1 112 0t112 -1q248 0 398 4q8 0 7 -11q-4 -76 -7 -221q0 -2 -4 -3.5t-9 -0.5t-6 4q-44 119 -86 161q-47 45 -107 45h-91q-11 0 -11 -8q0 -30 -1 -123.5t-2 -122.5q0 -3 5 -3q24 -1 54 0
q45 0 75 51q14 22 24 74q1 3 10 3t9 -3q-3 -69 -3 -138q0 -82 3 -138q0 -3 -8 -3.5t-9 1.5q-17 67 -28 86q-24 41 -67 41h-60q-5 0 -5 -13q0 -156 2 -254q0 -10 24 -10q30 -1 97 -1q54 0 99 47q53 51 93 187q1 2 10.5 1.5t9.5 -3.5q0 -152 -4 -251q0 -5 -8 -5q-310 2 -371 2
q-43 0 -116 -1t-114 -1q-4 0 -4 11t4 11q16 -1 50 1t37 5q4 4 4 60q1 60 1 134q-19 0 -103.5 1.5t-103.5 2.5q-14 0 -17 -3q-1 -1 -20 -32t-29 -49q-30 -50 -30 -76q0 -27 19 -36q13 -7 54 -9q4 0 3.5 -10.5t-3.5 -10.5q-10 0 -54 1t-64 1t-52.5 -0.5t-49.5 -0.5z" />
    <glyph glyph-name="aeacute" unicode="&#x1fd;" horiz-adv-x="781" 
d="M336 478q-2 -1 -6 5t-2 8q20 18 44 41q24 25 71 83q31 36 65 36q24 0 39 -14t15 -35q0 -39 -55 -61q-43 -21 -171 -63zM458 208q0 -92 20 -132q28 -57 104 -57q59 0 102 43q27 27 44 69q2 2 6.5 1t9 -4.5t4.5 -5.5q-14 -42 -47 -76q-58 -58 -148 -58q-73 0 -131 26.5
t-90 69.5q-2 4 -6 0q-70 -94 -161 -94q-62 0 -101 39q-30 30 -30 69q0 48 32 80q47 47 236 69q2 29 2 74q0 41 -10 62q-17 33 -75 33q-19 0 -32 -3.5t-17.5 -7t-4.5 -5.5t13 -9t26 -22.5t13 -37.5q0 -30 -23 -50t-59 -20q-32 0 -52 19t-20 50q0 33 26 59q49 49 154 49
q106 0 150 -50q3 -2 5 0q55 53 146 53t151 -60q57 -57 59 -163q0 -6 -9 -8q-153 0 -287 -2zM534 420q-37 0 -54 -34q-17 -36 -22 -150q0 -4 3 -4q19 0 69.5 1t70.5 1q3 0 3 7q-2 114 -18 147q-15 32 -52 32zM188 114q0 -39 8 -56q8 -18 30 -18q24 0 49 21t42 47q1 1 1 5
q-18 49 -16 111q0 3 -4 3q-73 -12 -91 -30q-19 -20 -19 -83z" />
    <glyph glyph-name="Oslashacute" unicode="&#x1fe;" horiz-adv-x="735" 
d="M305 654q-1 0 -3 2.5t-3.5 6t-1.5 4.5q28 20 47 38q29 26 75 74q32 32 67 32q23 0 38 -15t15 -36q0 -38 -59 -58q-37 -15 -175 -48zM235 281q0 -70 5 -122q28 35 124.5 160.5t127.5 163.5q-7 41 -19 63q-24 50 -100 50q-75 0 -107 -61q-31 -64 -31 -254zM363 11
q75 0 106 63q32 64 32 232q0 84 -5 142q-244 -314 -251 -323q6 -32 17 -55q29 -59 101 -59zM91 -22q-2 -2 -12 5t-8 11q12 14 33.5 39t30.5 36q-16 14 -23 21q-85 85 -85 213q0 117 93 210q105 105 263 105q110 0 199 -63q8 10 27.5 34t30.5 37q1 1 6.5 -2t10 -7.5t3.5 -5.5
q-19 -23 -57 -71q16 -14 22 -20q83 -83 83 -202q0 -132 -100 -230q-100 -100 -251 -100q-107 0 -202 67q-8 -10 -29.5 -36t-34.5 -41z" />
    <glyph glyph-name="oslashacute" unicode="&#x1ff;" horiz-adv-x="554" 
d="M221 481q-2 -1 -6 5t-2 8q20 18 44 41q24 25 71 83q31 36 65 36q24 0 39 -14t15 -35q0 -39 -55 -61q-43 -21 -171 -63zM200 210q0 -45 3 -78q20 25 76 97t76 97q-4 43 -14 61q-17 33 -57 33q-45 0 -63 -40q-21 -40 -21 -170zM278 8q40 0 58 35q21 42 21 206q0 30 -1 43
q-35 -45 -149 -191q8 -51 25.5 -72t45.5 -21zM76 -24q-1 -1 -6.5 1.5t-9 6.5t-2.5 5q5 6 22 26.5t26 30.5q-14 10 -24 21q-58 58 -58 144t65 151q79 79 196 79q83 0 151 -48q35 43 45 55q1 1 6 -1.5t9.5 -7t3.5 -5.5q-7 -8 -22 -27t-24 -29q5 -4 14 -13q62 -62 62 -154
q0 -82 -67 -149q-75 -75 -186 -75q-81 0 -153 46q-22 -27 -48 -57z" />
    <glyph glyph-name="Scommaaccent" unicode="&#x218;" horiz-adv-x="605" 
d="M461 561q5 0 21.5 19t29.5 39q2 3 9.5 1.5t7.5 -3.5q-7 -94 -4 -199q0 -3 -8.5 -3.5t-9.5 2.5q-39 77 -77 115q-61 59 -144 59q-67 0 -101 -34q-23 -23 -23 -57q0 -38 31.5 -58t112.5 -40q95 -24 141.5 -44.5t73.5 -47.5q42 -42 42 -118q0 -87 -64.5 -145t-164.5 -58
q-50 0 -97.5 15t-75.5 30t-31 15q-7 0 -25.5 -17.5t-31.5 -36.5q-1 -3 -9 -2t-8 4q3 114 -7 219q0 4 8.5 5t9.5 -2q43 -90 90 -137q72 -70 177 -70q67 0 98 31q24 23 24 61t-34 60.5t-123 43.5q-145 34 -197 85q-43 44 -43 120q0 84 64 142t168 58q48 0 88 -13t60.5 -26
t21.5 -13zM300 -52q40 0 63.5 -26.5t23.5 -67.5q0 -98 -137 -138q-2 -1 -5 4t-4 9.5t1 5.5q44 14 74.5 38t30.5 50q0 8 -6 8q-2 0 -9 -5.5t-19 -11t-26 -5.5q-32 0 -50.5 18.5t-18.5 45.5q0 32 23 53.5t59 21.5z" />
    <glyph glyph-name="scommaaccent" unicode="&#x219;" horiz-adv-x="473" 
d="M441 147q0 -62 -39 -103q-53 -51 -144 -51q-40 0 -75 8.5t-54.5 17.5t-20.5 9q-6 0 -40 -41q-2 -3 -11 -2.5t-9 3.5q-2 59 -11 158q0 3 10 5.5t12 -1.5q21 -51 49 -79q56 -56 146 -56q53 0 75 20q13 13 13 38q0 23 -23.5 37t-92.5 30q-109 26 -145 62q-33 32 -33 84
q0 63 48 106.5t123 43.5q33 0 65 -10t51 -19.5t20 -9.5q4 0 40 49q1 2 10.5 1t9.5 -3q-5 -76 -2 -142q0 -5 -10.5 -5.5t-12.5 2.5q-20 35 -38 53q-61 61 -132 61q-42 0 -63 -19q-12 -12 -12 -32q0 -26 24.5 -39.5t96.5 -29.5q107 -25 144 -63q31 -31 31 -83zM232 -55
q40 0 63.5 -26.5t23.5 -67.5q0 -98 -137 -138q-2 -1 -5 4t-4 9.5t1 5.5q44 14 74.5 38t30.5 50q0 8 -6 8q-2 0 -9 -5.5t-19 -11t-26 -5.5q-32 0 -50.5 18.5t-18.5 45.5q0 32 23 53.5t59 21.5z" />
    <glyph glyph-name="schwa" unicode="&#x259;" horiz-adv-x="512" 
d="M48 296q-4 -3 -13 1.5t-8 8.5q27 67 79.5 101t119.5 34q125 0 204 -77q58 -58 58 -147q0 -86 -64 -150q-80 -80 -185 -80q-96 0 -159 63q-59 59 -59 159q0 8 6 8q234 0 294 3q0 91 -21 135q-28 54 -103 54q-100 0 -149 -113zM247 8q35 0 51 31q19 39 23 157l-147 -2
q2 -104 18 -145t55 -41z" />
    <glyph glyph-name="circumflex" unicode="&#x2c6;" horiz-adv-x="503" 
d="M105 490q27 34 53 72t39.5 59t14.5 22q5 2 44 2t44 -3q1 -1 15.5 -23.5t38.5 -58.5t46 -64q2 -2 -3 -8.5t-9 -5.5q-72 44 -138 78q-73 -42 -133 -83q-2 -1 -7.5 5t-4.5 8z" />
    <glyph glyph-name="caron" unicode="&#x2c7;" horiz-adv-x="503" 
d="M399 640q-27 -34 -53 -71.5t-39.5 -58.5t-14.5 -22q-4 -2 -43 -2t-44 2q-1 1 -15.5 23.5t-38.5 58.5t-46 64q-2 2 3 8.5t9 5.5q71 -44 138 -77q61 34 133 82q2 1 7.5 -5t3.5 -8z" />
    <glyph glyph-name="breve" unicode="&#x2d8;" horiz-adv-x="503" 
d="M395 643q-11 -81 -50 -119q-35 -37 -99 -37t-95 42t-41 116q0 4 10 5.5t11 -0.5q8 -29 23 -44q27 -27 93 -27q55 0 84.5 16t44.5 53q0 1 3.5 0.5l7 -1t6 -2t2.5 -2.5z" />
    <glyph glyph-name="dotaccent" unicode="&#x2d9;" horiz-adv-x="503" 
d="M255 641q38 0 61 -22.5t23 -55.5t-24.5 -54.5t-61.5 -21.5q-40 0 -63 21.5t-23 52.5q0 34 26.5 57t61.5 23z" />
    <glyph glyph-name="ring" unicode="&#x2da;" horiz-adv-x="503" 
d="M266 652q42 0 69 -25t27 -64q0 -37 -26.5 -60t-69.5 -23q-40 0 -66.5 25t-26.5 59q0 36 26.5 62t66.5 26zM266 630q-31 0 -50.5 -19.5t-19.5 -46.5q0 -25 20 -44t50 -19q33 0 53 17.5t20 44.5q0 28 -20 47.5t-53 19.5z" />
    <glyph glyph-name="ogonek" unicode="&#x2db;" horiz-adv-x="503" 
d="M289 6l20 -2q-33 -33 -48 -60.5t-15 -62.5q0 -45 31 -45q33 0 66 50q2 2 5.5 0.5t7.5 -5t3 -5.5q-40 -74 -114 -74q-37 0 -65.5 16t-28.5 49q0 32 30.5 64t107.5 75z" />
    <glyph glyph-name="tilde" unicode="&#x2dc;" horiz-adv-x="503" 
d="M97 493q-6 50 19.5 92t77.5 42q28 0 80.5 -18.5t82.5 -18.5t47 50q1 1 6 0t9 -3t3 -3q-4 -23 -7 -38t-10 -35t-15.5 -32t-23 -20.5t-33.5 -8.5q-38 0 -96 21t-88 21q-15 0 -22.5 -11t-11.5 -40q0 -1 -4.5 -1.5t-9 1t-4.5 2.5z" />
    <glyph glyph-name="hungarumlaut" unicode="&#x2dd;" horiz-adv-x="503" 
d="M101 476q-1 -1 -5.5 3.5t-3.5 6.5q11 18 22 39q11 19 45 87q23 45 60 45q20 0 34 -12t14 -31q0 -30 -36 -58q-34 -27 -130 -80zM238 476q-2 0 -6 4.5t-3 6.5q6 7 15 20t13 19q21 28 52 83q25 46 62 46q19 0 32 -12t13 -31q0 -32 -37 -59q-27 -20 -141 -77z" />
    <glyph glyph-name="commaaccent" unicode="&#x326;" horiz-adv-x="211" 
d="M102 -45q40 0 63.5 -26.5t23.5 -67.5q0 -98 -137 -138q-2 -1 -5 4t-4 9.5t1 5.5q44 14 74.5 38t30.5 50q0 8 -6 8q-2 0 -9 -5.5t-19 -11t-26 -5.5q-32 0 -50.5 18.5t-18.5 45.5q0 32 23 53.5t59 21.5z" />
    <glyph glyph-name="Wgrave" unicode="&#x1e80;" horiz-adv-x="998" 
d="M596 647q-125 28 -175 48q-58 19 -58 58q0 21 14.5 36t38.5 15q34 0 66 -32q52 -54 75 -74q15 -14 46 -38q1 -2 -2 -7.5t-5 -5.5zM6 609q197 -4 343 -1q1 0 2 -5t0.5 -10.5t-1.5 -5.5q-59 -3 -64 -10q-9 -9 2 -49q25 -100 100 -358h3q68 195 144 442q2 2 29 2q49 0 51 -4
q94 -287 144 -443h3q1 3 36 107t51 159q21 71 21 99q0 26 -17 38.5t-67 18.5q-1 1 -1 5t1.5 9t2.5 5q19 0 65.5 -1t65.5 -1q45 0 77 2q3 0 3.5 -9t-1.5 -10q-39 -9 -61 -29q-27 -27 -55 -110q-84 -254 -152 -453q0 -5 -58 -5q-43 0 -45 5q-52 181 -130 403h-2
q-18 -57 -139 -406q-2 -5 -59 -5q-42 0 -44 5q-34 112 -87 281.5t-75 240.5q-15 49 -25 59q-9 9 -62 14q-1 0 -1.5 5t0.5 10t2 5z" />
    <glyph glyph-name="wgrave" unicode="&#x1e81;" horiz-adv-x="786" 
d="M393 613q6 -6 27.5 -32.5t36.5 -41.5q16 -18 49 -48q2 -3 -2 -8.5t-6 -4.5q-101 32 -168 62q-56 23 -56 62q0 21 15 35t39 14q33 0 65 -38zM677 363q0 22 -13 31.5t-47 13.5q-2 0 -2.5 5t0.5 9.5t3 4.5q87 -3 169 -1q1 0 2 -5t0.5 -10t-1.5 -5q-37 -6 -53 -22
q-19 -19 -43 -85q-70 -190 -114 -304q-2 -5 -56 -5q-36 0 -38 6q-53 165 -88 284h-2q-17 -48 -51 -145.5t-48 -136.5q-3 -7 -59 -7q-32 0 -35 5q-69 194 -123 358q-11 33 -18 40q-9 9 -53 12q-4 0 -3.5 10t3.5 10q122 -4 281 1q2 0 3 -5t0.5 -10t-2.5 -5q-47 -4 -51 -8
q-8 -8 9 -65q19 -66 66 -210h1q42 119 102 299q1 8 47 8q49 0 52 -9q18 -75 86 -296h2q6 18 23.5 65.5t25.5 70.5q25 72 25 101z" />
    <glyph glyph-name="Wacute" unicode="&#x1e82;" horiz-adv-x="998" 
d="M452 647q-1 0 -3 2.5t-3.5 6t-1.5 4.5q28 20 47 38q29 26 75 74q32 32 67 32q23 0 38 -15t15 -36q0 -38 -59 -58q-37 -15 -175 -48zM6 609q197 -4 343 -1q1 0 2 -5t0.5 -10.5t-1.5 -5.5q-59 -3 -64 -10q-9 -9 2 -49q25 -100 100 -358h3q68 195 144 442q2 2 29 2
q49 0 51 -4q94 -287 144 -443h3q1 3 36 107t51 159q21 71 21 99q0 26 -17 38.5t-67 18.5q-1 1 -1 5t1.5 9t2.5 5q19 0 65.5 -1t65.5 -1q45 0 77 2q3 0 3.5 -9t-1.5 -10q-39 -9 -61 -29q-27 -27 -55 -110q-84 -254 -152 -453q0 -5 -58 -5q-43 0 -45 5q-52 181 -130 403h-2
q-18 -57 -139 -406q-2 -5 -59 -5q-42 0 -44 5q-34 112 -87 281.5t-75 240.5q-15 49 -25 59q-9 9 -62 14q-1 0 -1.5 5t0.5 10t2 5z" />
    <glyph glyph-name="wacute" unicode="&#x1e83;" horiz-adv-x="786" 
d="M363 478q-2 -1 -6 5t-2 8q20 18 44 41q24 25 71 83q31 36 65 36q24 0 39 -14t15 -35q0 -39 -55 -61q-43 -21 -171 -63zM677 363q0 22 -13 31.5t-47 13.5q-2 0 -2.5 5t0.5 9.5t3 4.5q87 -3 169 -1q1 0 2 -5t0.5 -10t-1.5 -5q-37 -6 -53 -22q-19 -19 -43 -85
q-70 -190 -114 -304q-2 -5 -56 -5q-36 0 -38 6q-53 165 -88 284h-2q-17 -48 -51 -145.5t-48 -136.5q-3 -7 -59 -7q-32 0 -35 5q-69 194 -123 358q-11 33 -18 40q-9 9 -53 12q-4 0 -3.5 10t3.5 10q122 -4 281 1q2 0 3 -5t0.5 -10t-2.5 -5q-47 -4 -51 -8q-8 -8 9 -65
q19 -66 66 -210h1q42 119 102 299q1 8 47 8q49 0 52 -9q18 -75 86 -296h2q6 18 23.5 65.5t25.5 70.5q25 72 25 101z" />
    <glyph glyph-name="Wdieresis" unicode="&#x1e84;" horiz-adv-x="998" 
d="M543 723q0 29 20 51.5t51 22.5q33 0 53.5 -20.5t20.5 -49.5q0 -31 -20.5 -53t-52.5 -22q-33 0 -52.5 20.5t-19.5 50.5zM358 724q0 29 21 50t53 21q31 0 51.5 -20.5t20.5 -51.5q0 -29 -21 -50t-54 -21q-32 0 -51.5 21t-19.5 51zM6 609q197 -4 343 -1q1 0 2 -5t0.5 -10.5
t-1.5 -5.5q-59 -3 -64 -10q-9 -9 2 -49q25 -100 100 -358h3q68 195 144 442q2 2 29 2q49 0 51 -4q94 -287 144 -443h3q1 3 36 107t51 159q21 71 21 99q0 26 -17 38.5t-67 18.5q-1 1 -1 5t1.5 9t2.5 5q19 0 65.5 -1t65.5 -1q45 0 77 2q3 0 3.5 -9t-1.5 -10q-39 -9 -61 -29
q-27 -27 -55 -110q-84 -254 -152 -453q0 -5 -58 -5q-43 0 -45 5q-52 181 -130 403h-2q-18 -57 -139 -406q-2 -5 -59 -5q-42 0 -44 5q-34 112 -87 281.5t-75 240.5q-15 49 -25 59q-9 9 -62 14q-1 0 -1.5 5t0.5 10t2 5z" />
    <glyph glyph-name="wdieresis" unicode="&#x1e85;" horiz-adv-x="786" 
d="M442 562q0 31 19 54.5t50 23.5q32 0 52.5 -21.5t20.5 -52.5q0 -33 -20 -56t-52 -23q-33 0 -51.5 21.5t-18.5 53.5zM257 563q0 30 21 52.5t53 22.5q31 0 50.5 -21.5t19.5 -54.5q0 -31 -20.5 -53.5t-52.5 -22.5t-51.5 23t-19.5 54zM677 363q0 22 -13 31.5t-47 13.5
q-2 0 -2.5 5t0.5 9.5t3 4.5q87 -3 169 -1q1 0 2 -5t0.5 -10t-1.5 -5q-37 -6 -53 -22q-19 -19 -43 -85q-70 -190 -114 -304q-2 -5 -56 -5q-36 0 -38 6q-53 165 -88 284h-2q-17 -48 -51 -145.5t-48 -136.5q-3 -7 -59 -7q-32 0 -35 5q-69 194 -123 358q-11 33 -18 40
q-9 9 -53 12q-4 0 -3.5 10t3.5 10q122 -4 281 1q2 0 3 -5t0.5 -10t-2.5 -5q-47 -4 -51 -8q-8 -8 9 -65q19 -66 66 -210h1q42 119 102 299q1 8 47 8q49 0 52 -9q18 -75 86 -296h2q6 18 23.5 65.5t25.5 70.5q25 72 25 101z" />
    <glyph glyph-name="Ygrave" unicode="&#x1ef2;" horiz-adv-x="678" 
d="M428 646q-125 28 -175 48q-58 19 -58 58q0 21 14.5 36t38.5 15q34 0 66 -32q52 -54 75 -74q15 -14 46 -38q1 -2 -2 -7.5t-5 -5.5zM-3 608q168 -2 333 1q2 0 2 -10.5t-2 -10.5q-56 -3 -59 -8q-6 -6 6 -28q59 -113 139 -251h2q85 141 101 169q27 52 27 78q0 20 -15 29.5
t-55 13.5q-2 0 -2.5 4.5t1 9.5t2.5 5q13 0 55.5 -1t57.5 -2q45 0 91 1q2 0 2.5 -9t-1.5 -10q-29 -4 -40 -10q-41 -21 -101 -121q-7 -12 -38 -62t-60 -99q-12 -20 -13 -50q-1 -51 -1 -126q0 -86 8 -92q4 -6 82 -10q2 0 2 -10.5t-2 -10.5q-90 2 -186 2q-30 0 -93 -0.5
t-89 -0.5q-2 0 -2.5 5.5t0 10.5t1.5 5q79 2 86 9t7 46q0 33 1 89t1 68q0 22 -11 42q-89 154 -143 244q-25 42 -38 56q-11 11 -57 12q-1 0 -1.5 5.5t0.5 11t2 5.5z" />
    <glyph glyph-name="ygrave" unicode="&#x1ef3;" horiz-adv-x="529" 
d="M263 613q6 -6 27.5 -32.5t36.5 -41.5q16 -18 49 -48q2 -3 -2 -8.5t-6 -4.5q-101 32 -168 62q-56 23 -56 62q0 21 15 35t39 14q33 0 65 -38zM131 -219q-45 0 -74.5 25t-29.5 63q0 32 22 52.5t52 20.5q28 0 44 -17.5t16 -42.5q0 -24 -19 -45q-7 -7 -18.5 -12t-13.5 -7
q-8 -7 5 -12q7 -3 19 -3q38 0 65 27q36 36 66 117q-12 26 -84 179.5t-103 220.5q-19 39 -28 47q-10 10 -49 11q-3 0 -3 10.5t3 10.5q46 -1 138 -1q94 0 144 2q2 0 3 -5t0.5 -10t-2.5 -5q-45 -4 -49 -9q-7 -7 13 -55q18 -42 94 -209h1q46 116 58 150q17 51 17 81q0 20 -11 29
t-42 13q-3 1 -2 10t4 9q107 -2 165 0q3 0 3.5 -9.5t-2.5 -10.5q-33 -6 -47 -20q-31 -31 -62 -113q-80 -202 -140 -347q-30 -72 -67 -110q-37 -35 -86 -35z" />
    <glyph glyph-name="enspace" unicode="&#x2002;" horiz-adv-x="500" 
 />
    <glyph glyph-name="emspace" unicode="&#x2003;" horiz-adv-x="1000" 
 />
    <glyph glyph-name="threeperemspace" unicode="&#x2004;" horiz-adv-x="333" 
 />
    <glyph glyph-name="fourperemspace" unicode="&#x2005;" horiz-adv-x="250" 
 />
    <glyph glyph-name="thinspace" unicode="&#x2009;" horiz-adv-x="133" 
 />
    <glyph glyph-name="hairspace" unicode="&#x200a;" horiz-adv-x="75" 
 />
    <glyph glyph-name="endash" unicode="&#x2013;" horiz-adv-x="499" 
d="M55 261q2 0 99 1t139 1h151q5 0 5 -5v-32q0 -4 -5 -4q-30 0 -184.5 -1.5t-196.5 -1.5q-7 0 -11 2q-1 1 -1 35q0 5 4 5z" />
    <glyph glyph-name="emdash" unicode="&#x2014;" horiz-adv-x="949" 
d="M57 262q37 0 198 -0.5t212 -0.5q28 0 216 0.5t214 0.5q3 0 3 -3q0 -32 -2 -34q-3 -3 -10 -3q-43 0 -353.5 -0.5t-370.5 -0.5h-109q-4 0 -4 2v33q0 6 6 6z" />
    <glyph glyph-name="quoteleft" unicode="&#x2018;" horiz-adv-x="259" 
d="M201 631q3 1 6.5 -4t4.5 -9.5t-1 -6.5q-55 -25 -92 -60q-40 -42 -40 -93q0 -13 8 -13q1 0 18 10t38 10q34 0 53.5 -22t19.5 -54q0 -39 -24.5 -67.5t-63.5 -28.5q-43 0 -69.5 36.5t-26.5 88.5q0 78 46 132t123 81z" />
    <glyph glyph-name="quoteright" unicode="&#x2019;" horiz-adv-x="262" 
d="M127 630q48 0 73 -36t25 -91q0 -77 -56 -135q-43 -42 -122 -77q-4 -1 -9.5 8.5t-1.5 11.5q66 32 99 65q45 45 45 94q0 11 -7 11q-1 0 -21 -11.5t-42 -11.5q-31 0 -51 24.5t-20 60.5q0 35 24 61t64 26z" />
    <glyph glyph-name="quotesinglbase" unicode="&#x201a;" horiz-adv-x="261" 
d="M126 175q48 0 73.5 -37t25.5 -94q0 -73 -57 -132q-38 -37 -116 -74q-4 -1 -9 8.5t-2 11.5q62 31 93 62q46 45 46 95q0 10 -7 10q-1 0 -21 -11.5t-41 -11.5q-32 0 -52 25.5t-20 64.5q0 34 24.5 58.5t62.5 24.5z" />
    <glyph glyph-name="quotedblleft" unicode="&#x201c;" horiz-adv-x="492" 
d="M262 430q0 69 47.5 119.5t120.5 81.5q3 1 6.5 -3.5t4.5 -9.5t0 -7q-56 -25 -94 -63t-38 -85q0 -17 9 -17q4 0 22 11t38 11q33 0 52.5 -25.5t19.5 -57.5q0 -40 -25 -66t-63 -26q-47 0 -73.5 40t-26.5 97zM204 630q2 1 5.5 -3.5t5 -9t-0.5 -6.5q-59 -27 -94 -63
q-42 -42 -42 -90q0 -15 9 -15q2 0 22 10.5t41 10.5q31 0 48.5 -23.5t17.5 -56.5q0 -38 -24 -64.5t-65 -26.5q-43 0 -69.5 37t-26.5 90q0 80 56 138q43 42 117 72z" />
    <glyph glyph-name="quotedblright" unicode="&#x201d;" horiz-adv-x="491" 
d="M125 630q48 0 74.5 -37t26.5 -92q0 -75 -61 -136q-40 -40 -109 -72q-4 -1 -9 9t-2 12q62 34 87 59q46 46 46 91q0 13 -9 13q-3 0 -19.5 -9.5t-35.5 -9.5q-32 0 -53 25t-21 60q0 38 24.5 62.5t60.5 24.5zM355 630q47 0 74 -35.5t27 -89.5q0 -77 -55 -132q-41 -42 -116 -78
q-4 -1 -9 8t-2 11q56 28 93 66q42 42 42 88q0 11 -8 11q-1 0 -20 -9.5t-39 -9.5q-34 0 -52.5 26t-18.5 63q0 34 23 57.5t61 23.5z" />
    <glyph glyph-name="quotedblbase" unicode="&#x201e;" horiz-adv-x="492" 
d="M126 176q48 0 74.5 -37t26.5 -93q0 -74 -62 -136q-38 -38 -108 -71q-4 -2 -9.5 8t-2.5 12q59 31 88 60q46 46 46 91q0 13 -9 13q-3 0 -20 -10t-37 -10q-33 0 -53 25.5t-20 57.5q0 40 24.5 65t61.5 25zM360 175q42 0 69.5 -34.5t27.5 -86.5q0 -81 -57 -138
q-40 -40 -114 -76q-4 -1 -9 8.5t-2 11.5q57 30 92 64q42 42 42 89q0 12 -7 12q-2 0 -21 -8.5t-39 -8.5q-33 0 -51.5 23.5t-18.5 57.5q0 36 24 61t64 25z" />
    <glyph glyph-name="dagger" unicode="&#x2020;" horiz-adv-x="353" 
d="M154 613q0 2 11 3.5t22 0.5t11 -3q-13 -98 -13 -132q0 -5 6 -5q2 0 114 8q1 0 1.5 -9.5t-0.5 -19.5t-2 -10q-12 1 -60.5 6.5t-55.5 5.5q-3 0 -3 -4q0 -8 4 -32t4 -32q0 -14 -6 -94.5t-6 -137.5q-1 -2 -10 -1.5t-9 2.5q0 65 -4.5 141t-4.5 91q0 3 4.5 31.5t4.5 35.5
q0 2 -42 -1.5t-71 -6.5q-4 0 -3 28q0 9 2 9q108 -9 112 -9q2 0 2 3q0 6 -1.5 30.5t-3.5 57t-3 44.5z" />
    <glyph glyph-name="daggerdbl" unicode="&#x2021;" horiz-adv-x="353" 
d="M154 612q0 1 4.5 2t11 1.5t12.5 0.5t10 -1t4 -3q-1 -18 -6.5 -67.5t-5.5 -59.5q0 -6 2 -6q28 -1 116 9q4 0 4 -17q0 -23 -3 -23q-104 13 -116 13q-2 0 -2 -5q0 -4 3.5 -17t3.5 -18q0 -13 -3.5 -48t-2.5 -51q0 -3 4 -3q12 0 55 3.5t57 4.5q1 0 1 -9t-0.5 -18t-1.5 -9
q-99 9 -109 9q-6 0 -7 -2q-2 -64 -2 -140q0 -2 -5 -2.5t-10 0.5t-5 3v139q0 3 -3 3q-24 0 -115 -7q-2 0 -2 21q0 15 3 15q14 -1 40 -4t46 -5t26 -2q3 0 3 4q0 14 -3 49t-3 48q0 5 4.5 19t4.5 18t-2 4q-7 0 -24.5 -2t-44.5 -4.5t-43 -4.5q-3 0 -3 18q0 22 3 20
q93 -10 110 -10q4 0 4 5q0 10 -4.5 61t-5.5 68z" />
    <glyph glyph-name="bullet" unicode="&#x2022;" horiz-adv-x="357" 
d="M183 179q-62 0 -104 42q-37 38 -37 107q0 59 38.5 98t95.5 39q65 0 101 -36q38 -38 38 -105q0 -57 -36.5 -101t-95.5 -44z" />
    <glyph glyph-name="ellipsis" unicode="&#x2026;" horiz-adv-x="782" 
d="M653 177q37 0 62 -29.5t25 -67.5t-26 -64.5t-63 -26.5q-40 0 -65 25.5t-25 66.5q0 40 26.5 68t65.5 28zM393 177q35 0 61.5 -26.5t26.5 -64.5q0 -41 -25.5 -68.5t-65.5 -27.5q-35 0 -61.5 28.5t-26.5 67.5q0 38 27 64.5t64 26.5zM133 176q40 0 64.5 -25t24.5 -64
t-25.5 -68.5t-66.5 -29.5q-39 0 -63.5 29t-24.5 65q0 39 25.5 66t65.5 27z" />
    <glyph glyph-name="guilsinglleft" unicode="&#x2039;" horiz-adv-x="287" 
d="M38 239q94 82 197 191q5 4 17 -5q2 -2 1 -3q-11 -23 -26.5 -54.5t-23.5 -48.5t-19 -42t-21 -51v-2q4 -52 58 -219q1 -3 -6 -7t-9 -2q-32 44 -93 122q-50 64 -76 94q-5 6 -5 14t6 13z" />
    <glyph glyph-name="guilsinglright" unicode="&#x203a;" horiz-adv-x="268" 
d="M57 429q14 -16 74.5 -86t91.5 -105q8 -8 7.5 -15t-9.5 -19q-57 -64 -159 -208q-2 -1 -6.5 -0.5t-9 3.5t-3.5 5q30 100 57 207q2 7 0 15q-21 85 -62 195q-1 1 3 4t9.5 4t6.5 0z" />
    <glyph glyph-name="fraction" unicode="&#x2044;" horiz-adv-x="242" 
d="M-97 -19q28 45 71 111t76 117.5t61 99.5q39 65 105 171t98 159q1 1 6.5 -1t10 -5.5t3.5 -4.5q-24 -39 -96.5 -153t-109.5 -175q-32 -54 -99.5 -160.5t-105.5 -169.5q-2 -3 -12 2.5t-8 8.5z" />
    <glyph glyph-name="Euro" unicode="&#x20ac;" horiz-adv-x="616" 
d="M513 47q-54 -56 -144 -56q-117 0 -192 75q-64 64 -83 171h-64q-3 0 -3 7q0 16 4 17q40 0 60 -1q-2 28 -2 42q0 19 1 29h-60q-3 0 -3 8q0 15 6 15h60q16 110 86 180q83 83 210 83q95 0 157 -62q37 -37 37 -78q0 -34 -23 -55.5t-59 -21.5q-33 0 -56 19.5t-23 52.5
q0 31 19 50q14 14 35 21.5t22 8.5q5 5 -5 15.5t-34.5 20t-55.5 9.5q-53 0 -79 -52q-30 -59 -32 -192q105 0 183 1q6 0 6 -9q0 -14 -5 -14h-185v-19v-52q56 1 184 1q7 0 4 -16q-1 -8 -4 -8q-20 0 -76 0.5t-91 0.5h-16q3 -106 29 -158q28 -56 86 -56q50 0 90 40q38 38 62 95
q2 2 7 1t10 -4.5t4 -5.5q-24 -62 -67 -103z" />
    <glyph glyph-name="published" unicode="&#x2117;" horiz-adv-x="720" 
d="M373 623q128 0 219 -93q92 -91 92 -228q0 -131 -96 -227q-93 -94 -226 -94q-138 0 -230 92q-96 96 -96 229q0 129 98 227q94 94 239 94zM372 604q-138 0 -223 -87q-91 -89 -91 -216q0 -125 89 -216q40 -40 98 -62.5t116 -22.5q124 0 213 88q87 87 87 213q0 134 -84 217
q-86 86 -205 86zM354 459q-2 -1 -2 -82q0 -82 1 -82q1 -2 18 -2q40 0 54 28q9 18 9 64q0 35 -9 53q-11 23 -48 23q-22 0 -23 -2zM197 480h181q113 0 152 -39q23 -23 23 -54q0 -40 -27 -67q-48 -48 -143 -48q-20 0 -30 2v-49q0 -76 1 -77q2 -3 50 -3q2 0 2 -9.5t-2 -9.5
q-7 0 -46 -0.5t-60 -0.5h-103q-1 0 -1 9.5t1 9.5q40 2 41 3q3 3 3 158q0 151 -3 154l-39 2q-1 0 -1 9.5t1 9.5z" />
    <glyph glyph-name="servicemark" unicode="&#x2120;" horiz-adv-x="582" 
d="M252 408q-1 0 -1.5 3.5t-0.5 7t1 3.5q18 2 21 7q8 8 9 33q4 119 1 128q-9 3 -27 4q-1 0 -1 3.5t0.5 7t1.5 3.5q15 -1 70 -1q30 0 32 -3q14 -31 45 -116q8 23 22 63.5t19 54.5q2 2 31 2q53 0 66 -1q1 0 1 -7t-1 -7q-20 0 -22 -2q-1 -9 -0.5 -64.5t1.5 -77.5q0 -23 2 -24
q0 -1 23 -3q1 0 1 -7.5t-1 -7.5t-10.5 0.5t-23 0.5h-24.5h-19.5t-24.5 -0.5t-12 -0.5t-1 7.5t1 7.5q21 3 22 4q2 1 2 28q0 103 -1 126q0 3 -2 1q-8 -25 -28.5 -84t-31.5 -92q-1 -1 -12.5 -1t-11.5 1q-6 18 -35 97q-15 40 -33 81h-1q-1 -61 -1 -122q0 -25 7 -32q5 -5 22 -8
q1 0 1.5 -3.5t-0.5 -7t-2 -3.5q-19 1 -74 1zM193 595q2 0 16 19q1 1 5.5 1t4.5 -2q-2 -42 -2 -67q0 -1 -5 -1.5t-6 0.5q-10 21 -21 32q-19 21 -47 21q-16 0 -27.5 -7.5t-11.5 -19.5t11.5 -18t40.5 -13q46 -11 64 -29q14 -14 14 -38q0 -31 -23.5 -50t-59.5 -19q-16 0 -31 5
t-24 9.5t-10 4.5q-4 0 -15 -18q-1 -1 -6.5 -0.5t-5.5 1.5q3 36 -2 74l3 1q3 1 5 1h3q13 -27 28 -42q22 -22 55 -22q16 0 27.5 7.5t11.5 21.5q0 11 -10 16.5t-40 12.5q-50 14 -65 29q-14 13 -14 39q0 28 23 48t60 20q16 0 29 -4t19 -8z" />
    <glyph glyph-name="trademark" unicode="&#x2122;" horiz-adv-x="603" 
d="M38 517q3 48 3 88q0 3 4 3q6 0 44 -0.5t52 -0.5q29 0 105 2q4 0 4 -4q2 -53 0 -87l-11 -1q-18 50 -30 64q-8 12 -30 11q-1 -1 -1 -39q0 -19 -0.5 -57t-0.5 -54q0 -14 2 -16l31 -4v-4q1 -4 0.5 -7.5t-1.5 -3.5q-27 2 -130 0q-1 0 -1 7.5t1 7.5q30 2 31 3q2 2 2 24
q2 60 2 88q0 47 -1 54l-1 1h-3q-18 0 -27 -10q-15 -18 -32 -66q-1 -1 -6.5 -0.5t-5.5 1.5zM276 608q16 -1 73 -1q28 0 29 -3q14 -31 45 -116q12 32 42 119q1 1 35 1q49 0 62 -1q1 0 1 -7t-1 -7q-20 0 -22 -2v-142q0 -23 3 -24q1 -1 23 -3v-4q1 -4 0.5 -7.5t-1.5 -3.5
t-10 0.5t-22.5 0.5h-24.5h-19.5t-24.5 -0.5t-12 -0.5t-1.5 3.5t-0.5 7.5t1 4q21 3 22 4q2 1 2 28v126q-1 1 -2 1q-8 -22 -28.5 -82t-32.5 -94q0 -1 -12 -1t-12 1q-3 10 -35 97q-12 36 -32 81q0 1 -1 1t-1 -1v-122q0 -26 6 -32q5 -5 22 -8q1 0 1 -7t-1 -7q-19 1 -75 1
q-1 0 -1 7t1 7q16 2 21 7q8 10 9 33q3 112 1 128q-8 3 -28 4v4t1 6v4z" />
    <glyph glyph-name="minus" unicode="&#x2212;" horiz-adv-x="507" 
d="M48 337h411q3 0 3 -6q0 -20 -4 -20h-409q-5 0 -5 20q0 6 4 6z" />
    <glyph glyph-name="a.sc" 
d="M237 466q1 4 50 4t51 -4q85 -222 159 -392q15 -34 24 -42q9 -10 39 -15q2 0 2 -5t-1 -10t-2 -5q-64 3 -274 5q-1 0 -1 10t1 10q39 0 48 8q4 6 2 14.5t-13 36.5q-4 12 -13 33.5t-10 25.5q-20 2 -102 2h-58q-4 0 -7 -4q-8 -15 -10 -25q-13 -39 -13 -52q0 -20 13.5 -29.5
t43.5 -14.5q1 0 1.5 -4.5t-0.5 -9t-2 -4.5q-52 2 -165 0q-2 0 -2 8t1 9q34 6 50 23q22 22 46 78q15 37 142 349zM291 165q-15 39 -41 103t-33 81q-1 1 -3 0q-6 -15 -74 -184q99 -2 151 0z" />
    <glyph glyph-name="b.sc" horiz-adv-x="568" 
d="M316 460q135 0 184 -49q24 -24 24 -58q0 -35 -27 -64q-34 -33 -109 -45q-2 -2 0 -4q92 -18 125 -51q27 -27 27 -63q0 -47 -33 -78q-50 -50 -191 -50q-35 0 -110 0.5t-116.5 0.5h-75.5q-2 0 -2 10t2 10q62 2 65 4q4 5 4 40q0 30 0.5 85.5t0.5 92.5q0 192 -2 194
q-5 4 -62 5q-2 0 -2.5 10t2.5 10h296zM286 439q-31 0 -33 -1q-3 -4 -3 -76q0 -93 1 -108q2 -2 32 -2q53 0 66 27q10 22 10 75q0 40 -9 57q-14 28 -64 28zM252 229q-1 -2 -1 -12q0 -19 -0.5 -71t-0.5 -78q0 -42 3 -45q4 -4 38 -4q30 0 46 8q32 15 32 99q0 46 -8 66.5
t-24 28.5q-18 9 -48 9q-35 0 -37 -1z" />
    <glyph glyph-name="c.sc" horiz-adv-x="532" 
d="M292 469q36 0 66 -11.5t46 -22.5t18 -11q13 0 56 49q3 1 8.5 0t5.5 -4v-121q0 -58 1 -75q0 -2 -8.5 -2.5t-9.5 1.5q-11 26 -23 50q-64 121 -143 121q-51 0 -74 -45q-24 -48 -24 -173q0 -98 25 -146q28 -55 98 -55q57 0 97 38q34 34 49 99q0 1 2.5 1.5t5 0t5.5 -1.5
t4.5 -2.5t1.5 -2.5q-15 -73 -57 -114q-52 -52 -154 -52q-123 0 -195 72q-65 63 -65 157q0 101 70 173q79 77 194 77z" />
    <glyph glyph-name="d.sc" horiz-adv-x="610" 
d="M292 -2q-41 0 -151 1.5t-125 -0.5q-2 0 -2 10.5t2 10.5q61 3 62 4q7 5 7 105v121q0 24 -0.5 56t-0.5 44q0 83 -5 88q-2 2 -55 2q-1 0 -1.5 5t0 9.5t1.5 4.5q61 1 242 1q183 0 256 -73q60 -60 60 -143q0 -98 -63 -161q-35 -35 -99 -60t-128 -25zM285 20q32 0 58.5 13.5
t38.5 37.5q21 42 21 163q0 114 -23 159q-12 25 -34 34.5t-61 9.5q-31 0 -34 -3q-1 -2 -1 -89v-214q0 -104 3 -107q4 -4 32 -4z" />
    <glyph glyph-name="e.sc" horiz-adv-x="557" 
d="M285 1q-11 0 -60.5 -0.5t-67.5 -0.5q-125 0 -143 -1q-1 0 -1 5t0.5 10t1.5 5q58 0 61 3q7 5 7 48q0 4 0.5 36.5t1 79t0.5 83.5v123q0 35 -9 44q-4 4 -56 4q-3 2 -1.5 11t5.5 9q1 0 127 -1t159 -1q94 0 194 2q4 0 4 -6q-6 -93 -8 -174q0 -4 -8 -4.5t-9 3.5q-32 78 -72 118
q-23 23 -46 31.5t-63 8.5q-45 0 -47 -2q-5 -5 -5 -54v-71q0 -10 0.5 -32.5t0.5 -31.5h23q40 0 58 18q23 23 37 81q1 2 9 1.5t8 -3.5q-2 -149 1 -213q0 -3 -7.5 -3t-8.5 2q-23 62 -38 76q-18 18 -56 18q-22 0 -26 -1q-1 -87 -1 -154q0 -29 3.5 -36t17.5 -7q15 0 30.5 -0.5
t21.5 -0.5q54 0 97 43q49 47 81 133q1 3 9 3t8 -4q-1 -33 -3.5 -101t-3.5 -95q0 -4 -6 -4q-173 2 -220 2z" />
    </font>
</defs>
</svg>
